<?xml version="1.0" encoding="UTF-8" standalone="no"?>
<svg
   id="svg13"
   width="16"
   height="16"
   version="1.1"
   viewBox="0 0 16 16"
   xml:space="preserve"
   sodipodi:docname="base64-symbolic.svg"
   inkscape:version="1.3.2 (091e20ef0f, 2023-11-25)"
   xmlns:inkscape="http://www.inkscape.org/namespaces/inkscape"
   xmlns:sodipodi="http://sodipodi.sourceforge.net/DTD/sodipodi-0.dtd"
   xmlns="http://www.w3.org/2000/svg"
   xmlns:svg="http://www.w3.org/2000/svg"><defs
     id="defs1" /><sodipodi:namedview
     id="namedview1"
     pagecolor="#ffffff"
     bordercolor="#000000"
     borderopacity="0.25"
     inkscape:showpageshadow="2"
     inkscape:pageopacity="0.0"
     inkscape:pagecheckerboard="0"
     inkscape:deskcolor="#d1d1d1"
     inkscape:zoom="75.4375"
     inkscape:cx="10.717481"
     inkscape:cy="7.5890638"
     inkscape:window-width="2560"
     inkscape:window-height="1403"
     inkscape:window-x="0"
     inkscape:window-y="0"
     inkscape:window-maximized="1"
     inkscape:current-layer="surface5623" /><g
     id="surface5623"><rect
       style="fill:#000;stroke:#000;stroke-width:1.87457;stroke-dasharray:none;stroke-opacity:1;fill-opacity:0"
       id="rect352"
       width="14.125"
       height="14.101"
       x=".937"
       y=".962"
       rx=".999"
       ry=".997" /><g
       id="g1"
       inkscape:label="corners"><path
         id="path1761"
         d="m 10.598893,8.6982954 c 0,0 -0.457031,-0.01563 -0.9492189,0.230469 -0.488281,0.246093 -1.050781,0.9375 -1.050781,1.7695316 v 3 h 1.9999999 v -3 h 3 V 8.6982954 Z m 0,0"
         transform="matrix(0.87231486,0,0,0.87434155,1.0214811,1.0052675)"
         style="display:none" /><path
         id="path1763"
         d="m 2.4011074,8.698295 v 2.000001 h 2.9999999 v 3 h 2 v -3 c 0,-0.832031 -0.5625,-1.523438 -1.0507809,-1.769531 C 5.8581384,8.682671 5.4011073,8.698295 5.4011073,8.698295 Z m 0,0"
         transform="matrix(0.87231486,0,0,0.87434155,1.0214811,1.0052675)"
         style="display:none" /><path
         id="path1765"
         d="M 8.598893,2.3017046 V 5.301705 c 0,0.832031 0.5625,1.523438 1.050781,1.769531 0.492188,0.246094 0.949219,0.230469 0.949219,0.230469 h 3 v -2 h -3 V 2.3017046 Z m 0,0"
         transform="matrix(0.87231486,0,0,0.87434155,1.0214811,1.0052675)"
         style="display:none" /><path
         id="path1767"
         d="m 5.4011073,2.3017044 v 3.0000007 h -3 v 2 h 3 c 0,0 0.457031,0.01563 0.949219,-0.230469 0.488281,-0.246093 1.050781,-0.9375 1.050781,-1.769531 V 2.3017044 Z m 0,0"
         transform="matrix(0.87231486,0,0,0.87434155,1.0214811,1.0052675)"
         style="display:none" /></g><text
       xml:space="preserve"
       style="font-size:9.33333px;fill:#000000"
       x="2.2086654"
       y="11.238666"
       id="text1"><tspan
         sodipodi:role="line"
         id="tspan1"
         x="2.2086654"
         y="11.238666"
         style="font-style:normal;font-variant:normal;font-weight:800;font-stretch:normal;font-size:9.33333px;font-family:Cantarell;-inkscape-font-specification:'Cantarell Ultra-Bold'">64</tspan></text></g></svg>
