<svg xmlns="http://www.w3.org/2000/svg" xmlns:svg="http://www.w3.org/2000/svg" id="svg13" width="16" height="16" version="1.1" viewBox="0 0 16 16" xml:space="preserve"><g id="surface5623"><rect style="fill:#000;stroke:#000;stroke-width:1.87457;stroke-dasharray:none;stroke-opacity:1;fill-opacity:0" id="rect352" width="14.125" height="14.101" x=".937" y=".962" rx=".999" ry=".997"/><path id="path1761" d="m 10.598893,8.6982954 c 0,0 -0.457031,-0.01563 -0.9492189,0.230469 -0.488281,0.246093 -1.050781,0.9375 -1.050781,1.7695316 v 3 h 1.9999999 v -3 h 3 V 8.6982954 Z m 0,0" transform="matrix(0.87231486,0,0,0.87434155,1.0214811,1.0052675)"/><path id="path1763" d="m 2.4011074,8.698295 v 2.000001 h 2.9999999 v 3 h 2 v -3 c 0,-0.832031 -0.5625,-1.523438 -1.0507809,-1.769531 C 5.8581384,8.682671 5.4011073,8.698295 5.4011073,8.698295 Z m 0,0" transform="matrix(0.87231486,0,0,0.87434155,1.0214811,1.0052675)"/><path id="path1765" d="M 8.598893,2.3017046 V 5.301705 c 0,0.832031 0.5625,1.523438 1.050781,1.769531 0.492188,0.246094 0.949219,0.230469 0.949219,0.230469 h 3 v -2 h -3 V 2.3017046 Z m 0,0" transform="matrix(0.87231486,0,0,0.87434155,1.0214811,1.0052675)"/><path id="path1767" d="m 5.4011073,2.3017044 v 3.0000007 h -3 v 2 h 3 c 0,0 0.457031,0.01563 0.949219,-0.230469 0.488281,-0.246093 1.050781,-0.9375 1.050781,-1.769531 V 2.3017044 Z m 0,0" transform="matrix(0.87231486,0,0,0.87434155,1.0214811,1.0052675)"/></g></svg>