<?xml version="1.0" encoding="UTF-8" standalone="no"?>
<svg
   width="16px"
   height="16px"
   viewBox="0 0 16 16"
   version="1.1"
   id="svg13"
   sodipodi:docname="base64-symbolic.svg"
   inkscape:version="1.2.1 (9c6d41e410, 2022-07-14)"
   xml:space="preserve"
   inkscape:export-filename="base64enc-symbolic.svg"
   inkscape:export-xdpi="96"
   inkscape:export-ydpi="96"
   xmlns:inkscape="http://www.inkscape.org/namespaces/inkscape"
   xmlns:sodipodi="http://sodipodi.sourceforge.net/DTD/sodipodi-0.dtd"
   xmlns="http://www.w3.org/2000/svg"
   xmlns:svg="http://www.w3.org/2000/svg"><defs
     id="defs17" /><sodipodi:namedview
     id="namedview15"
     pagecolor="#ffffff"
     bordercolor="#000000"
     borderopacity="0.25"
     inkscape:showpageshadow="2"
     inkscape:pageopacity="0.0"
     inkscape:pagecheckerboard="0"
     inkscape:deskcolor="#d1d1d1"
     showgrid="false"
     inkscape:zoom="49.3125"
     inkscape:cx="8.6692015"
     inkscape:cy="7.5640051"
     inkscape:window-width="1920"
     inkscape:window-height="1014"
     inkscape:window-x="0"
     inkscape:window-y="0"
     inkscape:window-maximized="1"
     inkscape:current-layer="surface5623" /><g
     id="surface5623"><rect
       style="fill:#000000;stroke:#000000;stroke-width:1.87457;stroke-dasharray:none;stroke-opacity:1;fill-opacity:0"
       id="rect352"
       width="14.125443"
       height="14.101176"
       x="0.93728024"
       y="0.96154457"
       rx="0.99876827"
       ry="0.99705249"
       inkscape:label="rect352" /><path
       d="m 10.598893,8.6982954 c 0,0 -0.457031,-0.01563 -0.9492189,0.230469 -0.488281,0.246093 -1.050781,0.9375 -1.050781,1.7695316 v 3 h 1.9999999 v -3 h 3 V 8.6982954 Z m 0,0"
       id="path1761"
       transform="matrix(0.87231486,0,0,0.87434155,1.0214811,1.0052675)" /><path
       d="m 2.4011074,8.698295 v 2.000001 h 2.9999999 v 3 h 2 v -3 c 0,-0.832031 -0.5625,-1.523438 -1.0507809,-1.769531 C 5.8581384,8.682671 5.4011073,8.698295 5.4011073,8.698295 Z m 0,0"
       id="path1763"
       transform="matrix(0.87231486,0,0,0.87434155,1.0214811,1.0052675)" /><path
       d="M 8.598893,2.3017046 V 5.301705 c 0,0.832031 0.5625,1.523438 1.050781,1.769531 0.492188,0.246094 0.949219,0.230469 0.949219,0.230469 h 3 v -2 h -3 V 2.3017046 Z m 0,0"
       id="path1765"
       transform="matrix(0.87231486,0,0,0.87434155,1.0214811,1.0052675)" /><path
       d="m 5.4011073,2.3017044 v 3.0000007 h -3 v 2 h 3 c 0,0 0.457031,0.01563 0.949219,-0.230469 0.488281,-0.246093 1.050781,-0.9375 1.050781,-1.769531 V 2.3017044 Z m 0,0"
       id="path1767"
       transform="matrix(0.87231486,0,0,0.87434155,1.0214811,1.0052675)" /></g></svg>
