<?xml version="1.0" encoding="UTF-8" standalone="no"?>
<svg
   width="16px"
   height="16px"
   viewBox="0 0 16 16"
   version="1.1"
   id="svg62"
   sodipodi:docname="certificate-parser-symbolic.svg"
   xml:space="preserve"
   inkscape:version="1.2.2 (b0a8486541, 2022-12-01)"
   xmlns:inkscape="http://www.inkscape.org/namespaces/inkscape"
   xmlns:sodipodi="http://sodipodi.sourceforge.net/DTD/sodipodi-0.dtd"
   xmlns="http://www.w3.org/2000/svg"
   xmlns:svg="http://www.w3.org/2000/svg"><defs
     id="defs66" /><sodipodi:namedview
     id="namedview64"
     pagecolor="#ffffff"
     bordercolor="#000000"
     borderopacity="0.25"
     inkscape:showpageshadow="2"
     inkscape:pageopacity="0.0"
     inkscape:pagecheckerboard="0"
     inkscape:deskcolor="#d1d1d1"
     showgrid="false"
     inkscape:zoom="49.3125"
     inkscape:cx="7.5538657"
     inkscape:cy="8.0101394"
     inkscape:window-width="1920"
     inkscape:window-height="1016"
     inkscape:window-x="0"
     inkscape:window-y="0"
     inkscape:window-maximized="1"
     inkscape:current-layer="g367" /><g
     id="g367"
     transform="matrix(1.0597493,0,0,1.0597493,-0.03885241,-0.02691017)"><path
       d="m 10.875,10.0625 c -0.8125,0.148438 -1.105469,1.160156 -0.5,1.71875 l 3,3 c 0.957031,0.9375 2.363281,-0.5 1.40625,-1.4375 l -3,-3 C 11.546875,10.105469 11.207031,9.996094 10.875,10.0625 Z m 0,0"
       id="path349" /><path
       d="m 6.570312,0.0625 c -3.578124,0 -6.4999995,2.921875 -6.4999995,6.5 0,3.578125 2.9218755,6.5 6.4999995,6.5 3.578126,0 6.5,-2.921875 6.5,-6.5 0,-3.578125 -2.921874,-6.5 -6.5,-6.5 z m 0,2 c 2.5,0 4.5,2.003906 4.5,4.5 0,2.5 -2,4.5 -4.5,4.5 -2.496093,0 -4.5,-2 -4.5,-4.5 0,-2.496094 2.003907,-4.5 4.5,-4.5 z m 0,0"
       id="path351" /><path
       d="m 6.5230734,3.4123019 c -0.9649301,0 -1.7550415,0.7901113 -1.7550415,1.7550415 v 0.8775208 c -0.4867498,0 -0.8775207,0.3907709 -0.8775207,0.8775207 v 2.193802 c 0,0.2433749 0.1953852,0.4387602 0.4387604,0.4387602 h 4.3876036 c 0.243375,0 0.438761,-0.1953853 0.438761,-0.4387602 v -2.193802 c 0,-0.4867498 -0.390772,-0.8775207 -0.8775211,-0.8775207 V 5.1673434 c 0,-0.9649302 -0.7901115,-1.7550415 -1.7550417,-1.7550415 z m 0,0.8775208 c 0.4936054,0 0.8775208,0.3839152 0.8775208,0.8775207 V 6.0448642 H 5.6455527 V 5.1673434 c 0,-0.4936055 0.3839153,-0.8775207 0.8775207,-0.8775207 z m 0,0"
       id="path369"
       style="stroke-width:0.43876" /></g></svg>
