<?xml version="1.0" encoding="UTF-8" standalone="no"?>
<svg
   width="16px"
   height="16px"
   viewBox="0 0 16 16"
   version="1.1"
   id="svg13"
   sodipodi:docname="csr-symbolic.svg"
   xml:space="preserve"
   inkscape:version="1.2.2 (b0a8486541, 2022-12-01)"
   xmlns:inkscape="http://www.inkscape.org/namespaces/inkscape"
   xmlns:sodipodi="http://sodipodi.sourceforge.net/DTD/sodipodi-0.dtd"
   xmlns="http://www.w3.org/2000/svg"
   xmlns:svg="http://www.w3.org/2000/svg"><defs
     id="defs17"><inkscape:path-effect
       effect="offset"
       id="path-effect1272"
       is_visible="true"
       lpeversion="1.2"
       linejoin_type="round"
       unit="mm"
       offset="0.288099"
       miter_limit="4"
       attempt_force_join="false"
       update_on_knot_move="true" /><inkscape:path-effect
       effect="offset"
       id="path-effect377"
       is_visible="true"
       lpeversion="1.2"
       linejoin_type="round"
       unit="mm"
       offset="0.088099429"
       miter_limit="4"
       attempt_force_join="false"
       update_on_knot_move="true" /><inkscape:path-effect
       effect="offset"
       id="path-effect371"
       is_visible="true"
       lpeversion="1.2"
       linejoin_type="round"
       unit="mm"
       offset="0.2005"
       miter_limit="4"
       attempt_force_join="false"
       update_on_knot_move="true" /></defs><sodipodi:namedview
     id="namedview15"
     pagecolor="#ffffff"
     bordercolor="#000000"
     borderopacity="0.25"
     inkscape:showpageshadow="2"
     inkscape:pageopacity="0.0"
     inkscape:pagecheckerboard="0"
     inkscape:deskcolor="#d1d1d1"
     showgrid="false"
     inkscape:zoom="49.3125"
     inkscape:cx="5.2217997"
     inkscape:cy="7.9493029"
     inkscape:window-width="1920"
     inkscape:window-height="1016"
     inkscape:window-x="0"
     inkscape:window-y="0"
     inkscape:window-maximized="1"
     inkscape:current-layer="svg13" /><path
     d="m 7.0464987,5.4425671 c 1.65625,0 3.0000003,1.34375 3.0000003,3.0000004 0,0.851562 -0.3632813,1.6640635 -1.0000003,2.2343815 L 9.0267744,16 7.068441,14.544925 5.0397654,16 l 0.00673,-5.323051 c -0.636719,-0.570318 -1,-1.3828195 -1,-2.2343815 0,-1.6562504 1.34375,-3.0000004 3.0000004,-3.0000004 z"
     id="path358"
     style="display:inline"
     sodipodi:nodetypes="sscccccss" /><path
     d="M 6.2217997,2.0228137"
     id="path711" /><path
     id="path698"
     d="M 3 0 C 1.3554706 0 0 1.3554706 0 3 L 0 10 C -2.9605918e-16 11.644529 1.3554706 13 3 13 L 4 13 L 4 11 L 3 11 C 2.4453126 11 2 10.554687 2 10 L 2 3 C 2 2.4296886 2.4296886 2 3 2 L 10.185547 2 L 10.185547 1.5683594 A 1.0888781 1.0888781 0 0 1 11.275391 0.47851562 L 12.333984 0.47851562 A 1.0888781 1.0888781 0 0 1 13.423828 1.5683594 L 13.423828 2.0898438 C 13.648941 2.1901274 13.824795 2.3693898 13.919922 2.5976562 L 14.451172 2.5976562 A 1.0888781 1.0888781 0 0 1 15.541016 3.6875 L 15.541016 4.7460938 A 1.0888781 1.0888781 0 0 1 14.451172 5.8359375 L 14 5.8359375 L 14 10 C 14 10.554687 13.554687 11 13 11 L 10 11 L 10 13 L 13 13 C 14.644529 13 16 11.644529 16 10 L 16 3 C 16 1.3554706 14.644529 0 13 0 L 3 0 z " /><path
     d="M 11.275391,1.2363281 A 0.33297422,0.33297422 0 0 0 10.943359,1.5683594 V 3.3554688 H 9.1582031 A 0.33297422,0.33297422 0 0 0 8.8261719,3.6875 V 4.7460938 A 0.33297422,0.33297422 0 0 0 9.1582031,5.078125 h 1.7851559 v 1.7851562 a 0.33297422,0.33297422 0 0 0 0.332032,0.3320313 h 1.058593 A 0.33297422,0.33297422 0 0 0 12.666016,6.8632812 V 5.078125 h 1.785156 A 0.33297422,0.33297422 0 0 0 14.783203,4.7460938 V 3.6875 A 0.33297422,0.33297422 0 0 0 14.451172,3.3554688 H 12.666016 V 1.5683594 A 0.33297422,0.33297422 0 0 0 12.333984,1.2363281 Z"
     id="path373"
     style="display:inline;fill:#e01b24;stroke-width:0.529357"
     inkscape:path-effect="#path-effect377"
     inkscape:original-d="M 11.274708,1.5691718 V 3.6865986 H 9.1572595 v 1.058713 h 2.1174485 v 2.117427 h 1.058716 v -2.117427 h 2.117427 V 3.6865986 H 12.333424 V 1.5691718 Z m 0,0" /></svg>
