<?xml version="1.0" encoding="UTF-8" standalone="no"?>
<svg id="svg74" height="16px" version="1.1" viewBox="0 0 16 16" width="16px" xml:space="preserve" xmlns="http://www.w3.org/2000/svg" sodipodi:docname="database-symbolic.svg" inkscape:version="1.2.2 (b0a8486541, 2022-12-01)" xmlns:inkscape="http://www.inkscape.org/namespaces/inkscape" xmlns:sodipodi="http://sodipodi.sourceforge.net/DTD/sodipodi-0.dtd" xmlns:svg="http://www.w3.org/2000/svg">
    <defs id="defs78"/>
    <sodipodi:namedview pagecolor="#ffffff" bordercolor="#000000" borderopacity="0.25" inkscape:showpageshadow="2" inkscape:pageopacity="0.0" inkscape:pagecheckerboard="0" inkscape:deskcolor="#d1d1d1" showgrid="false" inkscape:zoom="34.869203" inkscape:cx="6.954561" inkscape:cy="8.9190452" inkscape:window-width="1920" inkscape:window-height="1016" inkscape:window-x="0" inkscape:window-y="0" inkscape:window-maximized="1" inkscape:current-layer="g376"/>
    <g id="g376" fill="none" stroke="currentColor" stroke-linecap="round" stroke-linejoin="round" stroke-width="2" transform="matrix(0.68726164 0 0 0.68726164 -0.12729235 -0.28178301)">
        <path id="path639" d="M 10.309545 23.105546 C 8.6612062 22.99136 7.3368357 22.79407 6.1575298 22.487027 C 3.6970036 21.846406 2.3147983 20.902 1.9871518 19.63757 C 1.9276673 19.408011 1.9220351 18.636017 1.9319172 12.066773 l 0.011 -7.3151736 l 0.094612 -0.2485717 C 2.4493481 3.4210738 3.6871838 2.566279 5.6904341 1.9804949 C 9.8118745 0.77531636 15.967509 0.97458916 19.360631 2.4230324 c 1.331503 0.5683867 2.158136 1.3100444 2.425849 2.1764795 c 0.08011 0.2593037 0.08193 0.4272456 0.08145 7.5529131 c -0.000539 7.897195 0.01164 7.467714 -0.22467 7.949907 c -0.773767 1.579145 -3.751862 2.698015 -7.953679 2.988191 c -0.542397 0.03745 -2.904611 0.04796 -3.380033 0.01502 z m 3.338304 -1.975223 c 2.8164 -0.206753 5.197045 -0.855666 6.030457 -1.643774 l 0.228862 -0.216421 v -2.304672 v -2.304673 l -0.216047 0.10948 C 18.662 15.291758 16.789217 15.768594 14.962307 15.974284 C 12.987923 16.19658 10.726274 16.196083 8.8281728 15.972984 C 7.0455842 15.763422 5.3354398 15.33851 4.2426542 14.833641 L 3.8833104 14.667624 v 2.275513 c 0 2.614208 -0.039321 2.367511 0.4304448 2.700537 c 1.0215152 0.724169 3.2230561 1.295698 5.7036888 1.480701 c 0.684891 0.05107 2.964976 0.05484 3.630405 0.006 z m -0.646796 -6.970314 c 1.622401 -0.07488 2.866136 -0.241707 4.086925 -0.548201 c 1.307804 -0.328341 2.146017 -0.701418 2.641843 -1.175844 l 0.177347 -0.169693 V 9.9798747 c 0 -1.257517 -0.01164 -2.286395 -0.02578 -2.286395 c -0.01411 0 -0.19003 0.07396 -0.390773 0.164345 c -1.331614 0.599593 -3.256423 1.023743 -5.529796 1.218543 c -0.933007 0.07995 -3.361283 0.06829 -4.3189301 -0.02073 C 7.3078772 8.8386657 5.2997475 8.3681097 4.088553 7.7543517 L 3.8833134 7.6503487 v 2.292585 v 2.2925853 l 0.1062026 0.126214 c 0.690975 0.821177 3.2350745 1.560422 6.048795 1.757613 c 1.187049 0.08319 1.845525 0.09223 2.962745 0.04067 z m 0.959762 -7.0505649 c 2.258419 -0.1985201 4.157008 -0.6643286 5.227575 -1.282557 c 0.39992 -0.2309456 0.718778 -0.5220855 0.718778 -0.6562959 c 0 -0.1940548 -0.452336 -0.5523808 -1.056648 -0.8370418 C 15.530857 2.7698211 8.3519566 2.757467 4.9921536 4.3097007 C 4.4133157 4.5771245 3.8833104 4.9889387 3.8833104 5.1712717 c 0 0.1116809 0.3191227 0.4109093 0.6531849 0.612464 c 1.1849491 0.7149336 3.5752166 1.2525199 6.1486087 1.3828615 c 0.541162 0.02741 2.752658 -0.011175 3.275711 -0.057153 z" fill="#e01b24" stroke="#241f31" stroke-width="0.0834576" paint-order="fill markers stroke"/>
    </g>
</svg>
