<svg xmlns="http://www.w3.org/2000/svg" fill="none" viewBox="0 0 10 10" height="48" width="48"><path stroke="#000000" stroke-linecap="round" stroke-linejoin="round" d="M5 3.5C7.48528 3.5 9.5 2.82843 9.5 2C9.5 1.17157 7.48528 0.5 5 0.5C2.51472 0.5 0.5 1.17157 0.5 2C0.5 2.82843 2.51472 3.5 5 3.5Z"></path><path stroke="#000000" stroke-linecap="round" stroke-linejoin="round" d="M0.5 2C0.5 2.828 2.515 3.5 5 3.5C7.485 3.5 9.5 2.828 9.5 2V8C9.5 8.828 7.485 9.5 5 9.5C2.515 9.5 0.5 8.828 0.5 8V2Z"></path><path stroke="#000000" stroke-linecap="round" stroke-linejoin="round" d="M9.5 5C9.5 5.828 7.485 6.5 5 6.5C2.515 6.5 0.5 5.828 0.5 5"></path></svg>