<?xml version="1.0" encoding="UTF-8" standalone="no"?>
<svg
   width="16px"
   height="16px"
   viewBox="0 0 16 16"
   version="1.1"
   id="svg13"
   sodipodi:docname="hash-symbolic.svg"
   xml:space="preserve"
   inkscape:version="1.2.2 (b0a8486541, 2022-12-01)"
   xmlns:inkscape="http://www.inkscape.org/namespaces/inkscape"
   xmlns:sodipodi="http://sodipodi.sourceforge.net/DTD/sodipodi-0.dtd"
   xmlns="http://www.w3.org/2000/svg"
   xmlns:svg="http://www.w3.org/2000/svg"><defs
     id="defs17" /><sodipodi:namedview
     id="namedview15"
     pagecolor="#ffffff"
     bordercolor="#000000"
     borderopacity="0.25"
     inkscape:showpageshadow="2"
     inkscape:pageopacity="0.0"
     inkscape:pagecheckerboard="0"
     inkscape:deskcolor="#d1d1d1"
     showgrid="false"
     inkscape:zoom="181.01934"
     inkscape:cx="11.763936"
     inkscape:cy="7.8002715"
     inkscape:window-width="1920"
     inkscape:window-height="1016"
     inkscape:window-x="0"
     inkscape:window-y="0"
     inkscape:window-maximized="1"
     inkscape:current-layer="g1301" /><g
     id="g1301"><path
       d="m 4.344714,1.9027247 v 3 h 3 v -3 z m 1,1 h 1 v 1 h -1 z m 0,0"
       id="path302" /><path
       d="m 5.344714,5.9027247 v 3 h -3 v -3 z m -1,1 h -1 v 1 h 1 z m 0,0"
       id="path304" /><path
       d="m 4.344714,9.9027241 v 2.9999999 h 3 V 9.9027241 Z m 1,0.9999999 h 1 v 1 h -1 z m 0,0"
       id="path306" /><path
       d="m 1.844714,10.402724 v 0.5 h 0.5 v 2 h 1 V 9.9027241 h -1 z m 0,0"
       id="path308" /><path
       d="m 5.844714,6.4027247 v 0.5 h 0.5 v 2 h 1 v -3 h -1 z m 0,0"
       id="path310" /><path
       d="m 1.844714,2.4027247 v 0.5 h 0.5 v 2 h 1 v -3 h -1 z m 0,0"
       id="path312" /><path
       d="m 10.344713,1.875 v 3 h 3 v -3 z m 1,1 h 1 v 1 h -1 z m 0,0"
       id="path302-3" /><path
       id="path304-6"
       d="M 8.34375 5.875 L 8.34375 8.6269531 C 8.6167032 8.2686021 8.9549859 7.9611318 9.34375 7.7207031 L 9.34375 6.875 L 10.34375 6.875 L 10.34375 7.2871094 C 10.662788 7.2007967 10.996907 7.1523438 11.34375 7.1523438 L 11.34375 5.875 L 8.34375 5.875 z M 11.34375 7.3339844 C 11.330898 7.5715095 11.263488 7.9776439 10.972656 8.1523438 L 11.34375 8.0507812 L 11.34375 7.3339844 z " /><path
       id="path310-3"
       d="M 12.34375 5.875 L 11.84375 6.375 L 11.84375 6.875 L 12.34375 6.875 L 12.34375 7.2871094 C 12.701675 7.3837133 13.037624 7.5297188 13.34375 7.71875 L 13.34375 5.875 L 12.34375 5.875 z M 13.152344 8.0605469 C 12.91386 8.0575678 12.640888 8.3397063 12.34375 8.2304688 L 12.34375 8.2773438 L 13.34375 8.875 L 13.34375 8.1464844 C 13.282715 8.0862758 13.219119 8.061381 13.152344 8.0605469 z " /><path
       d="m 7.844714,2.375 v 0.5 h 0.5 v 2 h 0.999999 v -3 H 8.344714 Z m 0,0"
       id="path312-5" /><g
       id="g1305"
       transform="translate(-0.40528651,-0.61113789)"><path
         d="M 11.164062,5.863281 C 11.804688,5.90625 12.097656,6.6875 11.640625,7.140625 L 8,10.78125 c -0.292969,0.292969 -0.769531,0.292969 -1.0625,0 L 4.761719,8.671875 C 4.054688,7.964844 5.117188,6.902344 5.824219,7.609375 L 7.46875,9.1875 10.578125,6.078125 c 0.15625,-0.152344 0.367187,-0.230469 0.585937,-0.214844 z m 0,0"
         id="path1047"
         transform="matrix(0.43722506,0,0,0.421875,8.2539068,7.9861379)"
         style="display:inline" /><path
         id="path1049"
         sodipodi:type="inkscape:offset"
         inkscape:radius="0.26389119"
         inkscape:original="M 7.9960938 0 C 3.5937497 0 5.9211895e-16 3.59375 0 8 C 0 12.40625 3.5937497 16 7.9960938 16 C 12.402344 16 15.992188 12.40625 15.992188 8 C 15.992188 3.59375 12.402344 0 7.9960938 0 z M 7.9960938 2 C 11.320312 2 13.992188 4.675781 13.992188 8 C 13.992188 11.324219 11.320312 14 7.9960938 14 C 4.6757807 14 2 11.324219 2 8 C 2 4.675781 4.6757807 2 7.9960938 2 z "
         d="m 7.9960938,-0.26367188 c -4.5459584,0 -8.25976568,3.71393498 -8.25976568,8.26367188 0,4.549737 3.71380728,8.263672 8.25976568,8.263672 4.5497372,0 8.2597652,-3.714091 8.2597652,-8.263672 0,-4.549581 -3.710028,-8.26367188 -8.2597652,-8.26367188 z m 0,2.52734378 c 3.1826082,0 5.7324222,2.5535126 5.7324222,5.7363281 0,3.182815 -2.549814,5.736328 -5.7324222,5.736328 -3.1785364,0 -5.7324219,-2.553719 -5.7324219,-5.736328 0,-3.1826088 2.5538855,-5.7363281 5.7324219,-5.7363281 z"
         transform="matrix(0.43722506,0,0,0.421875,8.2539068,7.9861379)"
         style="display:inline" /></g></g></svg>
