<?xml version="1.0" encoding="UTF-8" standalone="no"?>
<svg
   width="16px"
   height="16px"
   viewBox="0 0 16 16"
   version="1.1"
   id="svg13"
   sodipodi:docname="hash-symbolic.svg"
   xml:space="preserve"
   inkscape:version="1.2.2 (b0a8486541, 2022-12-01)"
   xmlns:inkscape="http://www.inkscape.org/namespaces/inkscape"
   xmlns:sodipodi="http://sodipodi.sourceforge.net/DTD/sodipodi-0.dtd"
   xmlns="http://www.w3.org/2000/svg"
   xmlns:svg="http://www.w3.org/2000/svg"><defs
     id="defs17" /><sodipodi:namedview
     id="namedview15"
     pagecolor="#ffffff"
     bordercolor="#000000"
     borderopacity="0.25"
     inkscape:showpageshadow="2"
     inkscape:pageopacity="0.0"
     inkscape:pagecheckerboard="0"
     inkscape:deskcolor="#d1d1d1"
     showgrid="false"
     inkscape:zoom="32.000001"
     inkscape:cx="6.9218748"
     inkscape:cy="6.8437498"
     inkscape:window-width="1920"
     inkscape:window-height="1016"
     inkscape:window-x="0"
     inkscape:window-y="0"
     inkscape:window-maximized="1"
     inkscape:current-layer="g1301" /><g
     id="g1301"
     transform="matrix(1.2813782,0,0,1.2478162,-2.2399902,-2.3415563)"><path
       d="m 3.1857001,2.5097826 v 3 h 3 v -3 z m 1,1 h 1 v 1 h -1 z m 0,0"
       id="path302" /><path
       d="m 3.1857001,10.509782 v 3 h 3 v -3 z m 1,1 h 1 v 1 h -1 z m 0,0"
       id="path306" /><path
       d="m 4.6857001,7.0097826 v 0.5 h 0.5 v 2 h 1 v -3 h -1 z m 0,0"
       id="path310" /><path
       d="m 9.1856991,2.4820579 v 3 h 2.9999999 v -3 z m 0.9999999,1 h 1 v 1 h -1 z m 0,0"
       id="path302-3" /><path
       id="path304-6"
       d="M 7.1847361,6.4820579 V 9.234011 c 0.2729532,-0.358351 0.6112359,-0.6658213 1,-0.90625 V 7.4820579 h 1 V 7.8941673 C 9.5037741,7.8078546 9.8378927,7.7594017 10.184736,7.7594017 V 6.4820579 Z m 2.9999999,1.8173828 c -0.01285,0.2375251 -0.08026,0.2852611 -0.3710943,0.459961 L 10.184736,8.6578391 Z"
       sodipodi:nodetypes="ccccccccccccc" /><path
       id="path310-3"
       d="m 11.184736,6.4820579 -0.5,0.5 v 0.5 h 0.5 v 0.4121094 c 0.357925,0.096604 0.693874,0.2426094 1,0.4316406 v -1.84375 z M 11.924014,9.075387 C 11.68553,9.072407 11.481874,8.9467642 11.184736,8.8375267 v 0.046875 l 1,0.5976562 0.0022,-0.4403463 c -0.06104,-0.060209 -0.196163,0.03451 -0.262938,0.033675 z"
       sodipodi:nodetypes="ccccccccsccccs" /><path
       d="m 6.6857001,2.9820579 v 0.5 h 0.5 v 2 h 0.999999 v -3 h -0.999999 z m 0,0"
       id="path312-5" /><g
       id="g1305"
       transform="matrix(0.83097479,0,0,0.83097479,0.42078244,1.7555962)"><path
         d="M 11.164062,5.863281 C 11.804688,5.90625 12.097656,6.6875 11.640625,7.140625 L 8,10.78125 c -0.292969,0.292969 -0.769531,0.292969 -1.0625,0 L 4.761719,8.671875 C 4.054688,7.964844 5.117188,6.902344 5.824219,7.609375 L 7.46875,9.1875 10.578125,6.078125 c 0.15625,-0.152344 0.367187,-0.230469 0.585937,-0.214844 z m 0,0"
         id="path1047"
         transform="matrix(0.43722506,0,0,0.421875,8.2539068,7.9861379)"
         style="display:inline" /><path
         id="path1049"
         sodipodi:type="inkscape:offset"
         inkscape:radius="0.26389119"
         inkscape:original="M 7.9960938 0 C 3.5937497 0 5.9211895e-16 3.59375 0 8 C 0 12.40625 3.5937497 16 7.9960938 16 C 12.402344 16 15.992188 12.40625 15.992188 8 C 15.992188 3.59375 12.402344 0 7.9960938 0 z M 7.9960938 2 C 11.320312 2 13.992188 4.675781 13.992188 8 C 13.992188 11.324219 11.320312 14 7.9960938 14 C 4.6757807 14 2 11.324219 2 8 C 2 4.675781 4.6757807 2 7.9960938 2 z "
         d="m 7.9960938,-0.26367188 c -4.5459584,0 -8.25976568,3.71393498 -8.25976568,8.26367188 0,4.549737 3.71380728,8.263672 8.25976568,8.263672 4.5497372,0 8.2597652,-3.714091 8.2597652,-8.263672 0,-4.549581 -3.710028,-8.26367188 -8.2597652,-8.26367188 z m 0,2.52734378 c 3.1826082,0 5.7324222,2.5535126 5.7324222,5.7363281 0,3.182815 -2.549814,5.736328 -5.7324222,5.736328 -3.1785364,0 -5.7324219,-2.553719 -5.7324219,-5.736328 0,-3.1826088 2.5538855,-5.7363281 5.7324219,-5.7363281 z"
         transform="matrix(0.43722506,0,0,0.421875,8.2539068,7.9861379)"
         style="display:inline" /></g><path
       style="fill:none;stroke:#ffffff;stroke-width:0;stroke-opacity:0;paint-order:fill markers stroke"
       d="m 2.7970778,6.5097823 c 0,3 0,3 0,3"
       id="path381" /><path
       style="fill:none;stroke:#ffffff;stroke-width:0;stroke-opacity:0;paint-order:fill markers stroke"
       d="m 2.7970778,9.5097823 c 0,-3 0,-3 0,-3"
       id="path383" /><path
       style="fill:none;stroke:#ffffff;stroke-width:0;stroke-opacity:0;paint-order:fill markers stroke"
       d="m 2.7970778,9.5097823 v -3"
       id="path385" /></g></svg>
