<svg xmlns="http://www.w3.org/2000/svg" xmlns:svg="http://www.w3.org/2000/svg" id="svg13" width="16" height="16" version="1.1" viewBox="0 0 16 16" xml:space="preserve"><g style="fill:none" id="g309" transform="matrix(0.89027797,0,0,0.89027797,-2.6833357,-2.6783414)"><path style="fill:#000;stroke:#241f31;stroke-width:.0381339;paint-order:fill markers stroke" id="path1189" d="m 14.834936,20.882113 c -0.291134,-0.04726 -0.532056,-0.167888 -0.730577,-0.365821 -0.236273,-0.235576 -0.32159,-0.466563 -0.296995,-0.804089 0.02227,-0.305611 0.114216,-0.483596 0.360428,-0.697663 0.295029,-0.256514 0.477933,-0.306641 1.220887,-0.334602 0.58566,-0.02204 0.663979,-0.03291 0.848236,-0.117774 0.257868,-0.118758 0.508509,-0.361645 0.603653,-0.584973 0.07161,-0.168088 0.07179,-0.217417 0.0054,-1.478192 -0.110516,-2.095691 -0.08091,-2.765456 0.155212,-3.5116 0.117543,-0.371478 0.401619,-0.91079 0.606392,-1.151271 L 17.75001,11.668813 17.566814,11.427924 C 17.229704,10.984641 16.9928,10.362147 16.898041,9.6706203 16.86941,9.4617074 16.858211,8.7461682 16.866657,7.6667873 l 0.0132,-1.6788867 -0.0923,-0.1549446 C 16.661886,5.6221859 16.430327,5.4221087 16.191917,5.3184053 16.017554,5.2425612 15.915908,5.2294423 15.349212,5.2096439 14.804494,5.1906135 14.676547,5.1750206 14.522301,5.1088685 14.230267,4.9836232 14.053414,4.8293288 13.916832,4.5806247 13.800877,4.3694844 13.791092,4.324774 13.804503,4.0674125 c 0.02267,-0.4353294 0.237416,-0.7431372 0.658624,-0.9440641 0.198289,-0.094589 0.213456,-0.096061 0.986781,-0.09584 0.636084,1.834e-4 0.838997,0.012957 1.067334,0.067186 1.311595,0.3115045 2.30159,1.1605212 2.708116,2.3224747 l 0.111254,0.3179942 0.0011,1.9316224 c 0.0012,2.0502756 0.0069,2.1199155 0.202426,2.4588583 0.100751,0.174664 0.364123,0.37929 0.654034,0.508168 0.343039,0.152493 0.583468,0.37106 0.690641,0.627834 0.233258,0.558867 -0.04129,1.133706 -0.679384,1.422452 -0.923411,0.417856 -1.061583,0.958474 -0.909271,3.557648 0.100101,1.708271 0.07648,2.013527 -0.200675,2.593013 -0.202853,0.424135 -0.370568,0.654095 -0.719371,0.986346 -0.544255,0.518429 -1.218658,0.857307 -1.999839,1.004887 -0.330469,0.06243 -1.287694,0.09728 -1.541331,0.05612 z"/><path style="fill:#000;stroke:#241f31;stroke-width:.0381339;paint-order:fill markers stroke" id="path1191" d="M 9.1648976,20.943322 C 9.4560313,20.896065 9.6969534,20.775434 9.8954743,20.577501 10.131748,20.341926 10.217065,20.110939 10.19247,19.773412 10.1702,19.467801 10.078253,19.289816 9.8320419,19.075749 9.5370133,18.819235 9.3541087,18.769108 8.6111548,18.741148 8.0254949,18.719101 7.9471748,18.70824 7.7629185,18.623373 7.5050507,18.504615 7.2544098,18.261728 7.1592653,18.0384 7.0876594,17.870313 7.0874718,17.820982 7.153889,16.560208 7.2644049,14.464517 7.2347973,13.794752 6.9986764,13.048609 6.8811335,12.67713 6.5970564,12.137817 6.3922837,11.897336 L 6.2498469,11.730023 6.433043,11.489134 C 6.7701599,11.04585 7.0070635,10.423356 7.101823,9.7318294 7.1304553,9.5229168 7.1416583,8.8073775 7.1332061,7.7279967 L 7.1200027,6.0491099 7.2123014,5.8941653 C 7.3379477,5.6833952 7.5695061,5.483318 7.8079164,5.3796146 7.9822789,5.303771 8.0839263,5.2906518 8.6506225,5.2708536 9.1953393,5.2518232 9.3232869,5.2362303 9.4775331,5.1700784 9.769567,5.0448331 9.946419,4.8905387 10.083001,4.6418346 10.198957,4.4306943 10.208742,4.3859839 10.195331,4.1286224 10.172663,3.693293 9.9579149,3.3854852 9.5367058,3.1845583 9.3384172,3.08997 9.3232507,3.0884972 8.5499253,3.0887191 7.9138424,3.0889025 7.7109288,3.1016758 7.4825912,3.1559056 6.1709966,3.4674101 5.1810012,4.3164268 4.7744752,5.4783803 l -0.1112537,0.317994 -0.0011,1.9316224 c -0.00117,2.0502754 -0.00687,2.1199153 -0.2024259,2.4588593 -0.100751,0.174663 -0.3641227,0.379289 -0.6540337,0.508168 -0.3430385,0.152493 -0.583468,0.37106 -0.6906406,0.627833 -0.233259,0.558868 0.041286,1.133707 0.679384,1.422452 0.9234106,0.417857 1.0615825,0.958475 0.9092707,3.557649 -0.1001008,1.70827 -0.076482,2.013527 0.2006755,2.593013 0.2028524,0.424134 0.3705682,0.654095 0.7193706,0.986344 0.5442554,0.518431 1.2186581,0.857308 1.9998396,1.004889 0.330469,0.06243 1.2876933,0.09728 1.54133,0.05612 z"/></g></svg>