<?xml version="1.0" encoding="UTF-8" standalone="no"?>
<svg
   id="svg13"
   width="16"
   height="16"
   version="1.1"
   viewBox="0 0 16 16"
   xml:space="preserve"
   sodipodi:docname="json-check-symbolic.svg"
   inkscape:version="1.2.2 (b0a8486541, 2022-12-01)"
   xmlns:inkscape="http://www.inkscape.org/namespaces/inkscape"
   xmlns:sodipodi="http://sodipodi.sourceforge.net/DTD/sodipodi-0.dtd"
   xmlns="http://www.w3.org/2000/svg"
   xmlns:svg="http://www.w3.org/2000/svg"><defs
     id="defs9"><inkscape:path-effect
       effect="offset"
       id="path-effect942"
       is_visible="true"
       lpeversion="1.2"
       linejoin_type="round"
       unit="mm"
       offset="0.024918"
       miter_limit="3"
       attempt_force_join="false"
       update_on_knot_move="true" /></defs><sodipodi:namedview
     id="namedview7"
     pagecolor="#ffffff"
     bordercolor="#000000"
     borderopacity="0.25"
     inkscape:showpageshadow="2"
     inkscape:pageopacity="0.0"
     inkscape:pagecheckerboard="0"
     inkscape:deskcolor="#d1d1d1"
     showgrid="false"
     inkscape:zoom="34.869203"
     inkscape:cx="4.1153794"
     inkscape:cy="9.6933675"
     inkscape:window-width="1920"
     inkscape:window-height="1016"
     inkscape:window-x="0"
     inkscape:window-y="0"
     inkscape:window-maximized="1"
     inkscape:current-layer="g309" /><g
     id="g304"
     fill="#222"
     transform="translate(-4.207858,-1.7946768)"><path
       id="path315"
       fill="#2e3436"
       d="m 15.181641,6.6816406 c -0.186819,0.010978 -0.356122,0.097614 -0.478516,0.2363282 L 10.964844,11.189453 9.6796875,9.9042969 c -0.2730053,-0.2730067 -0.7133174,-0.2730087 -0.9863281,0 -0.1309202,0.1309301 -0.2050781,0.3107881 -0.2050782,0.4960941 0,0.186091 0.074371,0.361479 0.2050782,0.492187 l 1.8124996,1.8125 c 0.136369,0.136369 0.32519,0.210562 0.519532,0.205078 0.192968,-0.0082 0.371767,-0.09096 0.5,-0.238281 L 15.753906,7.8378906 C 15.877045,7.6983417 15.93673,7.5133118 15.925781,7.3300781 15.912109,7.1451779 15.828364,6.9760915 15.689453,6.8535156 15.550235,6.7306663 15.366185,6.668061 15.181641,6.6816406 Z"
       style="stroke-width:150.286;stroke-dasharray:none"
       inkscape:path-effect="#path-effect942"
       inkscape:original-d="M 15.683911,7.7752097 C 15.790116,7.6548513 15.842032,7.496728 15.832592,7.3386075 15.820725,7.1781266 15.747623,7.0294446 15.627271,6.923245 15.506913,6.8170386 15.348789,6.7627628 15.188308,6.7745629 c -0.160481,0.00943 -0.309162,0.084963 -0.415362,0.2053224 L 10.968601,11.327035 9.613951,9.9700232 c -0.2359987,-0.2359998 -0.6183182,-0.2359998 -0.8543198,0 -0.1132805,0.1132888 -0.1770014,0.2690438 -0.1770014,0.4295268 0,0.160481 0.063721,0.313881 0.1770014,0.427162 l 1.8124858,1.812492 c 0.117998,0.117998 0.28084,0.181721 0.448402,0.177001 0.167562,-0.0071 0.323321,-0.08025 0.434243,-0.207681 z m 0,0" /><g
       style="fill:none"
       id="g309"
       transform="matrix(0.89027797,0,0,0.89027797,1.5245965,-0.88366248)"><path
         style="fill:#000000;stroke:#241f31;stroke-width:0.027383;paint-order:fill markers stroke"
         id="path1191"
         d="m 7.7707947,18.134282 c 0.2180494,-0.03253 0.3984914,-0.115584 0.5471764,-0.251852 0.176961,-0.162184 0.24086,-0.321209 0.22244,-0.553582 -0.01668,-0.2104 -0.08554,-0.332935 -0.269948,-0.480312 -0.220967,-0.176599 -0.357956,-0.211109 -0.9144026,-0.230359 -0.4386391,-0.01518 -0.4972982,-0.02266 -0.6352998,-0.08108 -0.1931341,-0.08176 -0.3808555,-0.248978 -0.4521154,-0.402729 -0.05363,-0.115721 -0.053771,-0.149684 -0.00403,-1.017673 0.082772,-1.442796 0.060597,-1.9039 -0.1162489,-2.417588 -0.088032,-0.25575 -0.3007961,-0.627045 -0.4541639,-0.792606 L 5.5875222,11.791314 5.7247298,11.625472 C 5.9772188,11.32029 6.1546514,10.891728 6.225623,10.415642 6.247068,10.271814 6.255458,9.7791945 6.249128,9.0360863 L 6.239239,7.8802434 6.3083675,7.7735706 C 6.4024723,7.6284643 6.5759015,7.4907196 6.7544626,7.4193241 6.8850541,7.367109 6.9611845,7.358077 7.3856204,7.3444467 7.7935945,7.3313451 7.8894228,7.3206101 8.0049481,7.2750673 8.2236711,7.1888412 8.3561271,7.082616 8.4584221,6.9113937 8.5452691,6.7660325 8.5525981,6.7352513 8.5425541,6.5580687 8.5255761,6.2583627 8.3647371,6.04645 8.0492661,5.9081203 7.9007549,5.8430003 7.8893957,5.8419863 7.3102017,5.8421391 6.8337975,5.8422653 6.6818222,5.8510592 6.5108052,5.8883942 5.5284661,6.1028519 4.7869937,6.6873641 4.4825198,7.4873202 l -0.083325,0.2189254 -8.252e-4,1.3298407 c -8.767e-4,1.4115297 -0.00514,1.4594737 -0.15161,1.6928217 -0.075459,0.120249 -0.2727153,0.261124 -0.4898487,0.349852 -0.2569239,0.104985 -0.5999857,0.265587 -0.6809879,0.442082 -0.1853825,0.40393 0.194643,0.770665 0.6725572,0.969453 0.6916026,0.287678 0.7950887,0.65987 0.6810123,2.449291 -0.074972,1.176073 -0.057283,1.38623 0.150299,1.785181 0.1519295,0.291998 0.2775429,0.450317 0.5387838,0.679057 0.4076286,0.356917 0.9127329,0.590219 1.4978109,0.691823 0.2475099,0.04298 0.9644379,0.06697 1.154403,0.03863 z"
         sodipodi:nodetypes="ssscsscccccsccccsssccsscccsccsccsssss" /><path
         style="fill:#000000;stroke:#241f31;stroke-width:0.027383;paint-order:fill markers stroke"
         id="path953"
         d="m 16.229034,18.134282 c -0.21805,-0.03253 -0.398492,-0.115584 -0.547177,-0.251852 -0.176961,-0.162184 -0.24086,-0.321209 -0.22244,-0.553582 0.01668,-0.2104 0.08554,-0.332935 0.269948,-0.480312 0.220967,-0.176599 0.357956,-0.211109 0.914403,-0.230359 0.438639,-0.01518 0.497298,-0.02266 0.6353,-0.08108 0.193134,-0.08176 0.380855,-0.248978 0.452115,-0.402729 0.05363,-0.115721 0.05377,-0.149684 0.004,-1.017673 -0.08277,-1.442796 -0.0606,-1.9039 0.116249,-2.417588 0.08803,-0.255747 0.300796,-0.627042 0.454164,-0.792603 l 0.10668,-0.115187 -0.137208,-0.165842 C 18.022609,11.32029 17.845177,10.891728 17.774205,10.415642 17.75276,10.271814 17.74437,9.7791943 17.7507,9.0360861 L 17.7606,7.8802433 17.691472,7.7735704 C 17.597356,7.6284641 17.423927,7.4907194 17.245366,7.4193239 17.114774,7.3671089 17.038644,7.3580768 16.614208,7.3444465 16.206234,7.3313449 16.110406,7.3206099 15.99488,7.2750671 15.776157,7.188841 15.643701,7.0826158 15.541406,6.9113935 c -0.08685,-0.1453612 -0.09418,-0.1761424 -0.08413,-0.353325 0.01698,-0.299706 0.177817,-0.5116187 0.493288,-0.6499484 0.148512,-0.06512 0.159871,-0.066134 0.739065,-0.065981 0.476404,1.262e-4 0.628379,0.00892 0.799396,0.046255 0.982339,0.2144577 1.723812,0.7989699 2.028285,1.598926 l 0.08333,0.2189254 8.26e-4,1.3298407 c 8.76e-4,1.4115298 0.0051,1.4594738 0.15161,1.6928218 0.07546,0.120249 0.272715,0.261124 0.489848,0.349852 0.256924,0.104985 0.599986,0.265587 0.680988,0.442082 0.185383,0.40393 -0.194643,0.770665 -0.672557,0.969453 -0.691603,0.287678 -0.795089,0.65987 -0.681012,2.449291 0.07497,1.176073 0.05728,1.38623 -0.150299,1.785181 -0.15193,0.291998 -0.277543,0.450317 -0.538784,0.679057 -0.407629,0.356917 -0.912733,0.590219 -1.497811,0.691823 -0.24751,0.04298 -0.964438,0.06697 -1.154403,0.03863 z"
         sodipodi:nodetypes="ssscsscccccsccccsssccsscccsccsccsssss" /></g></g></svg>
