<?xml version="1.0" encoding="UTF-8" standalone="no"?>
<svg
   id="svg13"
   width="16"
   height="16"
   version="1.1"
   viewBox="0 0 16 16"
   xml:space="preserve"
   sodipodi:docname="json-check-symbolic.svg"
   inkscape:version="1.2.2 (b0a8486541, 2022-12-01)"
   xmlns:inkscape="http://www.inkscape.org/namespaces/inkscape"
   xmlns:sodipodi="http://sodipodi.sourceforge.net/DTD/sodipodi-0.dtd"
   xmlns="http://www.w3.org/2000/svg"
   xmlns:svg="http://www.w3.org/2000/svg"><defs
     id="defs9"><inkscape:path-effect
       effect="offset"
       id="path-effect942"
       is_visible="true"
       lpeversion="1.2"
       linejoin_type="round"
       unit="mm"
       offset="0.024918"
       miter_limit="3"
       attempt_force_join="false"
       update_on_knot_move="true" /></defs><sodipodi:namedview
     id="namedview7"
     pagecolor="#ffffff"
     bordercolor="#000000"
     borderopacity="0.25"
     inkscape:showpageshadow="2"
     inkscape:pageopacity="0.0"
     inkscape:pagecheckerboard="0"
     inkscape:deskcolor="#d1d1d1"
     showgrid="false"
     inkscape:zoom="34.869203"
     inkscape:cx="4.1153794"
     inkscape:cy="11.987656"
     inkscape:window-width="1920"
     inkscape:window-height="1016"
     inkscape:window-x="0"
     inkscape:window-y="0"
     inkscape:window-maximized="1"
     inkscape:current-layer="g304" /><g
     id="g304"
     fill="#222"
     transform="translate(-4.207858,-1.7946768)"><path
       id="path315"
       fill="#2e3436"
       d="m 15.181641,6.6816406 c -0.186819,0.010978 -0.356122,0.097614 -0.478516,0.2363282 L 10.964844,11.189453 9.6796875,9.9042969 c -0.2730053,-0.2730067 -0.7133174,-0.2730087 -0.9863281,0 -0.1309202,0.1309301 -0.2050781,0.3107881 -0.2050782,0.4960941 0,0.186091 0.074371,0.361479 0.2050782,0.492187 l 1.8124996,1.8125 c 0.136369,0.136369 0.32519,0.210562 0.519532,0.205078 0.192968,-0.0082 0.371767,-0.09096 0.5,-0.238281 L 15.753906,7.8378906 C 15.877045,7.6983417 15.93673,7.5133118 15.925781,7.3300781 15.912109,7.1451779 15.828364,6.9760915 15.689453,6.8535156 15.550235,6.7306663 15.366185,6.668061 15.181641,6.6816406 Z"
       style="stroke-width:150.286;stroke-dasharray:none"
       inkscape:path-effect="#path-effect942"
       inkscape:original-d="M 15.683911,7.7752097 C 15.790116,7.6548513 15.842032,7.496728 15.832592,7.3386075 15.820725,7.1781266 15.747623,7.0294446 15.627271,6.923245 15.506913,6.8170386 15.348789,6.7627628 15.188308,6.7745629 c -0.160481,0.00943 -0.309162,0.084963 -0.415362,0.2053224 L 10.968601,11.327035 9.613951,9.9700232 c -0.2359987,-0.2359998 -0.6183182,-0.2359998 -0.8543198,0 -0.1132805,0.1132888 -0.1770014,0.2690438 -0.1770014,0.4295268 0,0.160481 0.063721,0.313881 0.1770014,0.427162 l 1.8124858,1.812492 c 0.117998,0.117998 0.28084,0.181721 0.448402,0.177001 0.167562,-0.0071 0.323321,-0.08025 0.434243,-0.207681 z m 0,0" /><g
       style="fill:none"
       id="g309"
       transform="matrix(0.89027797,0,0,0.89027797,1.5245965,-0.88366248)"><path
         style="fill:#000000;stroke:#241f31;stroke-width:0.028561;paint-order:fill markers stroke"
         id="path1191"
         d="m 7.7707947,18.673909 c 0.2180494,-0.03539 0.3984914,-0.125743 0.5471764,-0.273987 0.176961,-0.176438 0.24086,-0.349439 0.22244,-0.602235 -0.01668,-0.228892 -0.08554,-0.362197 -0.269948,-0.522526 C 8.0494961,17.083041 7.9125071,17.045497 7.3560605,17.024556 6.9174214,17.008046 6.8587623,16.999906 6.7207607,16.936346 6.5276266,16.847396 6.3399052,16.665486 6.2686453,16.498222 6.2150153,16.37233 6.2148743,16.335383 6.2646153,15.391107 6.3473873,13.821506 6.3252123,13.319876 6.1483664,12.76104 6.0603342,12.482816 5.8475703,12.078889 5.6942025,11.898777 L 5.5875222,11.773466 5.7247298,11.593048 C 5.9772188,11.261044 6.1546514,10.794817 6.225623,10.276888 6.247068,10.120419 6.255458,9.5845041 6.249128,8.7760851 L 6.239239,7.5186568 6.3083675,7.4026086 C 6.4024723,7.2447491 6.5759015,7.0948982 6.7544626,7.0172279 6.8850541,6.9604237 6.9611845,6.9505978 7.3856204,6.9357696 7.7935945,6.9215165 7.8894228,6.909838 8.0049481,6.8602925 8.2236711,6.7664881 8.3561271,6.6509269 8.4584221,6.4646561 8.5452691,6.3065193 8.5525981,6.2730328 8.5425541,6.0802779 8.5255761,5.7542311 8.3647371,5.5236937 8.0492661,5.3732064 7.9007549,5.3023631 7.8893957,5.30126 7.3102017,5.3014262 6.8337975,5.3015635 6.6818222,5.3111303 6.5108052,5.3517466 5.5284661,5.5850527 4.7869937,6.2209369 4.4825198,7.0912 l -0.083325,0.2381665 -8.252e-4,1.4467186 c -8.767e-4,1.5355869 -0.00514,1.5877449 -0.15161,1.8416019 -0.075459,0.130817 -0.2727153,0.284074 -0.4898487,0.3806 -0.2569239,0.114212 -0.5999857,0.288929 -0.6809879,0.480936 -0.1853825,0.43943 0.194643,0.838397 0.6725572,1.054657 0.6916026,0.312961 0.7950887,0.717865 0.6810123,2.664556 -0.074972,1.279436 -0.057283,1.508063 0.150299,1.942078 0.1519295,0.317661 0.2775429,0.489894 0.5387838,0.738738 0.4076286,0.388286 0.9127329,0.642093 1.4978109,0.752627 0.2475099,0.04676 0.9644379,0.07286 1.154403,0.04203 z"
         sodipodi:nodetypes="ssscsscccccsccccsssccsscccsccsccsssss" /><path
         style="fill:#000000;stroke:#241f31;stroke-width:0.028561;paint-order:fill markers stroke"
         id="path953"
         d="m 16.229034,18.673909 c -0.21805,-0.03539 -0.398492,-0.125743 -0.547177,-0.273987 -0.176961,-0.176438 -0.24086,-0.349439 -0.22244,-0.602235 0.01668,-0.228892 0.08554,-0.362197 0.269948,-0.522526 0.220967,-0.19212 0.357956,-0.229664 0.914403,-0.250605 0.438639,-0.01651 0.497298,-0.02465 0.6353,-0.08821 0.193134,-0.08895 0.380855,-0.27086 0.452115,-0.438124 0.05363,-0.125892 0.05377,-0.162839 0.004,-1.107115 -0.08277,-1.569601 -0.0606,-2.071231 0.116249,-2.630067 0.08803,-0.278224 0.300796,-0.682151 0.454164,-0.862263 l 0.10668,-0.125311 -0.137208,-0.180418 C 18.022609,11.261044 17.845177,10.794817 17.774205,10.276888 17.75276,10.120419 17.74437,9.5845039 17.7507,8.7760849 L 17.7606,7.5186566 17.691472,7.4026084 C 17.597356,7.2447489 17.423927,7.094898 17.245366,7.0172277 17.114774,6.9604235 17.038644,6.9505976 16.614208,6.9357694 16.206234,6.9215163 16.110406,6.9098378 15.99488,6.8602923 15.776157,6.7664879 15.643701,6.6509267 15.541406,6.4646559 15.454559,6.3065191 15.44723,6.2730326 15.457274,6.0802777 c 0.01698,-0.3260468 0.177817,-0.5565842 0.493288,-0.7070715 0.148512,-0.070843 0.159871,-0.071946 0.739065,-0.07178 0.476404,1.373e-4 0.628379,0.0097 0.799396,0.05032 0.982339,0.2333061 1.723812,0.8691903 2.028285,1.7394534 l 0.08333,0.2381665 8.26e-4,1.4467186 c 8.76e-4,1.5355873 0.0051,1.5877453 0.15161,1.8416023 0.07546,0.130817 0.272715,0.284074 0.489848,0.3806 0.256924,0.114212 0.599986,0.288929 0.680988,0.480936 0.185383,0.43943 -0.194643,0.838397 -0.672557,1.054657 -0.691603,0.312961 -0.795089,0.717865 -0.681012,2.664556 0.07497,1.279436 0.05728,1.508063 -0.150299,1.942078 -0.15193,0.317661 -0.277543,0.489894 -0.538784,0.738738 -0.407629,0.388286 -0.912733,0.642093 -1.497811,0.752627 -0.24751,0.04676 -0.964438,0.07286 -1.154403,0.04203 z"
         sodipodi:nodetypes="ssscsscccccsccccsssccsscccsccsccsssss" /></g></g></svg>
