<?xml version="1.0" encoding="UTF-8" standalone="no"?>
<svg
   height="16px"
   viewBox="0 0 16 16"
   width="16px"
   version="1.1"
   id="svg4"
   sodipodi:docname="symbols-symbolic.svg"
   xml:space="preserve"
   inkscape:version="1.2.2 (b0a8486541, 2022-12-01)"
   xmlns:inkscape="http://www.inkscape.org/namespaces/inkscape"
   xmlns:sodipodi="http://sodipodi.sourceforge.net/DTD/sodipodi-0.dtd"
   xmlns="http://www.w3.org/2000/svg"
   xmlns:svg="http://www.w3.org/2000/svg"><defs
     id="defs8" /><sodipodi:namedview
     id="namedview6"
     pagecolor="#ffffff"
     bordercolor="#000000"
     borderopacity="0.25"
     inkscape:showpageshadow="2"
     inkscape:pageopacity="0.0"
     inkscape:pagecheckerboard="0"
     inkscape:deskcolor="#d1d1d1"
     showgrid="false"
     inkscape:zoom="49.3125"
     inkscape:cx="6.3168568"
     inkscape:cy="8.0912548"
     inkscape:window-width="1920"
     inkscape:window-height="1016"
     inkscape:window-x="0"
     inkscape:window-y="0"
     inkscape:window-maximized="1"
     inkscape:current-layer="svg4" /><path
     d="M 5.2349925,4.3793801 5.7080399,6.1750784 4.3689151,4.9818686 3.4769497,6.563401 5.2585268,7.097639 3.4651824,7.6177557 4.3430269,9.2251766 5.7033332,8.0201996 5.2349925,9.8017808 H 7.2542698 L 6.821231,8.0719756 8.1344685,9.2604786 9.0382006,7.6671785 7.3036928,7.1258806 9.0993916,6.6763675 8.2097791,5.083068 6.7906365,6.2315618 7.2542698,4.3793801 Z"
     id="path2"
     style="stroke-width:0.602488" /><g
     fill="#222222"
     id="g397"
     transform="matrix(1.0539921,0,0,1.0539921,-0.33175821,-1.2590426)"><path
       d="m 10,4 v 1 c 0,0.257812 0.128906,0.527344 0.3125,0.71875 L 12.5625,8 l -2.25,2.28125 C 10.128906,10.472656 10,10.742188 10,11 v 1 h 1 c 0.308594,0 0.550781,-0.08984 0.75,-0.28125 L 15.40625,8 11.75,4.28125 C 11.550781,4.089844 11.308594,4 11,4 Z m 0,0"
       id="path393" /></g><path
     d="M 6.8366726,13.100103"
     id="path425"
     style="stroke-width:1.1708" /><g
     id="g430"
     transform="matrix(1.0557944,0,0,1.0557944,-1.2155963,-1.4886803)"><path
       d="M 2.5,11"
       id="path391" /><path
       d="m 2.2009268,10.562183 c -0.5304575,0 -0.9608286,0.430371 -0.9608286,0.960828 0,0.530458 0.4303711,0.960829 0.9608286,0.960829 0.5304574,0 0.9608286,-0.430371 0.9608286,-0.960829 0,-0.530457 -0.4303712,-0.960828 -0.9608286,-0.960828 z"
       id="path423"
       style="stroke-width:0.640552" /><path
       d="M 1.5603744,4.1566592 V 9.92163 H 2.8414792 V 4.1566592 Z"
       id="path419"
       style="stroke-width:0.640552" /></g></svg>
