<?xml version="1.0" encoding="UTF-8" standalone="no"?>
<svg
   width="16px"
   height="16px"
   viewBox="0 0 16 16"
   version="1.1"
   id="svg13"
   sodipodi:docname="text-inspector-symbolic.svg"
   xml:space="preserve"
   inkscape:version="1.2.2 (b0a8486541, 2022-12-01)"
   xmlns:inkscape="http://www.inkscape.org/namespaces/inkscape"
   xmlns:sodipodi="http://sodipodi.sourceforge.net/DTD/sodipodi-0.dtd"
   xmlns="http://www.w3.org/2000/svg"
   xmlns:svg="http://www.w3.org/2000/svg"><defs
     id="defs17" /><sodipodi:namedview
     id="namedview15"
     pagecolor="#ffffff"
     bordercolor="#000000"
     borderopacity="0.25"
     inkscape:showpageshadow="2"
     inkscape:pageopacity="0.0"
     inkscape:pagecheckerboard="0"
     inkscape:deskcolor="#d1d1d1"
     showgrid="false"
     inkscape:zoom="34.869203"
     inkscape:cx="1.190162"
     inkscape:cy="9.5212959"
     inkscape:window-width="1920"
     inkscape:window-height="1016"
     inkscape:window-x="0"
     inkscape:window-y="0"
     inkscape:window-maximized="1"
     inkscape:current-layer="g377" /><g
     fill="#222222"
     id="g304"
     transform="matrix(1.1404326,0,0,1.1417041,-1.1404326,-1.1417041)"><path
       d="M 6.507812,1 C 3.480469,1 1,3.472656 1,6.5 1,9.527344 3.480469,12 6.507812,12 9.535156,12 12.011719,9.527344 12.011719,6.5 12.011719,3.472656 9.535156,1 6.507812,1 Z m 0,2 c 1.945313,0 3.503907,1.554688 3.503907,3.5 0,1.945312 -1.558594,3.5 -3.503907,3.5 C 4.558594,10 3.003906,8.445312 3.003906,6.5 3.003906,4.554688 4.558594,3 6.507812,3 Z m 0,0"
       id="path300" /><path
       d="m 10,8.988281 c -0.40625,0.00391 -0.773438,0.25 -0.925781,0.625 -0.152344,0.378907 -0.0625,0.808594 0.230469,1.09375 l 4.003906,4 c 0.25,0.261719 0.625,0.367188 0.972656,0.273438 0.351562,-0.08984 0.625,-0.363281 0.714844,-0.714844 0.09375,-0.347656 -0.01172,-0.722656 -0.273438,-0.972656 l -4.003906,-4 C 10.53125,9.097656 10.269531,8.988281 10,8.988281 Z m 0,0"
       id="path302" /></g><g
     fill="#222222"
     id="g377"
     transform="translate(-16.616044,-1.0310997)"><path
       d="m 22.039732,4.1891128 -1.545673,6.2427192 h 0.960418 l 0.375164,-1.4406267 h 2.130927 l 0.375165,1.4406267 h 0.960419 L 23.750477,4.1891128 Z m 0.750328,0.9604184 h 0.210091 l 0.720314,2.8812554 h -1.650719 z m 0,0"
       id="path371"
       style="stroke-width:0.480208" /></g></svg>
