<?xml version="1.0" encoding="UTF-8" standalone="no"?>
<svg
   height="16px"
   viewBox="0 0 16 16"
   width="16px"
   version="1.1"
   id="svg4"
   sodipodi:docname="timer-reverse-symbolic.svg"
   inkscape:version="1.2.2 (b0a8486541, 2022-12-01)"
   xmlns:inkscape="http://www.inkscape.org/namespaces/inkscape"
   xmlns:sodipodi="http://sodipodi.sourceforge.net/DTD/sodipodi-0.dtd"
   xmlns="http://www.w3.org/2000/svg"
   xmlns:svg="http://www.w3.org/2000/svg">
  <defs
     id="defs8" />
  <sodipodi:namedview
     id="namedview6"
     pagecolor="#ffffff"
     bordercolor="#000000"
     borderopacity="0.25"
     inkscape:showpageshadow="2"
     inkscape:pageopacity="0.0"
     inkscape:pagecheckerboard="0"
     inkscape:deskcolor="#d1d1d1"
     showgrid="false"
     inkscape:zoom="49.3125"
     inkscape:cx="8.0202788"
     inkscape:cy="7.9898606"
     inkscape:window-width="1920"
     inkscape:window-height="1016"
     inkscape:window-x="0"
     inkscape:window-y="0"
     inkscape:window-maximized="1"
     inkscape:current-layer="svg4" />
  <path
     d="m 8.0052381,15.997327 c 0.296875,0.0039 0.578125,-0.125 0.773438,-0.347656 0.191406,-0.226563 0.273437,-0.523438 0.226562,-0.816406 v -2.835938 h -2 v 1.914062 C 4.6263316,13.512952 2.6849256,11.716077 2.1497686,9.2981073 c -0.613281,-2.753906 0.765625,-5.5468748 3.320313,-6.7382808 2.5546875,-1.191406 5.5781264,-0.453125 7.2968764,1.785156 1.714843,2.2382818 1.644531,5.3515628 -0.167969,7.5078135 -0.351562,0.425781 -0.296875,1.054687 0.125,1.410156 0.425781,0.355469 1.054688,0.300781 1.410156,-0.121094 2.40625,-2.871093 2.496094,-7.0429697 0.214844,-10.0117195 C 12.071645,0.15748252 8.0169571,-0.83470448 4.6224256,0.74732652 1.2317996,2.3293575 -0.61585539,6.0715453 0.19273861,9.7277953 1.0052376,13.387952 4.2591436,15.997327 8.0052381,15.997327 Z m 3.0117199,-3.988281 c 0.40625,-0.0039 0.769531,-0.25 0.925781,-0.625 0.152344,-0.378907 0.0625,-0.808594 -0.230469,-1.09375 L 9.9349261,8.5129513 c 0.1835939,-0.6875 -0.011719,-1.425781 -0.515626,-1.929687 -0.78125,-0.7812498 -2.046874,-0.7812498 -2.828124,0 -0.7812505,0.78125 -0.7812505,2.046874 0,2.828124 0.503906,0.503907 1.242187,0.6992197 1.929687,0.515626 l 1.7773449,1.7773437 c 0.1875,0.195313 0.445312,0.300781 0.71875,0.304688 z m 0,0"
     fill="#222222"
     id="path2" />
</svg>
