<?xml version="1.0" encoding="UTF-8" standalone="no"?>
<svg
   width="16px"
   height="16px"
   viewBox="0 0 16 16"
   version="1.1"
   id="svg13"
   sodipodi:docname="xml-check-symbolic.svg"
   xml:space="preserve"
   inkscape:version="1.2.2 (b0a8486541, 2022-12-01)"
   xmlns:inkscape="http://www.inkscape.org/namespaces/inkscape"
   xmlns:sodipodi="http://sodipodi.sourceforge.net/DTD/sodipodi-0.dtd"
   xmlns="http://www.w3.org/2000/svg"
   xmlns:svg="http://www.w3.org/2000/svg"><defs
     id="defs17" /><sodipodi:namedview
     id="namedview15"
     pagecolor="#ffffff"
     bordercolor="#000000"
     borderopacity="0.25"
     inkscape:showpageshadow="2"
     inkscape:pageopacity="0.0"
     inkscape:pagecheckerboard="0"
     inkscape:deskcolor="#d1d1d1"
     showgrid="false"
     inkscape:zoom="49.3125"
     inkscape:cx="7.9594423"
     inkscape:cy="7.9898606"
     inkscape:window-width="1920"
     inkscape:window-height="1016"
     inkscape:window-x="0"
     inkscape:window-y="0"
     inkscape:window-maximized="1"
     inkscape:current-layer="g304" /><g
     fill="#222222"
     id="g304"
     transform="translate(-4.207858,-1.7946768)"><path
       d="m 14.512042,5.7946767 v 1 c 0,0.257812 0.128906,0.527344 0.3125,0.71875 l 2.249999,2.28125 -2.25,2.2812503 c -0.183594,0.191406 -0.3125,0.460938 -0.3125,0.71875 v 1 h 1 c 0.308594,0 0.550781,-0.08984 0.75,-0.28125 l 3.65625,-3.7187503 -3.65625,-3.71875 c -0.199219,-0.191406 -0.441406,-0.28125 -0.75,-0.28125 z m 0,0"
       id="path300" /><path
       d="m 9.9036725,5.7946767 v 1 c 0,0.257812 -0.1289046,0.527344 -0.312498,0.71875 l -2.25,2.28125 2.25,2.2812503 c 0.1835934,0.191406 0.312498,0.460938 0.312498,0.71875 v 1 h -0.999998 c -0.308594,0 -0.550781,-0.08984 -0.75,-0.28125 l -3.65625,-3.7187503 3.65625,-3.71875 c 0.199219,-0.191406 0.441406,-0.28125 0.75,-0.28125 z m 0,0"
       id="path302" /><path
       d="m 14.625267,8.1780141 c 0.08502,-0.096351 0.12658,-0.2229319 0.119023,-0.3495114 -0.0095,-0.1284691 -0.06802,-0.2474929 -0.164365,-0.3325084 -0.09635,-0.085021 -0.222932,-0.1284702 -0.351401,-0.1190239 -0.128469,0.00755 -0.247492,0.068015 -0.332508,0.1643659 L 10.850539,11.021342 9.7661079,9.9350195 c -0.1889235,-0.188924 -0.4949801,-0.188924 -0.6839055,0 -0.090684,0.090691 -0.1416942,0.2153755 -0.1416942,0.3438465 0,0.128469 0.05101,0.25127 0.1416942,0.341954 l 1.4509416,1.450947 c 0.09446,0.09446 0.224819,0.145472 0.358957,0.141694 0.134138,-0.0057 0.258827,-0.06424 0.347623,-0.166254 z m 0,0"
       fill="#2e3436"
       id="path315"
       style="stroke-width:120.308;stroke-dasharray:none" /></g></svg>
