<svg xmlns="http://www.w3.org/2000/svg" width="16" height="16" viewBox="0 0 16 16"><g fill="#241f31"><path d="m 8.726562 2.671875 l 1.398438 0.242187 l -2.050781 8.085938 l -1.398438 -0.242188 z m 0 0"/><path d="m 8.945312 0.621094 l 1.914063 0.371094 l 0.152344 3.734374 l -3.824219 -0.746093 z m 0 0"/><path d="m 7.707031 7.105469 l 1.109375 0.230469 c 0.609375 0.128906 1.003906 0.730468 0.875 1.339843 l -1.164062 5.535157 c -0.125 0.613281 -0.726563 1.003906 -1.335938 0.875 l -1.109375 -0.230469 c -0.609375 -0.128907 -1.003906 -0.730469 -0.875 -1.339844 l 1.164063 -5.535156 c 0.125 -0.613281 0.726562 -1.003907 1.335937 -0.875 z m 0 0"/><path d="m 4.289062 5.375 l -2.839843 1.425781 c -0.453125 0.230469 -0.738281 0.691407 -0.738281 1.199219 c 0 0.421875 0.230468 0.8125 0.605468 1.011719 l 2.820313 1.5 c 0.257812 0.136719 0.570312 0.128906 0.820312 -0.019531 c 0.25 -0.152344 0.402344 -0.421876 0.402344 -0.714844 c -0.039063 -0.445313 -0.324219 -0.824219 -0.738281 -0.988282 l -1.84375 -0.910156 l 2.003906 -0.929687 c 0.351562 -0.160157 0.578125 -0.515625 0.578125 -0.902344 v -0.011719 c 0 -0.253906 -0.132813 -0.492187 -0.351563 -0.628906 c -0.21875 -0.132812 -0.492187 -0.144531 -0.71875 -0.03125 z m 0 0"/><path d="m 11.699219 5.421875 l 2.84375 1.425781 c 0.449219 0.230469 0.738281 0.691406 0.738281 1.199219 c 0 0.421875 -0.234375 0.8125 -0.609375 1.011719 l -2.820313 1.5 c -0.257812 0.136718 -0.566406 0.128906 -0.820312 -0.019532 c -0.25 -0.152343 -0.402344 -0.421874 -0.402344 -0.714843 c 0.039063 -0.445313 0.328125 -0.824219 0.738282 -0.988281 l 1.84375 -0.910157 l -2.003907 -0.929687 c -0.351562 -0.160156 -0.578125 -0.515625 -0.578125 -0.902344 v -0.011719 c 0 -0.253906 0.132813 -0.492187 0.351563 -0.628906 c 0.21875 -0.132813 0.492187 -0.144531 0.71875 -0.03125 z m 0 0"/></g></svg>