<svg xmlns="http://www.w3.org/2000/svg" xmlns:xlink="http://www.w3.org/1999/xlink" width="128" height="128" viewBox="0 0 128 128"><linearGradient id="a" gradientUnits="userSpaceOnUse"><stop offset="0" stop-color="#1a5fb4"/><stop offset=".04" stop-color="#5f9ce8"/><stop offset=".08" stop-color="#3582e3"/><stop offset=".92" stop-color="#3483e3"/><stop offset=".96" stop-color="#609ee8"/><stop offset="1" stop-color="#1a5fb5"/></linearGradient><linearGradient id="b" x1="12" x2="116" y1="124" y2="124" xlink:href="#a"/><linearGradient id="c" x1="18" x2="110" y1="50" y2="50" xlink:href="#a"/><linearGradient id="d" gradientUnits="userSpaceOnUse"><stop offset="0" stop-color="#fc9a91"/><stop offset="1" stop-color="#cb2b31"/></linearGradient><linearGradient id="e" x1="-253.63" x2="-230.06" y1="-56.518" y2="-56.518" gradientTransform="matrix(-0.297711 0.353898 0.417073 0.350856 47.980806 172.558086)" xlink:href="#d"/><linearGradient id="f" x1="-253.63" x2="-230.06" y1="-56.518" y2="-56.518" gradientTransform="matrix(-0.297711 0.353898 0.417073 0.350856 47.146658 171.856387)" xlink:href="#d"/><linearGradient id="g" x1="181.677" x2="143.246" y1="-139.479" y2="-101.048" gradientTransform="matrix(0.0889217 0.205848 0.218031 0.0523711 68.381268 7.394158)" gradientUnits="userSpaceOnUse"><stop offset="0" stop-color="#d0bb8e"/><stop offset="1" stop-color="#fff"/></linearGradient><linearGradient id="h" x1="-230.06" x2="-253.63" y1="-64.518" y2="-64.518" gradientTransform="matrix(-0.297711 0.353898 0.417073 0.350856 47.146666 171.856385)" gradientUnits="userSpaceOnUse"><stop offset="0" stop-color="#c0bfbc"/><stop offset=".223" stop-color="#9a9996"/><stop offset=".744" stop-color="#d6d5d2"/><stop offset="1" stop-color="#f6f5f4"/></linearGradient><linearGradient id="i" gradientUnits="userSpaceOnUse"><stop offset="0" stop-color="#c01c28"/><stop offset=".5" stop-color="#ed333b"/><stop offset="1" stop-color="#e01b24"/></linearGradient><linearGradient id="j" x1="23" x2="23" y1="238" y2="222" gradientTransform="matrix(0.979031 -0.658998 0.658998 0.979031 -110.487538 -130.428524)" xlink:href="#i"/><radialGradient id="k" cx="28" cy="229.945" r="12" gradientTransform="matrix(-0.512554 -0.761469 0.761469 -0.512554 -85.069994 210.644433)" gradientUnits="userSpaceOnUse"><stop offset="0" stop-color="#a51d2d"/><stop offset=".7" stop-color="#b21c2a" stop-opacity=".725"/><stop offset="1" stop-color="#c01c28" stop-opacity="0"/></radialGradient><linearGradient id="l" x1="16" x2="40" y1="232" y2="232" gradientTransform="matrix(-0.329499 -0.489516 0.489516 -0.329499 -25.403807 159.417647)" xlink:href="#i"/><linearGradient id="m" x1="46" x2="46" y1="232" y2="228" gradientTransform="matrix(-0.775067 0.521707 0.878664 1.305375 -67.35004 -268.531734)" gradientUnits="userSpaceOnUse"><stop offset="0" stop-color="#9a9996"/><stop offset=".5" stop-color="#fff"/><stop offset="1" stop-color="#c0bfbc"/></linearGradient><clipPath id="n"><path d="m 46 67 h 19 v 28 h -19 z m 0 0"/></clipPath><clipPath id="o"><path d="m 47.609375 90.355469 c 2.910156 4.324219 8.777344 5.472656 13.105469 2.558593 l 14.355468 -9.664062 c 1.445313 -0.96875 1.824219 -2.925781 0.855469 -4.367188 c -0.484375 -0.722656 -0.292969 -1.699218 0.425781 -2.183593 l 4.570313 -3.078125 c 0.71875 -0.484375 1.699219 -0.292969 2.183594 0.429687 c 0.96875 1.441407 2.925781 1.824219 4.367187 0.851563 l 1.304688 -0.878906 l -10.542969 -15.664063 l -1.304687 0.878906 c -1.441407 0.972657 -1.824219 2.925781 -0.855469 4.367188 c 0.488281 0.722656 0.296875 1.699219 -0.425781 2.183593 l -4.566407 3.078126 c -0.722656 0.484374 -1.699219 0.292968 -2.1875 -0.429688 c -0.96875 -1.441406 -2.925781 -1.820312 -4.367187 -0.851562 l -14.359375 9.664062 c -4.324219 2.914062 -5.472657 8.78125 -2.558594 13.105469 z m 0 0"/></clipPath><clipPath id="p"><path d="m 46 67 h 19 v 28 h -19 z m 0 0"/></clipPath><clipPath id="q"><path d="m 47.609375 90.355469 c 2.910156 4.324219 8.777344 5.472656 13.105469 2.558593 l 14.355468 -9.664062 c 1.445313 -0.96875 1.824219 -2.925781 0.855469 -4.367188 c -0.484375 -0.722656 -0.292969 -1.699218 0.425781 -2.183593 l 4.570313 -3.078125 c 0.71875 -0.484375 1.699219 -0.292969 2.183594 0.429687 c 0.96875 1.441407 2.925781 1.824219 4.367187 0.851563 l 1.304688 -0.878906 l -10.542969 -15.664063 l -1.304687 0.878906 c -1.441407 0.972657 -1.824219 2.925781 -0.855469 4.367188 c 0.488281 0.722656 0.296875 1.699219 -0.425781 2.183593 l -4.566407 3.078126 c -0.722656 0.484374 -1.699219 0.292968 -2.1875 -0.429688 c -0.96875 -1.441406 -2.925781 -1.820312 -4.367187 -0.851562 l -14.359375 9.664062 c -4.324219 2.914062 -5.472657 8.78125 -2.558594 13.105469 z m 0 0"/></clipPath><clipPath id="r"><rect width="128" height="128"/></clipPath><clipPath id="s"><rect width="128" height="128"/></clipPath><filter id="t" width="100%" height="100%" x="0%" y="0%"><feColorMatrix in="SourceGraphic" type="matrix" values="0 0 0 0 1 0 0 0 0 1 0 0 0 0 1 0 0 0 1 0"/></filter><mask id="u"><g clip-path="url(#s)" filter="url(#t)"><g clip-path="url(#r)"><path fill="url(#b)" d="m 20 12 h 88 c 4.417969 0 8 3.582031 8 8 v 88 c 0 4.417969 -3.582031 8 -8 8 h -88 c -4.417969 0 -8 -3.582031 -8 -8 v -88 c 0 -4.417969 3.582031 -8 8 -8 z m 0 0"/><path fill="#1c71d8" d="m 20 12 h 88 c 4.417969 0 8 3.582031 8 8 v 60 c 0 4.417969 -3.582031 8 -8 8 h -88 c -4.417969 0 -8 -3.582031 -8 -8 v -60 c 0 -4.417969 3.582031 -8 8 -8 z m 0 0"/><path fill="url(#c)" d="m 20 18 h 88 c 1.105469 0 2 0.894531 2 2 v 60 c 0 1.105469 -0.894531 2 -2 2 h -88 c -1.105469 0 -2 -0.894531 -2 -2 v -60 c 0 -1.105469 0.894531 -2 2 -2 z m 0 0"/><path fill="#1a5fb4" d="m 20 42 h 88 c 1.105469 0 2 0.894531 2 2 v 36 c 0 1.105469 -0.894531 2 -2 2 h -88 c -1.105469 0 -2 -0.894531 -2 -2 v -36 c 0 -1.105469 0.894531 -2 2 -2 z m 0 0"/><path fill="#0e315b" stroke="#0e315b" stroke-width=".2" d="m -41.922948 15.76847 c 1.136719 -0.03125 2.109375 -0.824218 2.371094 -1.929687 l 4.34375 -16.332031 c 0.140625 -0.535157 0.027343 -1.105469 -0.308594 -1.542969 c -0.339844 -0.4375 -0.859375 -0.691406 -1.410156 -0.691406 c -1.066407 0.027343 -1.972657 0.777343 -2.203125 1.8125 l -4.25 16.808593 c -0.113282 0.449219 -0.015625 0.925782 0.269531 1.292969 c 0.285156 0.367188 0.722656 0.582031 1.1875 0.582031 z m 0 0" transform="matrix(1 0 0 1 102.985448 96.454186)"/><path fill="#0e315b" stroke="#0e315b" stroke-width=".2" d="m -31.743261 11.248939 l 6.21875 -3.125 c 0.972657 -0.488281 1.589844 -1.484375 1.589844 -2.574219 c 0 -1.003906 -0.554687 -1.925781 -1.441406 -2.398437 l -6.277344 -3.339844 c -0.578125 -0.308594 -1.277344 -0.289062 -1.839844 0.050781 c -0.5625 0.335938 -0.90625 0.945313 -0.90625 1.601563 v 0.007812 c 0 0.851563 0.480469 1.628907 1.246094 2.007813 l 4.5625 2.261719 l -4.738281 2.195312 c -0.652344 0.300781 -1.070313 0.953125 -1.070313 1.675781 c 0 0.632813 0.328125 1.226563 0.871094 1.558594 c 0.539063 0.332031 1.214844 0.363281 1.785156 0.078125 z m 0 0" transform="matrix(1 0 0 1 102.985448 96.454186)"/><path fill="#0e315b" stroke="#0e315b" stroke-width=".2" d="m -46.833104 11.248939 l -6.21875 -3.125 c -0.972657 -0.488281 -1.585938 -1.484375 -1.585938 -2.574219 c 0 -1.003906 0.550781 -1.925781 1.4375 -2.398437 l 6.277344 -3.339844 c 0.578125 -0.308594 1.277344 -0.289062 1.839844 0.050781 c 0.5625 0.335938 0.90625 0.945313 0.90625 1.601563 v 0.007812 c 0 0.851563 -0.480469 1.628907 -1.246094 2.007813 l -4.558594 2.261719 l 4.734375 2.195312 c 0.652344 0.300781 1.070313 0.953125 1.070313 1.675781 c 0 0.632813 -0.328125 1.226563 -0.871094 1.558594 c -0.539063 0.332031 -1.214844 0.363281 -1.785156 0.078125 z m 0 0" transform="matrix(1 0 0 1 102.985448 96.454186)"/><path fill="#5e5c64" d="m 24.601562 37.386719 l 46.007813 -8.769531 c 2.117187 -0.402344 4.136719 0.871093 4.515625 2.84375 l 6.125 32.152343 c 0.375 1.972657 -1.035156 3.898438 -3.152344 4.300781 l -46.007812 8.765626 c -2.117188 0.40625 -4.136719 -0.867188 -4.515625 -2.839844 l -6.125 -32.152344 c -0.375 -1.972656 1.035156 -3.898438 3.152343 -4.300781 z m 0 0"/><path fill="#9a9996" d="m 24.054688 34.507812 l 46.007812 -8.765624 c 2.117188 -0.402344 4.144531 0.910156 4.527344 2.929687 l 6.277344 32.9375 c 0.386718 2.019531 -1.019532 3.984375 -3.136719 4.390625 l -46.003907 8.765625 c -2.117187 0.402344 -4.148437 -0.910156 -4.53125 -2.929687 l -6.277343 -32.9375 c -0.382813 -2.019532 1.019531 -3.984376 3.136719 -4.390626 z m 0 0"/><path d="m 25.277344 43.214844 l 2.757812 -0.523438 c 0.828125 -0.160156 1.578125 0.144532 1.679688 0.671875 c 0.101562 0.53125 -0.488282 1.085938 -1.3125 1.242188 l -2.757813 0.527343 c -0.828125 0.15625 -1.578125 -0.144531 -1.679687 -0.671874 c -0.101563 -0.53125 0.488281 -1.085938 1.3125 -1.246094 z m 0 0"/><path fill="#36343d" d="m 25.035156 42.269531 l 2.875 -0.550781 c 0.796875 -0.148438 1.542969 0.265625 1.667969 0.925781 c 0.125 0.660157 -0.414063 1.320313 -1.210937 1.472657 l -2.875 0.546874 c -0.792969 0.152344 -1.539063 -0.261718 -1.664063 -0.921874 c -0.125 -0.664063 0.414063 -1.324219 1.207031 -1.472657 z m 0 0"/><path d="m 31.929688 41.949219 l 2.875 -0.546875 c 0.792968 -0.152344 1.519531 0.152344 1.621093 0.683594 c 0.097657 0.527343 -0.460937 1.082031 -1.257812 1.230468 l -2.875 0.550782 c -0.792969 0.148437 -1.519531 -0.15625 -1.621094 -0.6875 c -0.097656 -0.527344 0.460937 -1.078126 1.257813 -1.230469 z m 0 0"/><path fill="#36343d" d="m 31.746094 40.988281 l 2.875 -0.546875 c 0.792968 -0.152344 1.539062 0.261719 1.667968 0.925782 c 0.125 0.660156 -0.417968 1.320312 -1.210937 1.472656 l -2.875 0.546875 c -0.792969 0.152343 -1.539063 -0.261719 -1.667969 -0.925781 c -0.125 -0.660157 0.417969 -1.320313 1.210938 -1.472657 z m 0 0"/><path d="m 38.636719 40.671875 l 2.875 -0.550781 c 0.796875 -0.148438 1.519531 0.15625 1.621093 0.6875 c 0.101563 0.527344 -0.460937 1.078125 -1.253906 1.230468 l -2.875 0.546876 c -0.796875 0.152343 -1.519531 -0.152344 -1.621094 -0.683594 c -0.101562 -0.527344 0.460938 -1.082032 1.253907 -1.230469 z m 0 0"/><path fill="#36343d" d="m 38.453125 39.710938 l 2.878906 -0.546876 c 0.792969 -0.152343 1.539063 0.261719 1.664063 0.925782 c 0.125 0.660156 -0.414063 1.320312 -1.210938 1.46875 l -2.875 0.550781 c -0.792968 0.148437 -1.539062 -0.265625 -1.664062 -0.925781 s 0.414062 -1.320313 1.207031 -1.472656 z m 0 0"/><path d="m 45.347656 39.390625 l 2.875 -0.546875 c 0.792969 -0.152344 1.519532 0.15625 1.621094 0.683594 c 0.097656 0.53125 -0.460938 1.082031 -1.257812 1.234375 l -2.875 0.546875 c -0.792969 0.152344 -1.519532 -0.15625 -1.621094 -0.683594 c -0.097656 -0.53125 0.464844 -1.082031 1.257812 -1.234375 z m 0 0"/><path fill="#36343d" d="m 45.164062 38.433594 l 2.875 -0.546875 c 0.792969 -0.152344 1.539063 0.261719 1.667969 0.921875 c 0.125 0.664062 -0.417969 1.320312 -1.210937 1.472656 l -2.875 0.546875 c -0.792969 0.152344 -1.539063 -0.261719 -1.667969 -0.921875 c -0.125 -0.664062 0.417969 -1.320312 1.210937 -1.472656 z m 0 0"/><path d="m 52.054688 38.113281 l 2.875 -0.546875 c 0.796874 -0.152344 1.519531 0.15625 1.621093 0.683594 c 0.101563 0.53125 -0.460937 1.082031 -1.253906 1.234375 l -2.875 0.546875 c -0.792969 0.152344 -1.519531 -0.15625 -1.621094 -0.683594 c -0.101562 -0.53125 0.460938 -1.082031 1.253907 -1.234375 z m 0 0"/><path fill="#36343d" d="m 51.875 37.15625 l 2.875 -0.550781 c 0.792969 -0.148438 1.539062 0.265625 1.664062 0.925781 s -0.414062 1.320312 -1.207031 1.472656 l -2.878906 0.546875 c -0.792969 0.152344 -1.539063 -0.261719 -1.664063 -0.921875 c -0.125 -0.664062 0.414063 -1.324218 1.210938 -1.472656 z m 0 0"/><path d="m 62.597656 36.105469 l 2.875 -0.546875 c 0.796875 -0.152344 1.519532 0.152344 1.621094 0.683594 c 0.101562 0.527343 -0.460938 1.082031 -1.253906 1.230468 l -2.875 0.550782 c -0.792969 0.148437 -1.519532 -0.15625 -1.621094 -0.6875 c -0.101562 -0.527344 0.460938 -1.078126 1.253906 -1.230469 z m 0 0"/><path fill="#36343d" d="m 62.417969 35.144531 l 2.875 -0.546875 c 0.792969 -0.152344 1.539062 0.261719 1.664062 0.925782 c 0.125 0.660156 -0.414062 1.320312 -1.207031 1.472656 l -2.878906 0.546875 c -0.792969 0.152343 -1.539063 -0.261719 -1.664063 -0.925781 c -0.125 -0.660157 0.414063 -1.320313 1.210938 -1.472657 z m 0 0"/><path d="m 69.308594 34.828125 l 2.875 -0.550781 c 0.792968 -0.148438 1.519531 0.15625 1.621094 0.683594 c 0.101562 0.53125 -0.460938 1.082031 -1.257813 1.234374 l -2.875 0.546876 c -0.792969 0.152343 -1.519531 -0.152344 -1.617187 -0.683594 c -0.101563 -0.53125 0.460937 -1.082032 1.253906 -1.230469 z m 0 0"/><path fill="#36343d" d="m 69.125 33.867188 l 2.875 -0.546876 c 0.792969 -0.152343 1.539062 0.261719 1.667969 0.921876 c 0.125 0.664062 -0.417969 1.324218 -1.210938 1.472656 l -2.875 0.550781 c -0.792969 0.148437 -1.539062 -0.265625 -1.664062 -0.925781 c -0.128907 -0.660156 0.414062 -1.320313 1.207031 -1.472656 z m 0 0"/><path d="m 32.652344 45.753906 l 2.875 -0.546875 c 0.796875 -0.152343 1.5625 0.367188 1.714844 1.164063 l 0.546874 2.875 c 0.152344 0.792968 -0.371093 1.558594 -1.164062 1.710937 l -2.875 0.546875 c -0.792969 0.152344 -1.5625 -0.367187 -1.710938 -1.164062 l -0.550781 -2.875 c -0.148437 -0.792969 0.371094 -1.558594 1.164063 -1.710938 z m 0 0"/><path fill="#36343d" d="m 32.652344 45.753906 l 2.875 -0.546875 c 0.796875 -0.152343 1.5625 0.367188 1.714844 1.164063 l 0.453124 2.394531 c 0.152344 0.792969 -0.367187 1.5625 -1.160156 1.710937 l -2.878906 0.550782 c -0.792969 0.148437 -1.558594 -0.371094 -1.710938 -1.164063 l -0.457031 -2.398437 c -0.148437 -0.792969 0.371094 -1.558594 1.164063 -1.710938 z m 0 0"/><path d="m 39.363281 44.476562 l 2.875 -0.546874 c 0.792969 -0.152344 1.558594 0.367187 1.710938 1.160156 l 0.546875 2.878906 c 0.152344 0.792969 -0.367188 1.558594 -1.164063 1.710938 l -2.875 0.546874 c -0.792969 0.152344 -1.558593 -0.371093 -1.710937 -1.164062 l -0.546875 -2.875 c -0.152344 -0.792969 0.371093 -1.558594 1.164062 -1.710938 z m 0 0"/><path fill="#36343d" d="m 39.363281 44.476562 l 2.875 -0.546874 c 0.792969 -0.152344 1.558594 0.367187 1.710938 1.160156 l 0.457031 2.398437 c 0.152344 0.792969 -0.371094 1.558594 -1.164062 1.710938 l -2.875 0.546875 c -0.792969 0.152344 -1.558594 -0.367188 -1.710938 -1.164063 l -0.457031 -2.394531 c -0.152344 -0.792969 0.371093 -1.558594 1.164062 -1.710938 z m 0 0"/><path d="m 46.070312 43.199219 l 2.878907 -0.550781 c 0.792969 -0.148438 1.558593 0.371093 1.710937 1.164062 l 0.546875 2.875 c 0.152344 0.796875 -0.371093 1.5625 -1.164062 1.714844 l -2.875 0.546875 c -0.792969 0.148437 -1.5625 -0.371094 -1.710938 -1.164063 l -0.546875 -2.875 c -0.152344 -0.796875 0.367188 -1.5625 1.160156 -1.710937 z m 0 0"/><path fill="#36343d" d="m 46.070312 43.199219 l 2.878907 -0.550781 c 0.792969 -0.148438 1.558593 0.371093 1.710937 1.164062 l 0.457032 2.398438 c 0.148437 0.792968 -0.371094 1.558593 -1.164063 1.710937 l -2.875 0.546875 c -0.796875 0.152344 -1.5625 -0.371094 -1.714844 -1.164062 l -0.453125 -2.394532 c -0.152344 -0.796875 0.367188 -1.5625 1.160156 -1.710937 z m 0 0"/><path d="m 52.78125 41.917969 l 2.875 -0.546875 c 0.792969 -0.152344 1.5625 0.371094 1.710938 1.164062 l 0.546874 2.875 c 0.152344 0.792969 -0.367187 1.5625 -1.160156 1.710938 l -2.878906 0.546875 c -0.792969 0.152343 -1.558594 -0.367188 -1.710938 -1.160157 l -0.546874 -2.878906 c -0.152344 -0.792968 0.371093 -1.558594 1.164062 -1.710937 z m 0 0"/><path fill="#36343d" d="m 52.78125 41.917969 l 2.875 -0.546875 c 0.792969 -0.152344 1.5625 0.371094 1.710938 1.164062 l 0.457031 2.394532 c 0.152343 0.796874 -0.371094 1.5625 -1.164063 1.714843 l -2.875 0.546875 c -0.792968 0.152344 -1.558594 -0.371094 -1.710937 -1.164062 l -0.457031 -2.398438 c -0.152344 -0.792968 0.371093 -1.558594 1.164062 -1.710937 z m 0 0"/><path d="m 25.945312 47.03125 l 2.875 -0.546875 c 0.792969 -0.152344 1.558594 0.371094 1.710938 1.164063 l 0.546875 2.875 c 0.152344 0.792968 -0.367187 1.5625 -1.164063 1.710937 l -2.875 0.550781 c -0.792968 0.148438 -1.558593 -0.371094 -1.710937 -1.164062 l -0.546875 -2.875 c -0.152344 -0.796875 0.371094 -1.5625 1.164062 -1.714844 z m 0 0"/><path fill="#36343d" d="m 25.945312 47.03125 l 2.875 -0.546875 c 0.792969 -0.152344 1.558594 0.371094 1.710938 1.164063 l 0.457031 2.394531 c 0.152344 0.796875 -0.371093 1.5625 -1.164062 1.714843 l -2.875 0.546876 c -0.792969 0.152343 -1.5625 -0.371094 -1.710938 -1.164063 l -0.457031 -2.394531 c -0.152344 -0.796875 0.371094 -1.5625 1.164062 -1.714844 z m 0 0"/><path d="m 59.492188 40.640625 l 2.875 -0.546875 c 0.792968 -0.152344 1.558593 0.367188 1.710937 1.164062 l 0.546875 2.875 c 0.152344 0.792969 -0.371094 1.558594 -1.164062 1.710938 l -2.875 0.546875 c -0.792969 0.152344 -1.558594 -0.367187 -1.710938 -1.164063 l -0.546875 -2.875 c -0.152344 -0.792968 0.367187 -1.558593 1.164063 -1.710937 z m 0 0"/><path fill="#36343d" d="m 59.492188 40.640625 l 2.875 -0.546875 c 0.792968 -0.152344 1.558593 0.367188 1.710937 1.164062 l 0.457031 2.394532 c 0.148438 0.792968 -0.371094 1.5625 -1.164062 1.710937 l -2.875 0.550781 c -0.796875 0.148438 -1.5625 -0.371093 -1.714844 -1.164062 l -0.453125 -2.398438 c -0.152344 -0.792968 0.367187 -1.558593 1.164063 -1.710937 z m 0 0"/><path d="m 66.199219 39.363281 l 6.710937 -1.277343 c 0.792969 -0.152344 1.558594 0.367187 1.710938 1.160156 l 0.546875 2.878906 c 0.152343 0.792969 -0.371094 1.558594 -1.164063 1.710938 l -6.707031 1.277343 c -0.796875 0.152344 -1.5625 -0.371093 -1.714844 -1.164062 l -0.546875 -2.875 c -0.152344 -0.792969 0.371094 -1.558594 1.164063 -1.710938 z m 0 0"/><path fill="#36343d" d="m 66.199219 39.363281 l 6.710937 -1.277343 c 0.792969 -0.152344 1.558594 0.367187 1.710938 1.160156 l 0.457031 2.398437 c 0.148437 0.792969 -0.371094 1.558594 -1.164063 1.710938 l -6.710937 1.277343 c -0.792969 0.152344 -1.558594 -0.367187 -1.710937 -1.164062 l -0.457032 -2.394531 c -0.152344 -0.792969 0.371094 -1.558594 1.164063 -1.710938 z m 0 0"/><path d="m 27.226562 53.769531 l 6.710938 -1.277343 c 0.792969 -0.152344 1.558594 0.367187 1.710938 1.164062 l 0.546874 2.875 c 0.152344 0.792969 -0.367187 1.558594 -1.164062 1.710938 l -6.707031 1.277343 c -0.792969 0.152344 -1.5625 -0.367187 -1.710938 -1.164062 l -0.550781 -2.875 c -0.148438 -0.792969 0.371094 -1.558594 1.164062 -1.710938 z m 0 0"/><path fill="#36343d" d="m 27.226562 53.769531 l 6.710938 -1.277343 c 0.792969 -0.152344 1.558594 0.367187 1.710938 1.164062 l 0.457031 2.394531 c 0.152343 0.792969 -0.371094 1.5625 -1.164063 1.710938 l -6.707031 1.28125 c -0.796875 0.148437 -1.5625 -0.371094 -1.714844 -1.164063 l -0.457031 -2.398437 c -0.148438 -0.792969 0.371094 -1.558594 1.164062 -1.710938 z m 0 0"/><path d="m 37.769531 51.761719 l 2.878907 -0.546875 c 0.792968 -0.152344 1.558593 0.367187 1.710937 1.160156 l 0.546875 2.878906 c 0.152344 0.792969 -0.371094 1.558594 -1.164062 1.710938 l -2.875 0.546875 c -0.792969 0.152343 -1.5625 -0.371094 -1.710938 -1.164063 l -0.550781 -2.875 c -0.148438 -0.792968 0.371093 -1.558594 1.164062 -1.710937 z m 0 0"/><path fill="#36343d" d="m 37.769531 51.761719 l 2.878907 -0.546875 c 0.792968 -0.152344 1.558593 0.367187 1.710937 1.160156 l 0.457031 2.398438 c 0.148438 0.792968 -0.371094 1.558593 -1.164062 1.710937 l -2.875 0.546875 c -0.796875 0.152344 -1.5625 -0.367188 -1.714844 -1.164062 l -0.457031 -2.394532 c -0.148438 -0.792968 0.371093 -1.558594 1.164062 -1.710937 z m 0 0"/><path d="m 44.480469 50.484375 l 2.875 -0.550781 c 0.792969 -0.148438 1.558593 0.371094 1.710937 1.164062 l 0.546875 2.875 c 0.152344 0.796875 -0.367187 1.5625 -1.160156 1.710938 l -2.878906 0.550781 c -0.792969 0.148437 -1.558594 -0.371094 -1.710938 -1.164063 l -0.546875 -2.875 c -0.152344 -0.796874 0.371094 -1.5625 1.164063 -1.710937 z m 0 0"/><path fill="#36343d" d="m 44.480469 50.484375 l 2.875 -0.550781 c 0.792969 -0.148438 1.558593 0.371094 1.710937 1.164062 l 0.457032 2.398438 c 0.152343 0.792968 -0.371094 1.558594 -1.164063 1.710937 l -2.875 0.546875 c -0.792969 0.152344 -1.558594 -0.371094 -1.710937 -1.164062 l -0.457032 -2.394532 c -0.152344 -0.796874 0.371094 -1.5625 1.164063 -1.710937 z m 0 0"/><path d="m 51.191406 49.203125 l 2.875 -0.546875 c 0.792969 -0.152344 1.558594 0.371094 1.710938 1.164062 l 0.546875 2.875 c 0.152343 0.792969 -0.371094 1.5625 -1.164063 1.710938 l -2.875 0.546875 c -0.792968 0.152344 -1.558594 -0.367187 -1.710937 -1.160156 l -0.546875 -2.878907 c -0.152344 -0.792968 0.367187 -1.558593 1.164062 -1.710937 z m 0 0"/><path fill="#36343d" d="m 51.191406 49.203125 l 2.875 -0.546875 c 0.792969 -0.152344 1.558594 0.371094 1.710938 1.164062 l 0.457031 2.394532 c 0.148437 0.796875 -0.371094 1.5625 -1.164063 1.714844 l -2.875 0.546874 c -0.796874 0.152344 -1.5625 -0.371093 -1.714843 -1.164062 l -0.453125 -2.398438 c -0.152344 -0.792968 0.367187 -1.558593 1.164062 -1.710937 z m 0 0"/><path d="m 57.898438 47.925781 l 2.875 -0.546875 c 0.792968 -0.152344 1.5625 0.367188 1.710937 1.164063 l 0.550781 2.875 c 0.148438 0.792969 -0.371094 1.558593 -1.164062 1.710937 l -2.875 0.546875 c -0.796875 0.152344 -1.5625 -0.367187 -1.714844 -1.164062 l -0.546875 -2.875 c -0.152344 -0.792969 0.371094 -1.558594 1.164063 -1.710938 z m 0 0"/><path fill="#36343d" d="m 57.898438 47.925781 l 2.875 -0.546875 c 0.792968 -0.152344 1.5625 0.367188 1.710937 1.164063 l 0.457031 2.394531 c 0.152344 0.792969 -0.367187 1.5625 -1.164062 1.710938 l -2.875 0.550781 c -0.792969 0.148437 -1.558594 -0.371094 -1.710938 -1.164063 l -0.457031 -2.398437 c -0.152344 -0.792969 0.371094 -1.558594 1.164063 -1.710938 z m 0 0"/><path d="m 64.609375 46.648438 l 2.875 -0.546876 c 0.792969 -0.152343 1.558594 0.367188 1.710937 1.160157 l 0.546876 2.878906 c 0.152343 0.792969 -0.371094 1.558594 -1.164063 1.710937 l -2.875 0.546876 c -0.792969 0.152343 -1.558594 -0.371094 -1.710937 -1.164063 l -0.546876 -2.875 c -0.152343 -0.792969 0.367188 -1.558594 1.164063 -1.710937 z m 0 0"/><path fill="#36343d" d="m 64.609375 46.648438 l 2.875 -0.546876 c 0.792969 -0.152343 1.558594 0.367188 1.710937 1.160157 l 0.457032 2.398437 c 0.148437 0.792969 -0.371094 1.558594 -1.164063 1.710938 l -2.875 0.546875 c -0.796875 0.152343 -1.5625 -0.367188 -1.710937 -1.164063 l -0.457032 -2.394531 c -0.152343 -0.792969 0.367188 -1.558594 1.164063 -1.710937 z m 0 0"/><path d="m 35.214844 59.199219 l 2.875 -0.546875 c 0.796875 -0.152344 1.5625 0.371094 1.710937 1.164062 l 0.550781 2.875 c 0.148438 0.792969 -0.371093 1.5625 -1.164062 1.710938 l -2.875 0.550781 c -0.796875 0.148437 -1.5625 -0.371094 -1.710938 -1.164063 l -0.550781 -2.875 c -0.148437 -0.796874 0.371094 -1.5625 1.164063 -1.714843 z m 0 0"/><path fill="#36343d" d="m 35.214844 59.199219 l 2.875 -0.546875 c 0.796875 -0.152344 1.5625 0.371094 1.710937 1.164062 l 0.457031 2.394532 c 0.152344 0.796874 -0.367187 1.5625 -1.164062 1.714843 l -2.875 0.546875 c -0.792969 0.152344 -1.558594 -0.371094 -1.710938 -1.164062 l -0.457031 -2.394532 c -0.148437 -0.796874 0.371094 -1.5625 1.164063 -1.714843 z m 0 0"/><path d="m 41.925781 57.921875 l 2.875 -0.546875 c 0.792969 -0.152344 1.558594 0.371094 1.710938 1.164062 l 0.546875 2.875 c 0.152344 0.792969 -0.367188 1.558594 -1.164063 1.710938 l -2.875 0.546875 c -0.792969 0.152344 -1.558593 -0.367187 -1.710937 -1.164063 l -0.546875 -2.875 c -0.152344 -0.792968 0.367187 -1.558593 1.164062 -1.710937 z m 0 0"/><path fill="#36343d" d="m 41.925781 57.921875 l 2.875 -0.546875 c 0.792969 -0.152344 1.558594 0.371094 1.710938 1.164062 l 0.457031 2.394532 c 0.152344 0.792968 -0.371094 1.5625 -1.164062 1.710937 l -2.875 0.550781 c -0.792969 0.148438 -1.5625 -0.371093 -1.710938 -1.164062 l -0.457031 -2.398438 c -0.152344 -0.792968 0.367187 -1.558593 1.164062 -1.710937 z m 0 0"/><path d="m 48.632812 56.644531 l 2.875 -0.546875 c 0.796876 -0.152344 1.5625 0.367188 1.714844 1.164063 l 0.546875 2.875 c 0.152344 0.792969 -0.371093 1.558593 -1.164062 1.710937 l -2.875 0.546875 c -0.792969 0.152344 -1.5625 -0.371093 -1.710938 -1.164062 l -0.550781 -2.875 c -0.148438 -0.792969 0.371094 -1.558594 1.164062 -1.710938 z m 0 0"/><path fill="#36343d" d="m 48.632812 56.644531 l 2.875 -0.546875 c 0.796876 -0.152344 1.5625 0.367188 1.714844 1.164063 l 0.453125 2.394531 c 0.152344 0.792969 -0.367187 1.558594 -1.160156 1.710938 l -2.878906 0.546874 c -0.792969 0.152344 -1.558594 -0.367187 -1.710938 -1.164062 l -0.457031 -2.394531 c -0.148438 -0.792969 0.371094 -1.558594 1.164062 -1.710938 z m 0 0"/><path d="m 55.34375 55.367188 l 2.875 -0.550782 c 0.792969 -0.148437 1.558594 0.371094 1.710938 1.164063 l 0.546874 2.875 c 0.152344 0.796875 -0.367187 1.5625 -1.164062 1.714843 l -2.875 0.546876 c -0.792969 0.152343 -1.558594 -0.371094 -1.710938 -1.164063 l -0.546874 -2.875 c -0.152344 -0.792969 0.371093 -1.5625 1.164062 -1.710937 z m 0 0"/><path fill="#36343d" d="m 55.34375 55.367188 l 2.875 -0.550782 c 0.792969 -0.148437 1.558594 0.371094 1.710938 1.164063 l 0.457031 2.398437 c 0.152343 0.792969 -0.371094 1.558594 -1.164063 1.710938 l -2.875 0.546875 c -0.792968 0.152343 -1.558594 -0.371094 -1.710937 -1.164063 l -0.457031 -2.394531 c -0.152344 -0.792969 0.371093 -1.5625 1.164062 -1.710937 z m 0 0"/><path d="m 28.507812 60.480469 l 2.875 -0.550781 c 0.792969 -0.148438 1.558594 0.371093 1.710938 1.164062 l 0.546875 2.875 c 0.152344 0.796875 -0.367187 1.5625 -1.164063 1.714844 l -2.875 0.546875 c -0.792968 0.152343 -1.558593 -0.371094 -1.710937 -1.164063 l -0.546875 -2.875 c -0.152344 -0.792968 0.367188 -1.5625 1.164062 -1.710937 z m 0 0"/><path fill="#36343d" d="m 28.507812 60.480469 l 2.875 -0.550781 c 0.792969 -0.148438 1.558594 0.371093 1.710938 1.164062 l 0.457031 2.398438 c 0.152344 0.792968 -0.371093 1.558593 -1.164062 1.710937 l -2.875 0.546875 c -0.792969 0.152344 -1.5625 -0.371094 -1.710938 -1.164062 l -0.457031 -2.394532 c -0.152344 -0.792968 0.367188 -1.5625 1.164062 -1.710937 z m 0 0"/><path d="m 62.050781 54.085938 l 2.878907 -0.546876 c 0.792968 -0.152343 1.558593 0.371094 1.710937 1.164063 l 0.546875 2.875 c 0.152344 0.792969 -0.371094 1.5625 -1.164062 1.710937 l -2.875 0.550782 c -0.792969 0.148437 -1.5625 -0.371094 -1.710938 -1.164063 l -0.550781 -2.875 c -0.148438 -0.796875 0.371093 -1.5625 1.164062 -1.714843 z m 0 0"/><path fill="#36343d" d="m 62.050781 54.085938 l 2.878907 -0.546876 c 0.792968 -0.152343 1.558593 0.371094 1.710937 1.164063 l 0.457031 2.394531 c 0.148438 0.796875 -0.371094 1.5625 -1.164062 1.714844 l -2.875 0.546875 c -0.796875 0.152344 -1.5625 -0.371094 -1.714844 -1.164063 l -0.457031 -2.394531 c -0.148438 -0.796875 0.371093 -1.5625 1.164062 -1.714843 z m 0 0"/><path d="m 68.761719 52.808594 l 2.875 -0.546875 c 0.792969 -0.152344 1.558593 0.367187 1.710937 1.164062 l 0.546875 2.875 c 0.152344 0.792969 -0.367187 1.558594 -1.160156 1.710938 l -2.878906 0.546875 c -0.792969 0.152344 -1.558594 -0.367188 -1.710938 -1.164063 l -0.546875 -2.875 c -0.152344 -0.792969 0.371094 -1.558593 1.164063 -1.710937 z m 0 0"/><path fill="#36343d" d="m 68.761719 52.808594 l 2.875 -0.546875 c 0.792969 -0.152344 1.558593 0.367187 1.710937 1.164062 l 0.457032 2.394531 c 0.152343 0.792969 -0.371094 1.5625 -1.164063 1.710938 l -2.875 0.550781 c -0.792969 0.148438 -1.558594 -0.371093 -1.710937 -1.164062 l -0.457032 -2.398438 c -0.152344 -0.792969 0.371094 -1.558593 1.164063 -1.710937 z m 0 0"/><path d="m 71.316406 45.371094 l 2.875 -0.550782 c 0.796875 -0.148437 1.5625 0.371094 1.710938 1.164063 l 0.550781 2.875 c 0.148437 0.796875 -0.371094 1.5625 -1.164063 1.710937 l -2.875 0.550782 c -0.796874 0.148437 -1.5625 -0.371094 -1.714843 -1.164063 l -0.546875 -2.875 c -0.148438 -0.796875 0.371094 -1.5625 1.164062 -1.710937 z m 0 0"/><path fill="#36343d" d="m 71.316406 45.371094 l 2.875 -0.550782 c 0.796875 -0.148437 1.5625 0.371094 1.710938 1.164063 l 0.457031 2.398437 c 0.152344 0.792969 -0.367187 1.558594 -1.164063 1.710938 l -2.875 0.546875 c -0.792968 0.152344 -1.558593 -0.371094 -1.710937 -1.164063 l -0.457031 -2.394531 c -0.148438 -0.796875 0.371094 -1.5625 1.164062 -1.710937 z m 0 0"/><path d="m 74.636719 47.257812 l 0.019531 -0.003906 c 0.792969 -0.148437 1.558594 0.371094 1.710938 1.164063 l 1.445312 7.59375 c 0.152344 0.792969 -0.367188 1.558593 -1.160156 1.710937 l -0.019532 0.003906 c -0.796874 0.152344 -1.5625 -0.371093 -1.714843 -1.164062 l -1.445313 -7.59375 c -0.152344 -0.792969 0.371094 -1.558594 1.164063 -1.710938 z m 0 0"/><path fill="#36343d" d="m 74.550781 46.816406 l 0.019531 -0.003906 c 0.796876 -0.148438 1.5625 0.371094 1.714844 1.164062 l 1.445313 7.59375 c 0.152343 0.792969 -0.371094 1.558594 -1.164063 1.710938 l -0.019531 0.003906 c -0.792969 0.152344 -1.558594 -0.371094 -1.710937 -1.164062 l -1.445313 -7.59375 c -0.152344 -0.792969 0.367187 -1.558594 1.160156 -1.710938 z m 0 0"/><path d="m 29.785156 67.1875 l 6.710938 -1.277344 c 0.792968 -0.152344 1.558594 0.371094 1.710937 1.164063 l 0.546875 2.875 c 0.152344 0.792969 -0.371094 1.558593 -1.164062 1.710937 l -6.710938 1.277344 c -0.792968 0.152344 -1.558594 -0.367188 -1.710937 -1.164062 l -0.546875 -2.875 c -0.152344 -0.792969 0.371094 -1.558594 1.164062 -1.710938 z m 0 0"/><path fill="#36343d" d="m 29.785156 67.1875 l 6.707032 -1.277344 c 0.796874 -0.152344 1.5625 0.371094 1.714843 1.164063 l 0.457031 2.394531 c 0.148438 0.796875 -0.371093 1.5625 -1.164062 1.710938 l -6.710938 1.28125 c -0.792968 0.148437 -1.558593 -0.371094 -1.710937 -1.164063 l -0.457031 -2.398437 c -0.152344 -0.792969 0.371094 -1.558594 1.164062 -1.710938 z m 0 0"/><path d="m 40.328125 65.179688 l 2.875 -0.546876 c 0.792969 -0.152343 1.558594 0.367188 1.710937 1.164063 l 0.546876 2.875 c 0.152343 0.792969 -0.367188 1.558594 -1.160157 1.710937 l -2.878906 0.546876 c -0.792969 0.152343 -1.558594 -0.371094 -1.710937 -1.164063 l -0.546876 -2.875 c -0.152343 -0.792969 0.371094 -1.558594 1.164063 -1.710937 z m 0 0"/><path fill="#36343d" d="m 40.328125 65.179688 l 2.875 -0.546876 c 0.792969 -0.152343 1.558594 0.367188 1.710937 1.164063 l 0.457032 2.394531 c 0.152344 0.792969 -0.371094 1.558594 -1.164063 1.710938 l -2.875 0.546875 c -0.792969 0.152343 -1.558593 -0.367188 -1.710937 -1.160157 l -0.457032 -2.398437 c -0.152343 -0.792969 0.371094 -1.558594 1.164063 -1.710937 z m 0 0"/><path d="m 47.035156 63.902344 l 2.878906 -0.550782 c 0.792969 -0.148437 1.558594 0.371094 1.710938 1.164063 l 0.546875 2.875 c 0.152344 0.796875 -0.371094 1.5625 -1.164063 1.714844 l -2.875 0.546875 c -0.792968 0.152344 -1.558593 -0.371094 -1.710937 -1.164063 l -0.546875 -2.875 c -0.152344 -0.792969 0.367188 -1.5625 1.160156 -1.710937 z m 0 0"/><path fill="#36343d" d="m 47.035156 63.902344 l 2.878906 -0.550782 c 0.792969 -0.148437 1.558594 0.371094 1.710938 1.164063 l 0.457031 2.398437 c 0.148438 0.792969 -0.371093 1.558594 -1.164062 1.710938 l -2.875 0.546875 c -0.796875 0.152344 -1.5625 -0.367187 -1.714844 -1.164063 l -0.453125 -2.394531 c -0.152344 -0.792969 0.367188 -1.5625 1.160156 -1.710937 z m 0 0"/><path d="m 53.746094 62.621094 l 16.292968 -3.101563 c 0.792969 -0.152343 1.5625 0.367188 1.710938 1.164063 l 0.550781 2.875 c 0.148438 0.792968 -0.371093 1.558594 -1.164062 1.710937 l -16.292969 3.105469 c -0.796875 0.148438 -1.5625 -0.371094 -1.714844 -1.164062 l -0.546875 -2.875 c -0.152343 -0.796876 0.371094 -1.5625 1.164063 -1.714844 z m 0 0"/><path fill="#36343d" d="m 53.746094 62.621094 l 16.292968 -3.101563 c 0.792969 -0.152343 1.5625 0.367188 1.710938 1.164063 l 0.457031 2.394531 c 0.152344 0.792969 -0.367187 1.558594 -1.164062 1.710937 l -16.292969 3.105469 c -0.792969 0.152344 -1.558594 -0.371093 -1.710938 -1.164062 l -0.457031 -2.394531 c -0.152343 -0.796876 0.371094 -1.5625 1.164063 -1.714844 z m 0 0"/><path d="m 73.875 58.789062 l 2.875 -0.550781 c 0.792969 -0.148437 1.558594 0.371094 1.710938 1.164063 l 0.546874 2.875 c 0.152344 0.796875 -0.367187 1.5625 -1.164062 1.714844 l -2.875 0.546874 c -0.792969 0.152344 -1.558594 -0.371093 -1.710938 -1.164062 l -0.546874 -2.875 c -0.152344 -0.792969 0.367187 -1.5625 1.164062 -1.710938 z m 0 0"/><path fill="#36343d" d="m 73.875 58.789062 l 2.875 -0.550781 c 0.792969 -0.148437 1.558594 0.371094 1.710938 1.164063 l 0.457031 2.398437 c 0.152343 0.792969 -0.371094 1.558594 -1.164063 1.710938 l -2.875 0.546875 c -0.792968 0.152344 -1.5625 -0.371094 -1.710937 -1.164063 l -0.457031 -2.394531 c -0.152344 -0.792969 0.367187 -1.5625 1.164062 -1.710938 z m 0 0"/><path fill="#ff7800" d="m 63.847656 29.824219 c 0.53125 -0.101563 1.046875 0.246093 1.148438 0.78125 c 0.097656 0.53125 -0.25 1.042969 -0.78125 1.144531 s -1.046875 -0.246094 -1.148438 -0.777344 c -0.101562 -0.535156 0.25 -1.046875 0.78125 -1.148437 z m 0 0"/><path fill="#f6d32d" d="m 66.753906 29.269531 c 0.53125 -0.101562 1.046875 0.25 1.148438 0.78125 c 0.101562 0.53125 -0.25 1.042969 -0.78125 1.144531 c -0.53125 0.101563 -1.042969 -0.246093 -1.144532 -0.777343 c -0.101562 -0.53125 0.246094 -1.046875 0.777344 -1.148438 z m 0 0"/><path fill="#ff881e" d="m 62.25 32.707031 l -5.613281 6.671875 l 35.152343 29.574219 l 5.613282 -6.671875 z m 0 0"/><path fill="#e66100" d="m 58.011719 37.6875 l -2.105469 2.503906 l 35.152344 29.570313 l 2.105468 -2.503907 z m 0 0"/><path fill="#ffb367" d="m 60.816406 34.351562 l 2.105469 -2.503906 l 35.152344 29.574219 l -2.105469 2.5 z m 0 0"/><path fill="url(#e)" d="m 95.746094 59.460938 l -7.015625 8.339843 l 3.335937 2.808594 l 7.015625 -8.34375 z m 0 0"/><path fill="url(#f)" d="m 92.066406 70.609375 c 2.304688 1.9375 5.742188 1.640625 7.679688 -0.664063 c 1.9375 -2.300781 1.640625 -5.738281 -0.664063 -7.679687 c -2.300781 -1.9375 -5.738281 -1.640625 -7.679687 0.664063 c -1.9375 2.304687 -1.640625 5.742187 0.664062 7.679687 z m 0 0"/><path fill="url(#g)" d="m 53.546875 31.082031 l 2.390625 9.132813 l 7.015625 -8.339844 z m 0 0"/><path fill="#3d3846" d="m 53.539062 31.125 l 1.203126 4.523438 l 3.5 -4.121094 z m 0 0"/><path fill="url(#h)" d="m 94.078125 58.058594 l -7.015625 8.339844 l 3.335938 2.804687 l 7.015624 -8.339844 z m 0 0"/><path fill="url(#j)" d="m 74.054688 63.347656 c -1.992188 -0.074218 -3.957032 0.488282 -5.609376 1.601563 l -18.277343 12.300781 c -1.6875 1.140625 -2.960938 2.792969 -3.628907 4.714844 h 30.441407 l 2.007812 -1.351563 c 4.324219 -2.910156 5.46875 -8.777343 2.558594 -13.101562 c -1.6875 -2.507813 -4.472656 -4.054688 -7.492187 -4.164063 z m 0 0"/><path fill="url(#k)" d="m 68.445312 64.949219 c 4.324219 -2.910157 10.191407 -1.765625 13.101563 2.5625 c 2.914063 4.324219 1.765625 10.191406 -2.558594 13.101562 c -4.324219 2.914063 -10.191406 1.765625 -13.105469 -2.558593 c -2.910156 -4.328126 -1.765624 -10.191407 2.5625 -13.105469 z m 0 0"/><path fill="url(#l)" d="m 74.984375 63.394531 c 3.242187 -2.183593 7.644531 -1.324219 9.828125 1.917969 c 2.183594 3.246094 1.324219 7.644531 -1.921875 9.828125 c -3.242187 2.183594 -7.644531 1.324219 -9.828125 -1.917969 c -2.183594 -3.246094 -1.324219 -7.644531 1.921875 -9.828125 z m 0 0"/><path fill="#a51d2d" d="m 76.941406 62.074219 c 3.246094 -2.183594 7.644532 -1.324219 9.828125 1.921875 c 2.183594 3.242187 1.324219 7.644531 -1.917969 9.828125 c -3.246093 2.183593 -7.644531 1.324219 -9.828124 -1.921875 c -2.183594 -3.242188 -1.324219 -7.644532 1.917968 -9.828125 z m 0 0"/><path fill="#c0bfbc" d="m 99.238281 50.160156 l 7.394531 -2.5 c 0.210938 -0.070312 0.445313 0.007813 0.570313 0.191406 l 2.210937 3.289063 c 0.125 0.1875 0.113282 0.433594 -0.035156 0.601563 l -5.097656 5.910156 c -0.125 0.140625 -0.304688 0.214844 -0.492188 0.207031 c -0.1875 -0.011719 -0.359374 -0.109375 -0.464843 -0.265625 l -4.390625 -6.527344 c -0.105469 -0.15625 -0.132813 -0.351562 -0.070313 -0.527344 c 0.058594 -0.179687 0.199219 -0.316406 0.375 -0.378906 z m 0 0"/><path fill="url(#m)" d="m 99.371094 51.71875 l -19.578125 13.179688 c -1.445313 0.972656 -1.824219 2.925781 -0.855469 4.367187 c 0.972656 1.445313 2.925781 1.824219 4.367188 0.855469 l 19.582031 -13.179688 c 1.441406 -0.972656 1.824219 -2.925781 0.851562 -4.367187 c -0.96875 -1.441407 -2.925781 -1.824219 -4.367187 -0.855469 z m 0 0"/><path fill="#deddda" d="m 98.59375 50.621094 l 6.730469 -2.089844 c 0.214843 -0.066406 0.445312 0.015625 0.574219 0.199219 l 2.210937 3.289062 c 0.125 0.1875 0.113281 0.433594 -0.027344 0.605469 l -4.46875 5.453125 c -0.121093 0.140625 -0.296875 0.222656 -0.480469 0.210937 c -0.1875 -0.007812 -0.355468 -0.101562 -0.460937 -0.257812 l -4.390625 -6.523438 c -0.105469 -0.15625 -0.128906 -0.347656 -0.066406 -0.523437 c 0.058594 -0.175781 0.199218 -0.308594 0.378906 -0.363281 z m 0 0"/><g clip-path="url(#p)"><g clip-path="url(#q)"><path fill="#c01c28" d="m 59.964844 67.511719 c -0.609375 -0.003907 -1.21875 0.171875 -1.761719 0.539062 l -28.066406 18.890625 c -1.449219 0.972656 -1.828125 2.921875 -0.851563 4.367188 c 0.972656 1.445312 2.917969 1.828125 4.363282 0.855468 l 11.757812 -7.914062 v -2.285156 h 3.394531 l 12.914063 -8.691406 c 1.449218 -0.972657 1.828125 -2.921876 0.855468 -4.367188 c -0.609374 -0.90625 -1.597656 -1.394531 -2.605468 -1.394531 z m 1.355468 10.46875 c -0.605468 0 -1.21875 0.175781 -1.761718 0.539062 l -5.121094 3.445313 h 9.910156 c 0.238282 -0.851563 0.113282 -1.796875 -0.421875 -2.59375 c -0.609375 -0.902344 -1.597656 -1.390625 -2.605469 -1.390625 z m -15.914062 10.066406 l -13.914062 9.363281 c -1.445313 0.972656 -1.824219 2.921875 -0.851563 4.367188 c 0.972656 1.449218 2.921875 1.828125 4.367187 0.855468 l 10.398438 -7 z m 14.53125 9.183594 l -11.441406 0.113281 l -7.816406 5.261719 c -1.445313 0.972656 -1.824219 2.921875 -0.851563 4.367187 c 0.972656 1.449219 2.917969 1.828125 4.367187 0.855469 z m 0 0"/></g></g></g></g></mask><mask id="v"><g filter="url(#t)"><rect width="128" height="128" fill-opacity=".8"/></g></mask><linearGradient id="w" x1="300" x2="428" y1="235" y2="235" gradientTransform="matrix(0 0.37 -0.98462 0 295.38501 -30.360001)" gradientUnits="userSpaceOnUse"><stop offset="0" stop-color="#f9f06b"/><stop offset="1" stop-color="#f5c211"/></linearGradient><clipPath id="x"><rect width="128" height="128"/></clipPath><clipPath id="y"><rect width="128" height="128"/></clipPath><path fill="url(#b)" d="m 20 12 h 88 c 4.417969 0 8 3.582031 8 8 v 88 c 0 4.417969 -3.582031 8 -8 8 h -88 c -4.417969 0 -8 -3.582031 -8 -8 v -88 c 0 -4.417969 3.582031 -8 8 -8 z m 0 0"/><path fill="#1c71d8" d="m 20 12 h 88 c 4.417969 0 8 3.582031 8 8 v 60 c 0 4.417969 -3.582031 8 -8 8 h -88 c -4.417969 0 -8 -3.582031 -8 -8 v -60 c 0 -4.417969 3.582031 -8 8 -8 z m 0 0"/><path fill="url(#c)" d="m 20 18 h 88 c 1.105469 0 2 0.894531 2 2 v 60 c 0 1.105469 -0.894531 2 -2 2 h -88 c -1.105469 0 -2 -0.894531 -2 -2 v -60 c 0 -1.105469 0.894531 -2 2 -2 z m 0 0"/><path fill="#1a5fb4" d="m 20 42 h 88 c 1.105469 0 2 0.894531 2 2 v 36 c 0 1.105469 -0.894531 2 -2 2 h -88 c -1.105469 0 -2 -0.894531 -2 -2 v -36 c 0 -1.105469 0.894531 -2 2 -2 z m 0 0"/><g fill="#0e315b" stroke="#0e315b" stroke-width=".2"><path d="m 61.0625 112.222656 c 1.136719 -0.03125 2.109375 -0.824218 2.371094 -1.929687 l 4.34375 -16.332031 c 0.140625 -0.535157 0.027343 -1.105469 -0.308594 -1.542969 c -0.339844 -0.4375 -0.859375 -0.691406 -1.410156 -0.691406 c -1.066407 0.027343 -1.972657 0.777343 -2.203125 1.8125 l -4.25 16.808593 c -0.113282 0.449219 -0.015625 0.925782 0.269531 1.292969 c 0.285156 0.367188 0.722656 0.582031 1.1875 0.582031 z m 0 0"/><path d="m 71.242187 107.703125 l 6.21875 -3.125 c 0.972657 -0.488281 1.589844 -1.484375 1.589844 -2.574219 c 0 -1.003906 -0.554687 -1.925781 -1.441406 -2.398437 l -6.277344 -3.339844 c -0.578125 -0.308594 -1.277344 -0.289062 -1.839844 0.050781 c -0.5625 0.335938 -0.90625 0.945313 -0.90625 1.601563 v 0.007812 c 0 0.851563 0.480469 1.628907 1.246094 2.007813 l 4.5625 2.261719 l -4.738281 2.195312 c -0.652344 0.300781 -1.070313 0.953125 -1.070313 1.675781 c 0 0.632813 0.328125 1.226563 0.871094 1.558594 c 0.539063 0.332031 1.214844 0.363281 1.785156 0.078125 z m 0 0"/><path d="m 56.152344 107.703125 l -6.21875 -3.125 c -0.972657 -0.488281 -1.585938 -1.484375 -1.585938 -2.574219 c 0 -1.003906 0.550781 -1.925781 1.4375 -2.398437 l 6.277344 -3.339844 c 0.578125 -0.308594 1.277344 -0.289062 1.839844 0.050781 c 0.5625 0.335938 0.90625 0.945313 0.90625 1.601563 v 0.007812 c 0 0.851563 -0.480469 1.628907 -1.246094 2.007813 l -4.558594 2.261719 l 4.734375 2.195312 c 0.652344 0.300781 1.070313 0.953125 1.070313 1.675781 c 0 0.632813 -0.328125 1.226563 -0.871094 1.558594 c -0.539063 0.332031 -1.214844 0.363281 -1.785156 0.078125 z m 0 0"/></g><path fill="#5e5c64" d="m 24.601562 37.386719 l 46.007813 -8.769531 c 2.117187 -0.402344 4.136719 0.871093 4.515625 2.84375 l 6.125 32.152343 c 0.375 1.972657 -1.035156 3.898438 -3.152344 4.300781 l -46.007812 8.765626 c -2.117188 0.40625 -4.136719 -0.867188 -4.515625 -2.839844 l -6.125 -32.152344 c -0.375 -1.972656 1.035156 -3.898438 3.152343 -4.300781 z m 0 0"/><path fill="#9a9996" d="m 24.054688 34.507812 l 46.007812 -8.765624 c 2.117188 -0.402344 4.144531 0.910156 4.527344 2.929687 l 6.277344 32.9375 c 0.386718 2.019531 -1.019532 3.984375 -3.136719 4.390625 l -46.003907 8.765625 c -2.117187 0.402344 -4.148437 -0.910156 -4.53125 -2.929687 l -6.277343 -32.9375 c -0.382813 -2.019532 1.019531 -3.984376 3.136719 -4.390626 z m 0 0"/><path d="m 25.277344 43.214844 l 2.757812 -0.523438 c 0.828125 -0.160156 1.578125 0.144532 1.679688 0.671875 c 0.101562 0.53125 -0.488282 1.085938 -1.3125 1.242188 l -2.757813 0.527343 c -0.828125 0.15625 -1.578125 -0.144531 -1.679687 -0.671874 c -0.101563 -0.53125 0.488281 -1.085938 1.3125 -1.246094 z m 0 0"/><path fill="#36343d" d="m 25.035156 42.269531 l 2.875 -0.550781 c 0.796875 -0.148438 1.542969 0.265625 1.667969 0.925781 c 0.125 0.660157 -0.414063 1.320313 -1.210937 1.472657 l -2.875 0.546874 c -0.792969 0.152344 -1.539063 -0.261718 -1.664063 -0.921874 c -0.125 -0.664063 0.414063 -1.324219 1.207031 -1.472657 z m 0 0"/><path d="m 31.929688 41.949219 l 2.875 -0.546875 c 0.792968 -0.152344 1.519531 0.152344 1.621093 0.683594 c 0.097657 0.527343 -0.460937 1.082031 -1.257812 1.230468 l -2.875 0.550782 c -0.792969 0.148437 -1.519531 -0.15625 -1.621094 -0.6875 c -0.097656 -0.527344 0.460937 -1.078126 1.257813 -1.230469 z m 0 0"/><path fill="#36343d" d="m 31.746094 40.988281 l 2.875 -0.546875 c 0.792968 -0.152344 1.539062 0.261719 1.667968 0.925782 c 0.125 0.660156 -0.417968 1.320312 -1.210937 1.472656 l -2.875 0.546875 c -0.792969 0.152343 -1.539063 -0.261719 -1.667969 -0.925781 c -0.125 -0.660157 0.417969 -1.320313 1.210938 -1.472657 z m 0 0"/><path d="m 38.636719 40.671875 l 2.875 -0.550781 c 0.796875 -0.148438 1.519531 0.15625 1.621093 0.6875 c 0.101563 0.527344 -0.460937 1.078125 -1.253906 1.230468 l -2.875 0.546876 c -0.796875 0.152343 -1.519531 -0.152344 -1.621094 -0.683594 c -0.101562 -0.527344 0.460938 -1.082032 1.253907 -1.230469 z m 0 0"/><path fill="#36343d" d="m 38.453125 39.710938 l 2.878906 -0.546876 c 0.792969 -0.152343 1.539063 0.261719 1.664063 0.925782 c 0.125 0.660156 -0.414063 1.320312 -1.210938 1.46875 l -2.875 0.550781 c -0.792968 0.148437 -1.539062 -0.265625 -1.664062 -0.925781 s 0.414062 -1.320313 1.207031 -1.472656 z m 0 0"/><path d="m 45.347656 39.390625 l 2.875 -0.546875 c 0.792969 -0.152344 1.519532 0.15625 1.621094 0.683594 c 0.097656 0.53125 -0.460938 1.082031 -1.257812 1.234375 l -2.875 0.546875 c -0.792969 0.152344 -1.519532 -0.15625 -1.621094 -0.683594 c -0.097656 -0.53125 0.464844 -1.082031 1.257812 -1.234375 z m 0 0"/><path fill="#36343d" d="m 45.164062 38.433594 l 2.875 -0.546875 c 0.792969 -0.152344 1.539063 0.261719 1.667969 0.921875 c 0.125 0.664062 -0.417969 1.320312 -1.210937 1.472656 l -2.875 0.546875 c -0.792969 0.152344 -1.539063 -0.261719 -1.667969 -0.921875 c -0.125 -0.664062 0.417969 -1.320312 1.210937 -1.472656 z m 0 0"/><path d="m 52.054688 38.113281 l 2.875 -0.546875 c 0.796874 -0.152344 1.519531 0.15625 1.621093 0.683594 c 0.101563 0.53125 -0.460937 1.082031 -1.253906 1.234375 l -2.875 0.546875 c -0.792969 0.152344 -1.519531 -0.15625 -1.621094 -0.683594 c -0.101562 -0.53125 0.460938 -1.082031 1.253907 -1.234375 z m 0 0"/><path fill="#36343d" d="m 51.875 37.15625 l 2.875 -0.550781 c 0.792969 -0.148438 1.539062 0.265625 1.664062 0.925781 s -0.414062 1.320312 -1.207031 1.472656 l -2.878906 0.546875 c -0.792969 0.152344 -1.539063 -0.261719 -1.664063 -0.921875 c -0.125 -0.664062 0.414063 -1.324218 1.210938 -1.472656 z m 0 0"/><path d="m 62.597656 36.105469 l 2.875 -0.546875 c 0.796875 -0.152344 1.519532 0.152344 1.621094 0.683594 c 0.101562 0.527343 -0.460938 1.082031 -1.253906 1.230468 l -2.875 0.550782 c -0.792969 0.148437 -1.519532 -0.15625 -1.621094 -0.6875 c -0.101562 -0.527344 0.460938 -1.078126 1.253906 -1.230469 z m 0 0"/><path fill="#36343d" d="m 62.417969 35.144531 l 2.875 -0.546875 c 0.792969 -0.152344 1.539062 0.261719 1.664062 0.925782 c 0.125 0.660156 -0.414062 1.320312 -1.207031 1.472656 l -2.878906 0.546875 c -0.792969 0.152343 -1.539063 -0.261719 -1.664063 -0.925781 c -0.125 -0.660157 0.414063 -1.320313 1.210938 -1.472657 z m 0 0"/><path d="m 69.308594 34.828125 l 2.875 -0.550781 c 0.792968 -0.148438 1.519531 0.15625 1.621094 0.683594 c 0.101562 0.53125 -0.460938 1.082031 -1.257813 1.234374 l -2.875 0.546876 c -0.792969 0.152343 -1.519531 -0.152344 -1.617187 -0.683594 c -0.101563 -0.53125 0.460937 -1.082032 1.253906 -1.230469 z m 0 0"/><path fill="#36343d" d="m 69.125 33.867188 l 2.875 -0.546876 c 0.792969 -0.152343 1.539062 0.261719 1.667969 0.921876 c 0.125 0.664062 -0.417969 1.324218 -1.210938 1.472656 l -2.875 0.550781 c -0.792969 0.148437 -1.539062 -0.265625 -1.664062 -0.925781 c -0.128907 -0.660156 0.414062 -1.320313 1.207031 -1.472656 z m 0 0"/><path d="m 32.652344 45.753906 l 2.875 -0.546875 c 0.796875 -0.152343 1.5625 0.367188 1.714844 1.164063 l 0.546874 2.875 c 0.152344 0.792968 -0.371093 1.558594 -1.164062 1.710937 l -2.875 0.546875 c -0.792969 0.152344 -1.5625 -0.367187 -1.710938 -1.164062 l -0.550781 -2.875 c -0.148437 -0.792969 0.371094 -1.558594 1.164063 -1.710938 z m 0 0"/><path fill="#36343d" d="m 32.652344 45.753906 l 2.875 -0.546875 c 0.796875 -0.152343 1.5625 0.367188 1.714844 1.164063 l 0.453124 2.394531 c 0.152344 0.792969 -0.367187 1.5625 -1.160156 1.710937 l -2.878906 0.550782 c -0.792969 0.148437 -1.558594 -0.371094 -1.710938 -1.164063 l -0.457031 -2.398437 c -0.148437 -0.792969 0.371094 -1.558594 1.164063 -1.710938 z m 0 0"/><path d="m 39.363281 44.476562 l 2.875 -0.546874 c 0.792969 -0.152344 1.558594 0.367187 1.710938 1.160156 l 0.546875 2.878906 c 0.152344 0.792969 -0.367188 1.558594 -1.164063 1.710938 l -2.875 0.546874 c -0.792969 0.152344 -1.558593 -0.371093 -1.710937 -1.164062 l -0.546875 -2.875 c -0.152344 -0.792969 0.371093 -1.558594 1.164062 -1.710938 z m 0 0"/><path fill="#36343d" d="m 39.363281 44.476562 l 2.875 -0.546874 c 0.792969 -0.152344 1.558594 0.367187 1.710938 1.160156 l 0.457031 2.398437 c 0.152344 0.792969 -0.371094 1.558594 -1.164062 1.710938 l -2.875 0.546875 c -0.792969 0.152344 -1.558594 -0.367188 -1.710938 -1.164063 l -0.457031 -2.394531 c -0.152344 -0.792969 0.371093 -1.558594 1.164062 -1.710938 z m 0 0"/><path d="m 46.070312 43.199219 l 2.878907 -0.550781 c 0.792969 -0.148438 1.558593 0.371093 1.710937 1.164062 l 0.546875 2.875 c 0.152344 0.796875 -0.371093 1.5625 -1.164062 1.714844 l -2.875 0.546875 c -0.792969 0.148437 -1.5625 -0.371094 -1.710938 -1.164063 l -0.546875 -2.875 c -0.152344 -0.796875 0.367188 -1.5625 1.160156 -1.710937 z m 0 0"/><path fill="#36343d" d="m 46.070312 43.199219 l 2.878907 -0.550781 c 0.792969 -0.148438 1.558593 0.371093 1.710937 1.164062 l 0.457032 2.398438 c 0.148437 0.792968 -0.371094 1.558593 -1.164063 1.710937 l -2.875 0.546875 c -0.796875 0.152344 -1.5625 -0.371094 -1.714844 -1.164062 l -0.453125 -2.394532 c -0.152344 -0.796875 0.367188 -1.5625 1.160156 -1.710937 z m 0 0"/><path d="m 52.78125 41.917969 l 2.875 -0.546875 c 0.792969 -0.152344 1.5625 0.371094 1.710938 1.164062 l 0.546874 2.875 c 0.152344 0.792969 -0.367187 1.5625 -1.160156 1.710938 l -2.878906 0.546875 c -0.792969 0.152343 -1.558594 -0.367188 -1.710938 -1.160157 l -0.546874 -2.878906 c -0.152344 -0.792968 0.371093 -1.558594 1.164062 -1.710937 z m 0 0"/><path fill="#36343d" d="m 52.78125 41.917969 l 2.875 -0.546875 c 0.792969 -0.152344 1.5625 0.371094 1.710938 1.164062 l 0.457031 2.394532 c 0.152343 0.796874 -0.371094 1.5625 -1.164063 1.714843 l -2.875 0.546875 c -0.792968 0.152344 -1.558594 -0.371094 -1.710937 -1.164062 l -0.457031 -2.398438 c -0.152344 -0.792968 0.371093 -1.558594 1.164062 -1.710937 z m 0 0"/><path d="m 25.945312 47.03125 l 2.875 -0.546875 c 0.792969 -0.152344 1.558594 0.371094 1.710938 1.164063 l 0.546875 2.875 c 0.152344 0.792968 -0.367187 1.5625 -1.164063 1.710937 l -2.875 0.550781 c -0.792968 0.148438 -1.558593 -0.371094 -1.710937 -1.164062 l -0.546875 -2.875 c -0.152344 -0.796875 0.371094 -1.5625 1.164062 -1.714844 z m 0 0"/><path fill="#36343d" d="m 25.945312 47.03125 l 2.875 -0.546875 c 0.792969 -0.152344 1.558594 0.371094 1.710938 1.164063 l 0.457031 2.394531 c 0.152344 0.796875 -0.371093 1.5625 -1.164062 1.714843 l -2.875 0.546876 c -0.792969 0.152343 -1.5625 -0.371094 -1.710938 -1.164063 l -0.457031 -2.394531 c -0.152344 -0.796875 0.371094 -1.5625 1.164062 -1.714844 z m 0 0"/><path d="m 59.492188 40.640625 l 2.875 -0.546875 c 0.792968 -0.152344 1.558593 0.367188 1.710937 1.164062 l 0.546875 2.875 c 0.152344 0.792969 -0.371094 1.558594 -1.164062 1.710938 l -2.875 0.546875 c -0.792969 0.152344 -1.558594 -0.367187 -1.710938 -1.164063 l -0.546875 -2.875 c -0.152344 -0.792968 0.367187 -1.558593 1.164063 -1.710937 z m 0 0"/><path fill="#36343d" d="m 59.492188 40.640625 l 2.875 -0.546875 c 0.792968 -0.152344 1.558593 0.367188 1.710937 1.164062 l 0.457031 2.394532 c 0.148438 0.792968 -0.371094 1.5625 -1.164062 1.710937 l -2.875 0.550781 c -0.796875 0.148438 -1.5625 -0.371093 -1.714844 -1.164062 l -0.453125 -2.398438 c -0.152344 -0.792968 0.367187 -1.558593 1.164063 -1.710937 z m 0 0"/><path d="m 66.199219 39.363281 l 6.710937 -1.277343 c 0.792969 -0.152344 1.558594 0.367187 1.710938 1.160156 l 0.546875 2.878906 c 0.152343 0.792969 -0.371094 1.558594 -1.164063 1.710938 l -6.707031 1.277343 c -0.796875 0.152344 -1.5625 -0.371093 -1.714844 -1.164062 l -0.546875 -2.875 c -0.152344 -0.792969 0.371094 -1.558594 1.164063 -1.710938 z m 0 0"/><path fill="#36343d" d="m 66.199219 39.363281 l 6.710937 -1.277343 c 0.792969 -0.152344 1.558594 0.367187 1.710938 1.160156 l 0.457031 2.398437 c 0.148437 0.792969 -0.371094 1.558594 -1.164063 1.710938 l -6.710937 1.277343 c -0.792969 0.152344 -1.558594 -0.367187 -1.710937 -1.164062 l -0.457032 -2.394531 c -0.152344 -0.792969 0.371094 -1.558594 1.164063 -1.710938 z m 0 0"/><path d="m 27.226562 53.769531 l 6.710938 -1.277343 c 0.792969 -0.152344 1.558594 0.367187 1.710938 1.164062 l 0.546874 2.875 c 0.152344 0.792969 -0.367187 1.558594 -1.164062 1.710938 l -6.707031 1.277343 c -0.792969 0.152344 -1.5625 -0.367187 -1.710938 -1.164062 l -0.550781 -2.875 c -0.148438 -0.792969 0.371094 -1.558594 1.164062 -1.710938 z m 0 0"/><path fill="#36343d" d="m 27.226562 53.769531 l 6.710938 -1.277343 c 0.792969 -0.152344 1.558594 0.367187 1.710938 1.164062 l 0.457031 2.394531 c 0.152343 0.792969 -0.371094 1.5625 -1.164063 1.710938 l -6.707031 1.28125 c -0.796875 0.148437 -1.5625 -0.371094 -1.714844 -1.164063 l -0.457031 -2.398437 c -0.148438 -0.792969 0.371094 -1.558594 1.164062 -1.710938 z m 0 0"/><path d="m 37.769531 51.761719 l 2.878907 -0.546875 c 0.792968 -0.152344 1.558593 0.367187 1.710937 1.160156 l 0.546875 2.878906 c 0.152344 0.792969 -0.371094 1.558594 -1.164062 1.710938 l -2.875 0.546875 c -0.792969 0.152343 -1.5625 -0.371094 -1.710938 -1.164063 l -0.550781 -2.875 c -0.148438 -0.792968 0.371093 -1.558594 1.164062 -1.710937 z m 0 0"/><path fill="#36343d" d="m 37.769531 51.761719 l 2.878907 -0.546875 c 0.792968 -0.152344 1.558593 0.367187 1.710937 1.160156 l 0.457031 2.398438 c 0.148438 0.792968 -0.371094 1.558593 -1.164062 1.710937 l -2.875 0.546875 c -0.796875 0.152344 -1.5625 -0.367188 -1.714844 -1.164062 l -0.457031 -2.394532 c -0.148438 -0.792968 0.371093 -1.558594 1.164062 -1.710937 z m 0 0"/><path d="m 44.480469 50.484375 l 2.875 -0.550781 c 0.792969 -0.148438 1.558593 0.371094 1.710937 1.164062 l 0.546875 2.875 c 0.152344 0.796875 -0.367187 1.5625 -1.160156 1.710938 l -2.878906 0.550781 c -0.792969 0.148437 -1.558594 -0.371094 -1.710938 -1.164063 l -0.546875 -2.875 c -0.152344 -0.796874 0.371094 -1.5625 1.164063 -1.710937 z m 0 0"/><path fill="#36343d" d="m 44.480469 50.484375 l 2.875 -0.550781 c 0.792969 -0.148438 1.558593 0.371094 1.710937 1.164062 l 0.457032 2.398438 c 0.152343 0.792968 -0.371094 1.558594 -1.164063 1.710937 l -2.875 0.546875 c -0.792969 0.152344 -1.558594 -0.371094 -1.710937 -1.164062 l -0.457032 -2.394532 c -0.152344 -0.796874 0.371094 -1.5625 1.164063 -1.710937 z m 0 0"/><path d="m 51.191406 49.203125 l 2.875 -0.546875 c 0.792969 -0.152344 1.558594 0.371094 1.710938 1.164062 l 0.546875 2.875 c 0.152343 0.792969 -0.371094 1.5625 -1.164063 1.710938 l -2.875 0.546875 c -0.792968 0.152344 -1.558594 -0.367187 -1.710937 -1.160156 l -0.546875 -2.878907 c -0.152344 -0.792968 0.367187 -1.558593 1.164062 -1.710937 z m 0 0"/><path fill="#36343d" d="m 51.191406 49.203125 l 2.875 -0.546875 c 0.792969 -0.152344 1.558594 0.371094 1.710938 1.164062 l 0.457031 2.394532 c 0.148437 0.796875 -0.371094 1.5625 -1.164063 1.714844 l -2.875 0.546874 c -0.796874 0.152344 -1.5625 -0.371093 -1.714843 -1.164062 l -0.453125 -2.398438 c -0.152344 -0.792968 0.367187 -1.558593 1.164062 -1.710937 z m 0 0"/><path d="m 57.898438 47.925781 l 2.875 -0.546875 c 0.792968 -0.152344 1.5625 0.367188 1.710937 1.164063 l 0.550781 2.875 c 0.148438 0.792969 -0.371094 1.558593 -1.164062 1.710937 l -2.875 0.546875 c -0.796875 0.152344 -1.5625 -0.367187 -1.714844 -1.164062 l -0.546875 -2.875 c -0.152344 -0.792969 0.371094 -1.558594 1.164063 -1.710938 z m 0 0"/><path fill="#36343d" d="m 57.898438 47.925781 l 2.875 -0.546875 c 0.792968 -0.152344 1.5625 0.367188 1.710937 1.164063 l 0.457031 2.394531 c 0.152344 0.792969 -0.367187 1.5625 -1.164062 1.710938 l -2.875 0.550781 c -0.792969 0.148437 -1.558594 -0.371094 -1.710938 -1.164063 l -0.457031 -2.398437 c -0.152344 -0.792969 0.371094 -1.558594 1.164063 -1.710938 z m 0 0"/><path d="m 64.609375 46.648438 l 2.875 -0.546876 c 0.792969 -0.152343 1.558594 0.367188 1.710937 1.160157 l 0.546876 2.878906 c 0.152343 0.792969 -0.371094 1.558594 -1.164063 1.710937 l -2.875 0.546876 c -0.792969 0.152343 -1.558594 -0.371094 -1.710937 -1.164063 l -0.546876 -2.875 c -0.152343 -0.792969 0.367188 -1.558594 1.164063 -1.710937 z m 0 0"/><path fill="#36343d" d="m 64.609375 46.648438 l 2.875 -0.546876 c 0.792969 -0.152343 1.558594 0.367188 1.710937 1.160157 l 0.457032 2.398437 c 0.148437 0.792969 -0.371094 1.558594 -1.164063 1.710938 l -2.875 0.546875 c -0.796875 0.152343 -1.5625 -0.367188 -1.710937 -1.164063 l -0.457032 -2.394531 c -0.152343 -0.792969 0.367188 -1.558594 1.164063 -1.710937 z m 0 0"/><path d="m 35.214844 59.199219 l 2.875 -0.546875 c 0.796875 -0.152344 1.5625 0.371094 1.710937 1.164062 l 0.550781 2.875 c 0.148438 0.792969 -0.371093 1.5625 -1.164062 1.710938 l -2.875 0.550781 c -0.796875 0.148437 -1.5625 -0.371094 -1.710938 -1.164063 l -0.550781 -2.875 c -0.148437 -0.796874 0.371094 -1.5625 1.164063 -1.714843 z m 0 0"/><path fill="#36343d" d="m 35.214844 59.199219 l 2.875 -0.546875 c 0.796875 -0.152344 1.5625 0.371094 1.710937 1.164062 l 0.457031 2.394532 c 0.152344 0.796874 -0.367187 1.5625 -1.164062 1.714843 l -2.875 0.546875 c -0.792969 0.152344 -1.558594 -0.371094 -1.710938 -1.164062 l -0.457031 -2.394532 c -0.148437 -0.796874 0.371094 -1.5625 1.164063 -1.714843 z m 0 0"/><path d="m 41.925781 57.921875 l 2.875 -0.546875 c 0.792969 -0.152344 1.558594 0.371094 1.710938 1.164062 l 0.546875 2.875 c 0.152344 0.792969 -0.367188 1.558594 -1.164063 1.710938 l -2.875 0.546875 c -0.792969 0.152344 -1.558593 -0.367187 -1.710937 -1.164063 l -0.546875 -2.875 c -0.152344 -0.792968 0.367187 -1.558593 1.164062 -1.710937 z m 0 0"/><path fill="#36343d" d="m 41.925781 57.921875 l 2.875 -0.546875 c 0.792969 -0.152344 1.558594 0.371094 1.710938 1.164062 l 0.457031 2.394532 c 0.152344 0.792968 -0.371094 1.5625 -1.164062 1.710937 l -2.875 0.550781 c -0.792969 0.148438 -1.5625 -0.371093 -1.710938 -1.164062 l -0.457031 -2.398438 c -0.152344 -0.792968 0.367187 -1.558593 1.164062 -1.710937 z m 0 0"/><path d="m 48.632812 56.644531 l 2.875 -0.546875 c 0.796876 -0.152344 1.5625 0.367188 1.714844 1.164063 l 0.546875 2.875 c 0.152344 0.792969 -0.371093 1.558593 -1.164062 1.710937 l -2.875 0.546875 c -0.792969 0.152344 -1.5625 -0.371093 -1.710938 -1.164062 l -0.550781 -2.875 c -0.148438 -0.792969 0.371094 -1.558594 1.164062 -1.710938 z m 0 0"/><path fill="#36343d" d="m 48.632812 56.644531 l 2.875 -0.546875 c 0.796876 -0.152344 1.5625 0.367188 1.714844 1.164063 l 0.453125 2.394531 c 0.152344 0.792969 -0.367187 1.558594 -1.160156 1.710938 l -2.878906 0.546874 c -0.792969 0.152344 -1.558594 -0.367187 -1.710938 -1.164062 l -0.457031 -2.394531 c -0.148438 -0.792969 0.371094 -1.558594 1.164062 -1.710938 z m 0 0"/><path d="m 55.34375 55.367188 l 2.875 -0.550782 c 0.792969 -0.148437 1.558594 0.371094 1.710938 1.164063 l 0.546874 2.875 c 0.152344 0.796875 -0.367187 1.5625 -1.164062 1.714843 l -2.875 0.546876 c -0.792969 0.152343 -1.558594 -0.371094 -1.710938 -1.164063 l -0.546874 -2.875 c -0.152344 -0.792969 0.371093 -1.5625 1.164062 -1.710937 z m 0 0"/><path fill="#36343d" d="m 55.34375 55.367188 l 2.875 -0.550782 c 0.792969 -0.148437 1.558594 0.371094 1.710938 1.164063 l 0.457031 2.398437 c 0.152343 0.792969 -0.371094 1.558594 -1.164063 1.710938 l -2.875 0.546875 c -0.792968 0.152343 -1.558594 -0.371094 -1.710937 -1.164063 l -0.457031 -2.394531 c -0.152344 -0.792969 0.371093 -1.5625 1.164062 -1.710937 z m 0 0"/><path d="m 28.507812 60.480469 l 2.875 -0.550781 c 0.792969 -0.148438 1.558594 0.371093 1.710938 1.164062 l 0.546875 2.875 c 0.152344 0.796875 -0.367187 1.5625 -1.164063 1.714844 l -2.875 0.546875 c -0.792968 0.152343 -1.558593 -0.371094 -1.710937 -1.164063 l -0.546875 -2.875 c -0.152344 -0.792968 0.367188 -1.5625 1.164062 -1.710937 z m 0 0"/><path fill="#36343d" d="m 28.507812 60.480469 l 2.875 -0.550781 c 0.792969 -0.148438 1.558594 0.371093 1.710938 1.164062 l 0.457031 2.398438 c 0.152344 0.792968 -0.371093 1.558593 -1.164062 1.710937 l -2.875 0.546875 c -0.792969 0.152344 -1.5625 -0.371094 -1.710938 -1.164062 l -0.457031 -2.394532 c -0.152344 -0.792968 0.367188 -1.5625 1.164062 -1.710937 z m 0 0"/><path d="m 62.050781 54.085938 l 2.878907 -0.546876 c 0.792968 -0.152343 1.558593 0.371094 1.710937 1.164063 l 0.546875 2.875 c 0.152344 0.792969 -0.371094 1.5625 -1.164062 1.710937 l -2.875 0.550782 c -0.792969 0.148437 -1.5625 -0.371094 -1.710938 -1.164063 l -0.550781 -2.875 c -0.148438 -0.796875 0.371093 -1.5625 1.164062 -1.714843 z m 0 0"/><path fill="#36343d" d="m 62.050781 54.085938 l 2.878907 -0.546876 c 0.792968 -0.152343 1.558593 0.371094 1.710937 1.164063 l 0.457031 2.394531 c 0.148438 0.796875 -0.371094 1.5625 -1.164062 1.714844 l -2.875 0.546875 c -0.796875 0.152344 -1.5625 -0.371094 -1.714844 -1.164063 l -0.457031 -2.394531 c -0.148438 -0.796875 0.371093 -1.5625 1.164062 -1.714843 z m 0 0"/><path d="m 68.761719 52.808594 l 2.875 -0.546875 c 0.792969 -0.152344 1.558593 0.367187 1.710937 1.164062 l 0.546875 2.875 c 0.152344 0.792969 -0.367187 1.558594 -1.160156 1.710938 l -2.878906 0.546875 c -0.792969 0.152344 -1.558594 -0.367188 -1.710938 -1.164063 l -0.546875 -2.875 c -0.152344 -0.792969 0.371094 -1.558593 1.164063 -1.710937 z m 0 0"/><path fill="#36343d" d="m 68.761719 52.808594 l 2.875 -0.546875 c 0.792969 -0.152344 1.558593 0.367187 1.710937 1.164062 l 0.457032 2.394531 c 0.152343 0.792969 -0.371094 1.5625 -1.164063 1.710938 l -2.875 0.550781 c -0.792969 0.148438 -1.558594 -0.371093 -1.710937 -1.164062 l -0.457032 -2.398438 c -0.152344 -0.792969 0.371094 -1.558593 1.164063 -1.710937 z m 0 0"/><path d="m 71.316406 45.371094 l 2.875 -0.550782 c 0.796875 -0.148437 1.5625 0.371094 1.710938 1.164063 l 0.550781 2.875 c 0.148437 0.796875 -0.371094 1.5625 -1.164063 1.710937 l -2.875 0.550782 c -0.796874 0.148437 -1.5625 -0.371094 -1.714843 -1.164063 l -0.546875 -2.875 c -0.148438 -0.796875 0.371094 -1.5625 1.164062 -1.710937 z m 0 0"/><path fill="#36343d" d="m 71.316406 45.371094 l 2.875 -0.550782 c 0.796875 -0.148437 1.5625 0.371094 1.710938 1.164063 l 0.457031 2.398437 c 0.152344 0.792969 -0.367187 1.558594 -1.164063 1.710938 l -2.875 0.546875 c -0.792968 0.152344 -1.558593 -0.371094 -1.710937 -1.164063 l -0.457031 -2.394531 c -0.148438 -0.796875 0.371094 -1.5625 1.164062 -1.710937 z m 0 0"/><path d="m 74.636719 47.257812 l 0.019531 -0.003906 c 0.792969 -0.148437 1.558594 0.371094 1.710938 1.164063 l 1.445312 7.59375 c 0.152344 0.792969 -0.367188 1.558593 -1.160156 1.710937 l -0.019532 0.003906 c -0.796874 0.152344 -1.5625 -0.371093 -1.714843 -1.164062 l -1.445313 -7.59375 c -0.152344 -0.792969 0.371094 -1.558594 1.164063 -1.710938 z m 0 0"/><path fill="#36343d" d="m 74.550781 46.816406 l 0.019531 -0.003906 c 0.796876 -0.148438 1.5625 0.371094 1.714844 1.164062 l 1.445313 7.59375 c 0.152343 0.792969 -0.371094 1.558594 -1.164063 1.710938 l -0.019531 0.003906 c -0.792969 0.152344 -1.558594 -0.371094 -1.710937 -1.164062 l -1.445313 -7.59375 c -0.152344 -0.792969 0.367187 -1.558594 1.160156 -1.710938 z m 0 0"/><path d="m 29.785156 67.1875 l 6.710938 -1.277344 c 0.792968 -0.152344 1.558594 0.371094 1.710937 1.164063 l 0.546875 2.875 c 0.152344 0.792969 -0.371094 1.558593 -1.164062 1.710937 l -6.710938 1.277344 c -0.792968 0.152344 -1.558594 -0.367188 -1.710937 -1.164062 l -0.546875 -2.875 c -0.152344 -0.792969 0.371094 -1.558594 1.164062 -1.710938 z m 0 0"/><path fill="#36343d" d="m 29.785156 67.1875 l 6.707032 -1.277344 c 0.796874 -0.152344 1.5625 0.371094 1.714843 1.164063 l 0.457031 2.394531 c 0.148438 0.796875 -0.371093 1.5625 -1.164062 1.710938 l -6.710938 1.28125 c -0.792968 0.148437 -1.558593 -0.371094 -1.710937 -1.164063 l -0.457031 -2.398437 c -0.152344 -0.792969 0.371094 -1.558594 1.164062 -1.710938 z m 0 0"/><path d="m 40.328125 65.179688 l 2.875 -0.546876 c 0.792969 -0.152343 1.558594 0.367188 1.710937 1.164063 l 0.546876 2.875 c 0.152343 0.792969 -0.367188 1.558594 -1.160157 1.710937 l -2.878906 0.546876 c -0.792969 0.152343 -1.558594 -0.371094 -1.710937 -1.164063 l -0.546876 -2.875 c -0.152343 -0.792969 0.371094 -1.558594 1.164063 -1.710937 z m 0 0"/><path fill="#36343d" d="m 40.328125 65.179688 l 2.875 -0.546876 c 0.792969 -0.152343 1.558594 0.367188 1.710937 1.164063 l 0.457032 2.394531 c 0.152344 0.792969 -0.371094 1.558594 -1.164063 1.710938 l -2.875 0.546875 c -0.792969 0.152343 -1.558593 -0.367188 -1.710937 -1.160157 l -0.457032 -2.398437 c -0.152343 -0.792969 0.371094 -1.558594 1.164063 -1.710937 z m 0 0"/><path d="m 47.035156 63.902344 l 2.878906 -0.550782 c 0.792969 -0.148437 1.558594 0.371094 1.710938 1.164063 l 0.546875 2.875 c 0.152344 0.796875 -0.371094 1.5625 -1.164063 1.714844 l -2.875 0.546875 c -0.792968 0.152344 -1.558593 -0.371094 -1.710937 -1.164063 l -0.546875 -2.875 c -0.152344 -0.792969 0.367188 -1.5625 1.160156 -1.710937 z m 0 0"/><path fill="#36343d" d="m 47.035156 63.902344 l 2.878906 -0.550782 c 0.792969 -0.148437 1.558594 0.371094 1.710938 1.164063 l 0.457031 2.398437 c 0.148438 0.792969 -0.371093 1.558594 -1.164062 1.710938 l -2.875 0.546875 c -0.796875 0.152344 -1.5625 -0.367187 -1.714844 -1.164063 l -0.453125 -2.394531 c -0.152344 -0.792969 0.367188 -1.5625 1.160156 -1.710937 z m 0 0"/><path d="m 53.746094 62.621094 l 16.292968 -3.101563 c 0.792969 -0.152343 1.5625 0.367188 1.710938 1.164063 l 0.550781 2.875 c 0.148438 0.792968 -0.371093 1.558594 -1.164062 1.710937 l -16.292969 3.105469 c -0.796875 0.148438 -1.5625 -0.371094 -1.714844 -1.164062 l -0.546875 -2.875 c -0.152343 -0.796876 0.371094 -1.5625 1.164063 -1.714844 z m 0 0"/><path fill="#36343d" d="m 53.746094 62.621094 l 16.292968 -3.101563 c 0.792969 -0.152343 1.5625 0.367188 1.710938 1.164063 l 0.457031 2.394531 c 0.152344 0.792969 -0.367187 1.558594 -1.164062 1.710937 l -16.292969 3.105469 c -0.792969 0.152344 -1.558594 -0.371093 -1.710938 -1.164062 l -0.457031 -2.394531 c -0.152343 -0.796876 0.371094 -1.5625 1.164063 -1.714844 z m 0 0"/><path d="m 73.875 58.789062 l 2.875 -0.550781 c 0.792969 -0.148437 1.558594 0.371094 1.710938 1.164063 l 0.546874 2.875 c 0.152344 0.796875 -0.367187 1.5625 -1.164062 1.714844 l -2.875 0.546874 c -0.792969 0.152344 -1.558594 -0.371093 -1.710938 -1.164062 l -0.546874 -2.875 c -0.152344 -0.792969 0.367187 -1.5625 1.164062 -1.710938 z m 0 0"/><path fill="#36343d" d="m 73.875 58.789062 l 2.875 -0.550781 c 0.792969 -0.148437 1.558594 0.371094 1.710938 1.164063 l 0.457031 2.398437 c 0.152343 0.792969 -0.371094 1.558594 -1.164063 1.710938 l -2.875 0.546875 c -0.792968 0.152344 -1.5625 -0.371094 -1.710937 -1.164063 l -0.457031 -2.394531 c -0.152344 -0.792969 0.367187 -1.5625 1.164062 -1.710938 z m 0 0"/><path fill="#ff7800" d="m 63.847656 29.824219 c 0.53125 -0.101563 1.046875 0.246093 1.148438 0.78125 c 0.097656 0.53125 -0.25 1.042969 -0.78125 1.144531 s -1.046875 -0.246094 -1.148438 -0.777344 c -0.101562 -0.535156 0.25 -1.046875 0.78125 -1.148437 z m 0 0"/><path fill="#f6d32d" d="m 66.753906 29.269531 c 0.53125 -0.101562 1.046875 0.25 1.148438 0.78125 c 0.101562 0.53125 -0.25 1.042969 -0.78125 1.144531 c -0.53125 0.101563 -1.042969 -0.246093 -1.144532 -0.777343 c -0.101562 -0.53125 0.246094 -1.046875 0.777344 -1.148438 z m 0 0"/><path fill="#ff881e" d="m 62.25 32.707031 l -5.613281 6.671875 l 35.152343 29.574219 l 5.613282 -6.671875 z m 0 0"/><path fill="#e66100" d="m 58.011719 37.6875 l -2.105469 2.503906 l 35.152344 29.570313 l 2.105468 -2.503907 z m 0 0"/><path fill="#ffb367" d="m 60.816406 34.351562 l 2.105469 -2.503906 l 35.152344 29.574219 l -2.105469 2.5 z m 0 0"/><path fill="url(#e)" d="m 95.746094 59.460938 l -7.015625 8.339843 l 3.335937 2.808594 l 7.015625 -8.34375 z m 0 0"/><path fill="url(#f)" d="m 92.066406 70.609375 c 2.304688 1.9375 5.742188 1.640625 7.679688 -0.664063 c 1.9375 -2.300781 1.640625 -5.738281 -0.664063 -7.679687 c -2.300781 -1.9375 -5.738281 -1.640625 -7.679687 0.664063 c -1.9375 2.304687 -1.640625 5.742187 0.664062 7.679687 z m 0 0"/><path fill="url(#g)" d="m 53.546875 31.082031 l 2.390625 9.132813 l 7.015625 -8.339844 z m 0 0"/><path fill="#3d3846" d="m 53.539062 31.125 l 1.203126 4.523438 l 3.5 -4.121094 z m 0 0"/><path fill="url(#h)" d="m 94.078125 58.058594 l -7.015625 8.339844 l 3.335938 2.804687 l 7.015624 -8.339844 z m 0 0"/><path fill="url(#j)" d="m 74.054688 63.347656 c -1.992188 -0.074218 -3.957032 0.488282 -5.609376 1.601563 l -18.277343 12.300781 c -1.6875 1.140625 -2.960938 2.792969 -3.628907 4.714844 h 30.441407 l 2.007812 -1.351563 c 4.324219 -2.910156 5.46875 -8.777343 2.558594 -13.101562 c -1.6875 -2.507813 -4.472656 -4.054688 -7.492187 -4.164063 z m 0 0"/><path fill="url(#k)" d="m 68.445312 64.949219 c 4.324219 -2.910157 10.191407 -1.765625 13.101563 2.5625 c 2.914063 4.324219 1.765625 10.191406 -2.558594 13.101562 c -4.324219 2.914063 -10.191406 1.765625 -13.105469 -2.558593 c -2.910156 -4.328126 -1.765624 -10.191407 2.5625 -13.105469 z m 0 0"/><path fill="url(#l)" d="m 74.984375 63.394531 c 3.242187 -2.183593 7.644531 -1.324219 9.828125 1.917969 c 2.183594 3.246094 1.324219 7.644531 -1.921875 9.828125 c -3.242187 2.183594 -7.644531 1.324219 -9.828125 -1.917969 c -2.183594 -3.246094 -1.324219 -7.644531 1.921875 -9.828125 z m 0 0"/><path fill="#a51d2d" d="m 76.941406 62.074219 c 3.246094 -2.183594 7.644532 -1.324219 9.828125 1.921875 c 2.183594 3.242187 1.324219 7.644531 -1.917969 9.828125 c -3.246093 2.183593 -7.644531 1.324219 -9.828124 -1.921875 c -2.183594 -3.242188 -1.324219 -7.644532 1.917968 -9.828125 z m 0 0"/><path fill="#c0bfbc" d="m 99.238281 50.160156 l 7.394531 -2.5 c 0.210938 -0.070312 0.445313 0.007813 0.570313 0.191406 l 2.210937 3.289063 c 0.125 0.1875 0.113282 0.433594 -0.035156 0.601563 l -5.097656 5.910156 c -0.125 0.140625 -0.304688 0.214844 -0.492188 0.207031 c -0.1875 -0.011719 -0.359374 -0.109375 -0.464843 -0.265625 l -4.390625 -6.527344 c -0.105469 -0.15625 -0.132813 -0.351562 -0.070313 -0.527344 c 0.058594 -0.179687 0.199219 -0.316406 0.375 -0.378906 z m 0 0"/><path fill="url(#m)" d="m 99.371094 51.71875 l -19.578125 13.179688 c -1.445313 0.972656 -1.824219 2.925781 -0.855469 4.367187 c 0.972656 1.445313 2.925781 1.824219 4.367188 0.855469 l 19.582031 -13.179688 c 1.441406 -0.972656 1.824219 -2.925781 0.851562 -4.367187 c -0.96875 -1.441407 -2.925781 -1.824219 -4.367187 -0.855469 z m 0 0"/><path fill="#deddda" d="m 98.59375 50.621094 l 6.730469 -2.089844 c 0.214843 -0.066406 0.445312 0.015625 0.574219 0.199219 l 2.210937 3.289062 c 0.125 0.1875 0.113281 0.433594 -0.027344 0.605469 l -4.46875 5.453125 c -0.121093 0.140625 -0.296875 0.222656 -0.480469 0.210937 c -0.1875 -0.007812 -0.355468 -0.101562 -0.460937 -0.257812 l -4.390625 -6.523438 c -0.105469 -0.15625 -0.128906 -0.347656 -0.066406 -0.523437 c 0.058594 -0.175781 0.199218 -0.308594 0.378906 -0.363281 z m 0 0"/><g clip-path="url(#n)"><g clip-path="url(#o)"><path fill="#c01c28" d="m 59.964844 67.511719 c -0.609375 -0.003907 -1.21875 0.171875 -1.761719 0.539062 l -28.066406 18.890625 c -1.449219 0.972656 -1.828125 2.921875 -0.851563 4.367188 c 0.972656 1.445312 2.917969 1.828125 4.363282 0.855468 l 11.757812 -7.914062 v -2.285156 h 3.394531 l 12.914063 -8.691406 c 1.449218 -0.972657 1.828125 -2.921876 0.855468 -4.367188 c -0.609374 -0.90625 -1.597656 -1.394531 -2.605468 -1.394531 z m 1.355468 10.46875 c -0.605468 0 -1.21875 0.175781 -1.761718 0.539062 l -5.121094 3.445313 h 9.910156 c 0.238282 -0.851563 0.113282 -1.796875 -0.421875 -2.59375 c -0.609375 -0.902344 -1.597656 -1.390625 -2.605469 -1.390625 z m -15.914062 10.066406 l -13.914062 9.363281 c -1.445313 0.972656 -1.824219 2.921875 -0.851563 4.367188 c 0.972656 1.449218 2.921875 1.828125 4.367187 0.855468 l 10.398438 -7 z m 14.53125 9.183594 l -11.441406 0.113281 l -7.816406 5.261719 c -1.445313 0.972656 -1.824219 2.921875 -0.851563 4.367187 c 0.972656 1.449219 2.917969 1.828125 4.367187 0.855469 z m 0 0"/></g></g><g clip-path="url(#y)" mask="url(#u)"><g clip-path="url(#x)" mask="url(#v)"><path fill="url(#w)" d="m 128 80.640625 v 47.359375 h -128 v -47.359375 z m 0 0"/><path d="m 13.308594 80.640625 l 47.355468 47.359375 h 21.214844 l -47.359375 -47.359375 z m 42.421875 0 l 47.363281 47.359375 h 21.214844 l -47.363282 -47.359375 z m 42.429687 0 l 29.839844 29.839844 v -21.210938 l -8.628906 -8.628906 z m -98.160156 7.90625 v 21.214844 l 18.238281 18.238281 h 21.214844 z m 0 0"/></g></g></svg>