<?xml version="1.0" encoding="UTF-8"?>
<svg height="128px" viewBox="0 0 128 128" width="128px" xmlns="http://www.w3.org/2000/svg" xmlns:xlink="http://www.w3.org/1999/xlink">
    <linearGradient id="a" gradientUnits="userSpaceOnUse" x1="12.000015" x2="116.000015" y1="124.035328" y2="124.035328">
        <stop offset="0" stop-color="#1a5fb4"/>
        <stop offset="0.04" stop-color="#5f9ce8"/>
        <stop offset="0.08" stop-color="#3582e3"/>
        <stop offset="0.92" stop-color="#3483e3"/>
        <stop offset="0.96" stop-color="#609ee8"/>
        <stop offset="1" stop-color="#1a5fb5"/>
    </linearGradient>
    <linearGradient id="b" gradientUnits="userSpaceOnUse" x1="18.000023" x2="110.000031" y1="50.035328" y2="50.035328">
        <stop offset="0" stop-color="#1a5fb4"/>
        <stop offset="0.0834497" stop-color="#3584e4"/>
        <stop offset="0.338668" stop-color="#468de6"/>
        <stop offset="0.661298" stop-color="#468de6"/>
        <stop offset="0.919584" stop-color="#3584e4"/>
        <stop offset="1" stop-color="#3584e4"/>
    </linearGradient>
    <linearGradient id="c" gradientUnits="userSpaceOnUse">
        <stop offset="0" stop-color="#c01c28"/>
        <stop offset="0.5" stop-color="#ed333b"/>
        <stop offset="1" stop-color="#e01b24"/>
    </linearGradient>
    <linearGradient id="d" gradientTransform="matrix(1.197118 -0.805795 0.805795 1.197118 -145.014605 -177.753234)" x1="23" x2="23" xlink:href="#c" y1="238" y2="222"/>
    <radialGradient id="e" cx="28" cy="229.944962" gradientTransform="matrix(-0.626729 -0.931092 0.931092 -0.626729 -113.935118 239.296363)" gradientUnits="userSpaceOnUse" r="12">
        <stop offset="0" stop-color="#a51d2d"/>
        <stop offset="0.7" stop-color="#b21c2a" stop-opacity="0.72549"/>
        <stop offset="1" stop-color="#c01c28" stop-opacity="0"/>
    </radialGradient>
    <linearGradient id="f" gradientTransform="matrix(-0.402897 -0.598559 0.598559 -0.402897 -40.977825 176.658416)" x1="16" x2="40" xlink:href="#c" y1="232" y2="232"/>
    <linearGradient id="g" gradientTransform="matrix(-0.947719 0.637921 1.074393 1.596158 -92.267892 -346.62)" gradientUnits="userSpaceOnUse" x1="46" x2="46" y1="232" y2="228">
        <stop offset="0" stop-color="#9a9996"/>
        <stop offset="0.5" stop-color="#ffffff"/>
        <stop offset="1" stop-color="#c0bfbc"/>
    </linearGradient>
    <clipPath id="h">
        <path d="m 46 64 h 23 v 34 h -23 z m 0 0"/>
    </clipPath>
    <clipPath id="i">
        <path d="m 48.300781 92.210938 c 3.558594 5.289062 10.730469 6.691406 16.023438 3.132812 l 17.554687 -11.820312 c 1.765625 -1.1875 2.230469 -3.578126 1.042969 -5.339844 c -0.589844 -0.882813 -0.359375 -2.078125 0.523437 -2.671875 l 5.585938 -3.757813 c 0.882812 -0.59375 2.078125 -0.363281 2.671875 0.519532 c 1.1875 1.761718 3.578125 2.230468 5.339844 1.042968 l 1.597656 -1.074218 l -12.894531 -19.152344 l -1.59375 1.074218 c -1.765625 1.1875 -2.230469 3.578126 -1.046875 5.339844 c 0.59375 0.882813 0.363281 2.078125 -0.519531 2.671875 l -5.585938 3.761719 c -0.882812 0.589844 -2.078125 0.359375 -2.671875 -0.523438 c -1.1875 -1.761718 -3.578125 -2.230468 -5.339844 -1.042968 l -17.558593 11.816406 c -5.289063 3.5625 -6.691407 10.734375 -3.128907 16.023438 z m 0 0"/>
    </clipPath>
    <path d="m 20 12.035156 h 88 c 4.417969 0 8 3.582032 8 8 v 88 c 0 4.417969 -3.582031 8 -8 8 h -88 c -4.417969 0 -8 -3.582031 -8 -8 v -88 c 0 -4.417968 3.582031 -8 8 -8 z m 0 0" fill="url(#a)"/>
    <path d="m 20 12.035156 h 88 c 4.417969 0 8 3.582032 8 8 v 60 c 0 4.417969 -3.582031 8 -8 8 h -88 c -4.417969 0 -8 -3.582031 -8 -8 v -60 c 0 -4.417968 3.582031 -8 8 -8 z m 0 0" fill="#1c71d8"/>
    <path d="m 20 18.035156 h 88 c 1.105469 0 2 0.894532 2 2 v 60 c 0 1.105469 -0.894531 2 -2 2 h -88 c -1.105469 0 -2 -0.894531 -2 -2 v -60 c 0 -1.105468 0.894531 -2 2 -2 z m 0 0" fill="url(#b)"/>
    <path d="m 20 42.039062 h 88 c 1.105469 0 2 0.894532 2 2 v 36 c 0 1.105469 -0.894531 2 -2 2 h -88 c -1.105469 0 -2 -0.894531 -2 -2 v -36 c 0 -1.105468 0.894531 -2 2 -2 z m 0 0" fill="#1a5fb4"/>
    <g fill="#0e315b" stroke="#0e315b" stroke-width="0.2">
        <path d="m 61.0625 112.257812 c 1.136719 -0.03125 2.109375 -0.824218 2.371094 -1.929687 l 4.34375 -16.332031 c 0.140625 -0.535157 0.027344 -1.101563 -0.308594 -1.542969 c -0.339843 -0.4375 -0.859375 -0.691406 -1.410156 -0.691406 c -1.066406 0.027343 -1.972656 0.777343 -2.203125 1.8125 l -4.25 16.808593 c -0.113281 0.449219 -0.015625 0.925782 0.269531 1.292969 c 0.285157 0.367188 0.722657 0.582031 1.1875 0.582031 z m 0 0"/>
        <path d="m 71.242188 107.738281 l 6.21875 -3.125 c 0.972656 -0.488281 1.589844 -1.484375 1.589844 -2.574219 c 0 -1.003906 -0.554688 -1.925781 -1.441407 -2.398437 l -6.277343 -3.339844 c -0.578125 -0.308594 -1.277344 -0.289062 -1.839844 0.050781 c -0.5625 0.335938 -0.90625 0.945313 -0.90625 1.601563 v 0.007812 c 0 0.851563 0.480469 1.628907 1.246094 2.007813 l 4.5625 2.261719 l -4.738282 2.195312 c -0.652343 0.300781 -1.070312 0.953125 -1.070312 1.675781 c 0 0.632813 0.328125 1.226563 0.871094 1.558594 c 0.539062 0.335938 1.214843 0.363281 1.785156 0.078125 z m 0 0"/>
        <path d="m 56.152344 107.738281 l -6.21875 -3.125 c -0.972656 -0.488281 -1.585937 -1.484375 -1.585937 -2.574219 c 0 -1.003906 0.550781 -1.925781 1.4375 -2.398437 l 6.277343 -3.339844 c 0.578125 -0.308594 1.277344 -0.289062 1.839844 0.050781 c 0.5625 0.335938 0.90625 0.945313 0.90625 1.601563 v 0.007812 c 0 0.851563 -0.480469 1.628907 -1.246094 2.007813 l -4.558593 2.261719 l 4.734375 2.195312 c 0.652343 0.300781 1.070312 0.953125 1.070312 1.675781 c 0 0.632813 -0.328125 1.226563 -0.871094 1.558594 c -0.539062 0.335938 -1.214843 0.363281 -1.785156 0.078125 z m 0 0"/>
    </g>
    <path d="m 18 31.851562 v -11.632812 c -1.953125 1.339844 -3.117188 3.503906 -3.121094 5.816406 c 0.003906 2.3125 1.167969 4.476563 3.121094 5.816406 z m 0 0" fill="#1b5baf"/>
    <path d="m 90.4375 12.035156 h -33.273438 c -3.210937 1.550782 -4.972656 3.503906 -4.984374 5.523438 c 0.019531 0.160156 0.046874 0.316406 0.085937 0.476562 h 43.039063 c 0.039062 -0.160156 0.070312 -0.316406 0.085937 -0.476562 c 0 -2.015625 -1.753906 -3.96875 -4.953125 -5.523438 z m 0 0" fill="#1b5baf"/>
    <path d="m 48.585938 72.871094 c 0 3.625 -5.804688 6.566406 -12.96875 6.566406 c -7.164063 0 -12.96875 -2.941406 -12.96875 -6.566406 c 0 -3.628906 5.804687 -6.566406 12.96875 -6.566406 c 7.164062 0 12.96875 2.9375 12.96875 6.566406 z m 0 0" fill="#15498c"/>
    <path d="m 21.886719 24.867188 l 62.878906 -11.84375 c 2.894531 -0.546876 5.671875 1.074218 6.207031 3.621093 l 8.726563 41.496094 c 0.535156 2.546875 -1.378907 5.054687 -4.273438 5.597656 l -62.875 11.84375 c -2.894531 0.546875 -5.675781 -1.074219 -6.210937 -3.621093 l -8.722656 -41.496094 c -0.535157 -2.546875 1.375 -5.054688 4.269531 -5.597656 z m 0 0" fill="#5e5c64"/>
    <path d="m 21.109375 21.15625 l 62.875 -11.84375 c 2.894531 -0.546875 5.683594 1.125 6.234375 3.734375 l 8.933594 42.507813 c 0.550781 2.609374 -1.351563 5.164062 -4.246094 5.710937 l -62.878906 11.84375 c -2.890625 0.546875 -5.683594 -1.128906 -6.230469 -3.734375 l -8.9375 -42.507812 c -0.546875 -2.609376 1.355469 -5.167969 4.25 -5.710938 z m 0 0" fill="#9a9996"/>
    <path d="m 22.871094 32.398438 l 3.773437 -0.710938 c 1.128907 -0.214844 2.160157 0.167969 2.304688 0.851562 c 0.140625 0.683594 -0.65625 1.410157 -1.785157 1.621094 l -3.769531 0.710938 c -1.132812 0.210937 -2.164062 -0.167969 -2.304687 -0.851563 c -0.144532 -0.683593 0.652344 -1.410156 1.78125 -1.621093 z m 0 0"/>
    <path d="m 22.53125 31.175781 l 3.929688 -0.742187 c 1.085937 -0.203125 2.113281 0.324218 2.292968 1.175781 c 0.179688 0.855469 -0.554687 1.714844 -1.640625 1.917969 l -3.929687 0.738281 c -1.085938 0.207031 -2.109375 -0.320313 -2.289063 -1.175781 c -0.179687 -0.851563 0.554688 -1.710938 1.636719 -1.914063 z m 0 0" fill="#36343d"/>
    <path d="m 31.960938 30.683594 l 3.929687 -0.738282 c 1.085937 -0.207031 2.082031 0.183594 2.226563 0.867188 c 0.144531 0.683594 -0.621094 1.402344 -1.703126 1.605469 l -3.929687 0.742187 c -1.085937 0.203125 -2.082031 -0.183594 -2.226563 -0.867187 c -0.144531 -0.683594 0.621094 -1.402344 1.703126 -1.609375 z m 0 0"/>
    <path d="m 31.703125 29.449219 l 3.929687 -0.742188 c 1.085938 -0.203125 2.109376 0.324219 2.289063 1.175781 c 0.179687 0.855469 -0.554687 1.710938 -1.640625 1.917969 l -3.929688 0.738281 c -1.085937 0.207032 -2.109374 -0.320312 -2.289062 -1.175781 c -0.179688 -0.851562 0.554688 -1.710937 1.640625 -1.914062 z m 0 0" fill="#36343d"/>
    <path d="m 41.132812 28.957031 l 3.929688 -0.738281 c 1.085938 -0.207031 2.082031 0.183594 2.226562 0.863281 c 0.140626 0.683594 -0.621093 1.40625 -1.707031 1.609375 l -3.929687 0.738282 c -1.085938 0.207031 -2.082032 -0.183594 -2.226563 -0.867188 c -0.140625 -0.679688 0.621094 -1.402344 1.707031 -1.605469 z m 0 0"/>
    <path d="m 40.871094 27.71875 l 3.929687 -0.738281 c 1.085938 -0.203125 2.113281 0.320312 2.292969 1.175781 s -0.554688 1.710938 -1.640625 1.917969 l -3.929687 0.738281 c -1.085938 0.203125 -2.113282 -0.320312 -2.292969 -1.175781 c -0.175781 -0.855469 0.554687 -1.710938 1.640625 -1.917969 z m 0 0" fill="#36343d"/>
    <path d="m 50.300781 27.230469 l 3.929688 -0.742188 c 1.085937 -0.203125 2.082031 0.183594 2.226562 0.867188 c 0.144531 0.683593 -0.621093 1.402343 -1.707031 1.609375 l -3.929688 0.738281 c -1.082031 0.207031 -2.078124 -0.183594 -2.222656 -0.867187 c -0.144531 -0.683594 0.621094 -1.402344 1.703125 -1.605469 z m 0 0"/>
    <path d="m 50.042969 25.992188 l 3.929687 -0.738282 c 1.085938 -0.207031 2.109375 0.320313 2.289063 1.175782 c 0.179687 0.851562 -0.554688 1.710937 -1.640625 1.914062 l -3.929688 0.742188 c -1.085937 0.203124 -2.109375 -0.324219 -2.289062 -1.175782 c -0.179688 -0.855468 0.554687 -1.710937 1.640625 -1.917968 z m 0 0" fill="#36343d"/>
    <path d="m 59.472656 25.503906 l 3.929688 -0.742187 c 1.085937 -0.203125 2.082031 0.183593 2.222656 0.867187 c 0.144531 0.683594 -0.617188 1.402344 -1.703125 1.609375 l -3.929687 0.738281 c -1.085938 0.203126 -2.082032 -0.183593 -2.226563 -0.867187 c -0.140625 -0.683594 0.621094 -1.402344 1.707031 -1.605469 z m 0 0"/>
    <path d="m 59.210938 24.265625 l 3.929687 -0.738281 c 1.085937 -0.207032 2.113281 0.320312 2.289063 1.175781 c 0.179687 0.851563 -0.554688 1.710937 -1.636719 1.914063 l -3.929688 0.742187 c -1.085937 0.203125 -2.113281 -0.324219 -2.292969 -1.175781 c -0.179687 -0.855469 0.554688 -1.714844 1.640626 -1.917969 z m 0 0" fill="#36343d"/>
    <path d="m 73.882812 22.789062 l 3.929688 -0.742187 c 1.082031 -0.203125 2.078125 0.183594 2.222656 0.867187 c 0.144532 0.683594 -0.617187 1.402344 -1.703125 1.609376 l -3.929687 0.738281 c -1.085938 0.207031 -2.082032 -0.183594 -2.226563 -0.867188 c -0.144531 -0.683593 0.621094 -1.402343 1.707031 -1.605469 z m 0 0"/>
    <path d="m 73.621094 21.550781 l 3.929687 -0.738281 c 1.085938 -0.207031 2.109375 0.320312 2.289063 1.175781 c 0.179687 0.851563 -0.554688 1.710938 -1.640625 1.914063 l -3.929688 0.742187 c -1.082031 0.203125 -2.109375 -0.324219 -2.289062 -1.175781 c -0.179688 -0.855469 0.554687 -1.710938 1.640625 -1.917969 z m 0 0" fill="#36343d"/>
    <path d="m 83.050781 21.0625 l 3.929688 -0.742188 c 1.085937 -0.203124 2.082031 0.183594 2.226562 0.867188 c 0.140625 0.683594 -0.621093 1.402344 -1.707031 1.609375 l -3.929688 0.738281 c -1.085937 0.203125 -2.082031 -0.183594 -2.222656 -0.867187 c -0.144531 -0.683594 0.617188 -1.402344 1.703125 -1.605469 z m 0 0"/>
    <path d="m 82.789062 19.824219 l 3.933594 -0.738281 c 1.082032 -0.207032 2.109375 0.320312 2.289063 1.175781 c 0.179687 0.851562 -0.554688 1.710937 -1.640625 1.914062 l -3.929688 0.742188 c -1.085937 0.203125 -2.109375 -0.324219 -2.289062 -1.175781 c -0.179688 -0.855469 0.554687 -1.714844 1.636718 -1.917969 z m 0 0" fill="#36343d"/>
    <path d="m 32.996094 35.597656 l 3.929687 -0.742187 c 1.085938 -0.203125 2.140625 0.460937 2.355469 1.484375 l 0.777344 3.710937 c 0.21875 1.027344 -0.488282 2.023438 -1.574219 2.226563 l -3.929687 0.742187 c -1.085938 0.203125 -2.140626 -0.460937 -2.355469 -1.488281 l -0.777344 -3.710938 c -0.21875 -1.023437 0.488281 -2.019531 1.574219 -2.222656 z m 0 0"/>
    <path d="m 32.996094 35.597656 l 3.929687 -0.742187 c 1.085938 -0.203125 2.140625 0.460937 2.355469 1.484375 l 0.648438 3.09375 c 0.214843 1.023437 -0.488282 2.023437 -1.574219 2.226562 l -3.929688 0.738282 c -1.085937 0.207031 -2.140625 -0.460938 -2.355469 -1.484376 l -0.648437 -3.09375 c -0.21875 -1.023437 0.488281 -2.019531 1.574219 -2.222656 z m 0 0" fill="#36343d"/>
    <path d="m 42.164062 33.867188 l 3.929688 -0.738282 c 1.085938 -0.203125 2.140625 0.460938 2.355469 1.484375 l 0.78125 3.710938 c 0.214843 1.027343 -0.492188 2.023437 -1.574219 2.226562 l -3.929688 0.742188 c -1.085937 0.203125 -2.140624 -0.460938 -2.355468 -1.488281 l -0.78125 -3.710938 c -0.214844 -1.023438 0.488281 -2.019531 1.574218 -2.226562 z m 0 0"/>
    <path d="m 42.164062 33.867188 l 3.929688 -0.738282 c 1.085938 -0.203125 2.140625 0.460938 2.355469 1.484375 l 0.652343 3.09375 c 0.214844 1.023438 -0.492187 2.019531 -1.578124 2.226563 l -3.929688 0.738281 c -1.082031 0.207031 -2.136719 -0.460937 -2.355469 -1.484375 l -0.648437 -3.09375 c -0.214844 -1.023438 0.488281 -2.019531 1.574218 -2.226562 z m 0 0" fill="#36343d"/>
    <path d="m 51.335938 32.140625 l 3.929687 -0.738281 c 1.082031 -0.207032 2.136719 0.460937 2.355469 1.484375 l 0.777344 3.710937 c 0.214843 1.023438 -0.488282 2.023438 -1.574219 2.226563 l -3.929688 0.738281 c -1.085937 0.207031 -2.140625 -0.460938 -2.355469 -1.484375 l -0.78125 -3.710937 c -0.214843 -1.023438 0.492188 -2.019532 1.578126 -2.226563 z m 0 0"/>
    <path d="m 51.335938 32.140625 l 3.929687 -0.738281 c 1.082031 -0.207032 2.136719 0.460937 2.355469 1.484375 l 0.648437 3.09375 c 0.214844 1.023437 -0.488281 2.019531 -1.574219 2.226562 l -3.929687 0.738281 c -1.085937 0.203126 -2.140625 -0.460937 -2.355469 -1.484374 l -0.652344 -3.09375 c -0.214843 -1.023438 0.492188 -2.019532 1.578126 -2.226563 z m 0 0" fill="#36343d"/>
    <path d="m 60.503906 30.414062 l 3.929688 -0.738281 c 1.085937 -0.207031 2.140625 0.460938 2.355468 1.484375 l 0.78125 3.710938 c 0.214844 1.023437 -0.492187 2.019531 -1.574218 2.226562 l -3.933594 0.738282 c -1.082031 0.207031 -2.136719 -0.460938 -2.351562 -1.484376 l -0.78125 -3.710937 c -0.214844 -1.023437 0.488281 -2.023437 1.574218 -2.226563 z m 0 0"/>
    <path d="m 60.503906 30.414062 l 3.929688 -0.738281 c 1.085937 -0.207031 2.140625 0.460938 2.355468 1.484375 l 0.648438 3.09375 c 0.21875 1.023438 -0.488281 2.019532 -1.574219 2.222656 l -3.929687 0.742188 c -1.085938 0.203125 -2.140625 -0.460938 -2.355469 -1.484375 l -0.648437 -3.09375 c -0.214844 -1.023437 0.488281 -2.023437 1.574218 -2.226563 z m 0 0" fill="#36343d"/>
    <path d="m 23.824219 37.324219 l 3.929687 -0.742188 c 1.085938 -0.203125 2.140625 0.460938 2.355469 1.488281 l 0.78125 3.710938 c 0.214844 1.023438 -0.488281 2.019531 -1.574219 2.222656 l -3.929687 0.742188 c -1.085938 0.203125 -2.140625 -0.460938 -2.355469 -1.484375 l -0.78125 -3.710938 c -0.214844 -1.027343 0.492188 -2.023437 1.574219 -2.226562 z m 0 0"/>
    <path d="m 23.824219 37.324219 l 3.929687 -0.742188 c 1.085938 -0.203125 2.140625 0.460938 2.355469 1.488281 l 0.652344 3.089844 c 0.214843 1.027344 -0.492188 2.023438 -1.578125 2.226563 l -3.929688 0.742187 c -1.082031 0.203125 -2.136718 -0.460937 -2.351562 -1.488281 l -0.652344 -3.089844 c -0.214844 -1.027343 0.492188 -2.023437 1.574219 -2.226562 z m 0 0" fill="#36343d"/>
    <path d="m 69.675781 28.6875 l 3.929688 -0.742188 c 1.082031 -0.203124 2.136719 0.460938 2.351562 1.488282 l 0.78125 3.710937 c 0.214844 1.023438 -0.488281 2.019531 -1.574219 2.222657 l -3.929687 0.742187 c -1.085937 0.203125 -2.140625 -0.460937 -2.355469 -1.484375 l -0.78125 -3.710938 c -0.214844 -1.027343 0.492188 -2.023437 1.578125 -2.226562 z m 0 0"/>
    <path d="m 69.675781 28.6875 l 3.929688 -0.742188 c 1.082031 -0.203124 2.136719 0.460938 2.351562 1.488282 l 0.652344 3.089844 c 0.214844 1.027343 -0.488281 2.023437 -1.574219 2.226562 l -3.929687 0.742188 c -1.085938 0.203124 -2.140625 -0.460938 -2.355469 -1.488282 l -0.652344 -3.089844 c -0.214844 -1.027343 0.492188 -2.023437 1.578125 -2.226562 z m 0 0" fill="#36343d"/>
    <path d="m 78.84375 26.960938 l 9.167969 -1.726563 c 1.085937 -0.207031 2.140625 0.460937 2.355469 1.484375 l 0.78125 3.710938 c 0.214843 1.023437 -0.488282 2.019531 -1.574219 2.226562 l -9.171875 1.726562 c -1.082032 0.203126 -2.136719 -0.460937 -2.355469 -1.484374 l -0.777344 -3.710938 c -0.214843 -1.027344 0.488281 -2.023438 1.574219 -2.226562 z m 0 0"/>
    <path d="m 78.84375 26.960938 l 9.167969 -1.726563 c 1.085937 -0.207031 2.140625 0.460937 2.355469 1.484375 l 0.652343 3.09375 c 0.214844 1.023438 -0.492187 2.019531 -1.574219 2.222656 l -9.171874 1.726563 c -1.085938 0.207031 -2.140626 -0.457031 -2.355469 -1.484375 l -0.648438 -3.089844 c -0.214843 -1.027344 0.488281 -2.023438 1.574219 -2.226562 z m 0 0" fill="#36343d"/>
    <path d="m 25.652344 46.019531 l 9.171875 -1.726562 c 1.085937 -0.207031 2.136719 0.460937 2.355469 1.484375 l 0.777343 3.710937 c 0.214844 1.023438 -0.488281 2.019531 -1.574219 2.226563 l -9.167968 1.726562 c -1.085938 0.203125 -2.140625 -0.460937 -2.355469 -1.484375 l -0.78125 -3.710937 c -0.214844 -1.027344 0.488281 -2.023438 1.574219 -2.226563 z m 0 0"/>
    <path d="m 25.652344 46.019531 l 9.171875 -1.726562 c 1.082031 -0.207031 2.136719 0.460937 2.355469 1.484375 l 0.648437 3.09375 c 0.214844 1.023437 -0.488281 2.019531 -1.574219 2.222656 l -9.171875 1.730469 c -1.082031 0.203125 -2.136719 -0.460938 -2.355469 -1.488281 l -0.648437 -3.089844 c -0.214844 -1.027344 0.488281 -2.023438 1.574219 -2.226563 z m 0 0" fill="#36343d"/>
    <path d="m 40.0625 43.304688 l 3.929688 -0.742188 c 1.085937 -0.203125 2.140624 0.460938 2.355468 1.488281 l 0.78125 3.710938 c 0.214844 1.023437 -0.492187 2.019531 -1.574218 2.226562 l -3.933594 0.738281 c -1.082032 0.203126 -2.136719 -0.460937 -2.351563 -1.484374 l -0.78125 -3.710938 c -0.214843 -1.027344 0.488281 -2.023438 1.574219 -2.226562 z m 0 0"/>
    <path d="m 40.0625 43.304688 l 3.929688 -0.742188 c 1.085937 -0.203125 2.140624 0.460938 2.355468 1.488281 l 0.648438 3.089844 c 0.21875 1.027344 -0.488282 2.023437 -1.574219 2.226563 l -3.929687 0.742187 c -1.085938 0.203125 -2.140626 -0.460937 -2.355469 -1.488281 l -0.648438 -3.089844 c -0.214843 -1.027344 0.488281 -2.023438 1.574219 -2.226562 z m 0 0" fill="#36343d"/>
    <path d="m 49.234375 41.578125 l 3.929687 -0.742187 c 1.082032 -0.203126 2.136719 0.460937 2.351563 1.488281 l 0.78125 3.710937 c 0.214844 1.023438 -0.488281 2.019532 -1.574219 2.222656 l -3.929687 0.742188 c -1.085938 0.203125 -2.140625 -0.460938 -2.355469 -1.484375 l -0.78125 -3.710937 c -0.214844 -1.027344 0.492188 -2.023438 1.578125 -2.226563 z m 0 0"/>
    <path d="m 49.234375 41.578125 l 3.929687 -0.742187 c 1.082032 -0.203126 2.136719 0.460937 2.351563 1.488281 l 0.652344 3.089843 c 0.214843 1.027344 -0.488281 2.023438 -1.574219 2.226563 l -3.929688 0.742187 c -1.085937 0.203126 -2.140624 -0.460937 -2.355468 -1.488281 l -0.652344 -3.089843 c -0.214844 -1.027344 0.492188 -2.023438 1.578125 -2.226563 z m 0 0" fill="#36343d"/>
    <path d="m 58.402344 39.851562 l 3.929687 -0.742187 c 1.085938 -0.203125 2.140625 0.460937 2.355469 1.484375 l 0.78125 3.710938 c 0.214844 1.027343 -0.492188 2.023437 -1.578125 2.226562 l -3.929687 0.742188 c -1.082032 0.203124 -2.136719 -0.460938 -2.355469 -1.488282 l -0.777344 -3.710937 c -0.214844 -1.023438 0.488281 -2.019531 1.574219 -2.222657 z m 0 0"/>
    <path d="m 58.402344 39.851562 l 3.929687 -0.742187 c 1.085938 -0.203125 2.140625 0.460937 2.355469 1.484375 l 0.648438 3.09375 c 0.214843 1.023438 -0.488282 2.023438 -1.574219 2.226562 l -3.929688 0.738282 c -1.085937 0.207031 -2.140625 -0.460938 -2.355469 -1.484375 l -0.648437 -3.09375 c -0.214844 -1.023438 0.488281 -2.019531 1.574219 -2.222657 z m 0 0" fill="#36343d"/>
    <path d="m 67.570312 38.121094 l 3.929688 -0.738282 c 1.085938 -0.203124 2.140625 0.460938 2.355469 1.484376 l 0.78125 3.710937 c 0.214843 1.027344 -0.488281 2.023437 -1.574219 2.226563 l -3.929688 0.742187 c -1.085937 0.203125 -2.140624 -0.460937 -2.355468 -1.488281 l -0.78125 -3.710938 c -0.214844 -1.023437 0.492187 -2.019531 1.574218 -2.226562 z m 0 0"/>
    <path d="m 67.570312 38.121094 l 3.929688 -0.738282 c 1.085938 -0.203124 2.140625 0.460938 2.355469 1.484376 l 0.652343 3.09375 c 0.214844 1.023437 -0.492187 2.019531 -1.574218 2.226562 l -3.929688 0.738281 c -1.085937 0.203125 -2.140625 -0.460937 -2.355468 -1.484375 l -0.652344 -3.09375 c -0.214844 -1.023437 0.492187 -2.019531 1.574218 -2.226562 z m 0 0" fill="#36343d"/>
    <path d="m 76.742188 36.394531 l 3.929687 -0.738281 c 1.085937 -0.207031 2.140625 0.460938 2.355469 1.484375 l 0.777344 3.710937 c 0.21875 1.023438 -0.488282 2.019532 -1.574219 2.226563 l -3.929688 0.738281 c -1.085937 0.207032 -2.136719 -0.460937 -2.355469 -1.484375 l -0.777343 -3.710937 c -0.214844 -1.023438 0.488281 -2.019532 1.574219 -2.226563 z m 0 0"/>
    <path d="m 76.742188 36.394531 l 3.929687 -0.738281 c 1.085937 -0.207031 2.140625 0.460938 2.355469 1.484375 l 0.648437 3.09375 c 0.214844 1.023437 -0.488281 2.019531 -1.574219 2.222656 l -3.929687 0.742188 c -1.085937 0.203125 -2.140625 -0.460938 -2.355469 -1.484375 l -0.648437 -3.09375 c -0.214844 -1.023438 0.488281 -2.019532 1.574219 -2.226563 z m 0 0" fill="#36343d"/>
    <path d="m 36.644531 52.949219 l 3.929688 -0.738281 c 1.085937 -0.203126 2.136719 0.460937 2.355469 1.484374 l 0.777343 3.710938 c 0.214844 1.023438 -0.488281 2.023438 -1.574219 2.226562 l -3.929687 0.738282 c -1.085937 0.207031 -2.140625 -0.460938 -2.355469 -1.484375 l -0.777344 -3.710938 c -0.21875 -1.023437 0.488282 -2.019531 1.574219 -2.226562 z m 0 0"/>
    <path d="m 36.644531 52.949219 l 3.929688 -0.738281 c 1.085937 -0.203126 2.136719 0.460937 2.355469 1.484374 l 0.648437 3.09375 c 0.214844 1.023438 -0.488281 2.019532 -1.574219 2.226563 l -3.929687 0.738281 c -1.085938 0.203125 -2.140625 -0.460937 -2.355469 -1.484375 l -0.648438 -3.09375 c -0.21875 -1.023437 0.488282 -2.019531 1.574219 -2.226562 z m 0 0" fill="#36343d"/>
    <path d="m 45.8125 51.222656 l 3.929688 -0.738281 c 1.085937 -0.207031 2.140624 0.460937 2.355468 1.484375 l 0.78125 3.710938 c 0.214844 1.023437 -0.492187 2.019531 -1.574218 2.226562 l -3.929688 0.738281 c -1.085938 0.207031 -2.140625 -0.460937 -2.355469 -1.484375 l -0.78125 -3.710937 c -0.214843 -1.023438 0.488281 -2.019531 1.574219 -2.226563 z m 0 0"/>
    <path d="m 45.8125 51.222656 l 3.929688 -0.738281 c 1.085937 -0.207031 2.140624 0.460937 2.355468 1.484375 l 0.648438 3.09375 c 0.21875 1.023438 -0.488282 2.019531 -1.574219 2.222656 l -3.929687 0.742188 c -1.085938 0.203125 -2.136719 -0.460938 -2.355469 -1.484375 l -0.648438 -3.09375 c -0.214843 -1.023438 0.488281 -2.019531 1.574219 -2.226563 z m 0 0" fill="#36343d"/>
    <path d="m 54.984375 49.496094 l 3.929687 -0.738282 c 1.082032 -0.207031 2.136719 0.457032 2.351563 1.484376 l 0.78125 3.710937 c 0.214844 1.023437 -0.488281 2.019531 -1.574219 2.226563 l -3.929687 0.738281 c -1.085938 0.203125 -2.140625 -0.460938 -2.355469 -1.484375 l -0.78125 -3.710938 c -0.214844 -1.027344 0.492188 -2.023437 1.578125 -2.226562 z m 0 0"/>
    <path d="m 54.984375 49.496094 l 3.929687 -0.738282 c 1.082032 -0.207031 2.136719 0.457032 2.351563 1.484376 l 0.652344 3.089843 c 0.214843 1.027344 -0.488281 2.023438 -1.574219 2.226563 l -3.929688 0.742187 c -1.085937 0.203125 -2.140624 -0.460937 -2.355468 -1.488281 l -0.652344 -3.089844 c -0.214844 -1.027344 0.492188 -2.023437 1.578125 -2.226562 z m 0 0" fill="#36343d"/>
    <path d="m 64.152344 47.769531 l 3.929687 -0.742187 c 1.085938 -0.203125 2.140625 0.460937 2.355469 1.488281 l 0.78125 3.710937 c 0.214844 1.023438 -0.492188 2.019532 -1.578125 2.222657 l -3.929687 0.742187 c -1.082032 0.203125 -2.136719 -0.460937 -2.351563 -1.484375 l -0.78125 -3.710937 c -0.214844 -1.027344 0.488281 -2.023438 1.574219 -2.226563 z m 0 0"/>
    <path d="m 64.152344 47.769531 l 3.929687 -0.742187 c 1.085938 -0.203125 2.140625 0.460937 2.355469 1.488281 l 0.648438 3.089844 c 0.214843 1.027343 -0.488282 2.023437 -1.574219 2.226562 l -3.929688 0.742188 c -1.085937 0.203125 -2.140625 -0.460938 -2.355469 -1.488281 l -0.648437 -3.089844 c -0.214844 -1.027344 0.488281 -2.023438 1.574219 -2.226563 z m 0 0" fill="#36343d"/>
    <path d="m 27.472656 54.679688 l 3.929688 -0.742188 c 1.085937 -0.203125 2.140625 0.460938 2.355468 1.484375 l 0.78125 3.710937 c 0.214844 1.027344 -0.488281 2.023438 -1.574218 2.226563 l -3.929688 0.742187 c -1.085937 0.203126 -2.140625 -0.460937 -2.355468 -1.488281 l -0.78125 -3.710937 c -0.214844 -1.023438 0.488281 -2.019532 1.574218 -2.222656 z m 0 0"/>
    <path d="m 27.472656 54.679688 l 3.929688 -0.742188 c 1.085937 -0.203125 2.140625 0.460938 2.355468 1.484375 l 0.652344 3.09375 c 0.214844 1.023437 -0.492187 2.019531 -1.578125 2.226563 l -3.929687 0.738281 c -1.082032 0.207031 -2.136719 -0.460938 -2.355469 -1.484375 l -0.648437 -3.09375 c -0.214844 -1.023438 0.488281 -2.019532 1.574218 -2.222656 z m 0 0" fill="#36343d"/>
    <path d="m 73.320312 46.042969 l 3.929688 -0.742188 c 1.085938 -0.203125 2.140625 0.460938 2.355469 1.484375 l 0.78125 3.710938 c 0.214843 1.027344 -0.488281 2.023437 -1.574219 2.226562 l -3.929688 0.742188 c -1.085937 0.203125 -2.140624 -0.460938 -2.355468 -1.488282 l -0.78125 -3.710937 c -0.214844 -1.023437 0.492187 -2.019531 1.574218 -2.222656 z m 0 0"/>
    <path d="m 73.320312 46.042969 l 3.929688 -0.742188 c 1.085938 -0.203125 2.140625 0.460938 2.355469 1.484375 l 0.652343 3.09375 c 0.214844 1.023438 -0.492187 2.023438 -1.574218 2.226563 l -3.929688 0.738281 c -1.085937 0.207031 -2.140625 -0.460938 -2.355468 -1.484375 l -0.652344 -3.09375 c -0.214844 -1.023437 0.492187 -2.019531 1.574218 -2.222656 z m 0 0" fill="#36343d"/>
    <path d="m 82.492188 44.316406 l 3.929687 -0.742187 c 1.085937 -0.203125 2.140625 0.460937 2.355469 1.484375 l 0.777344 3.710937 c 0.21875 1.027344 -0.488282 2.023438 -1.574219 2.226563 l -3.929688 0.742187 c -1.085937 0.203125 -2.136719 -0.460937 -2.355469 -1.488281 l -0.777343 -3.710938 c -0.214844 -1.023437 0.488281 -2.019531 1.574219 -2.222656 z m 0 0"/>
    <path d="m 82.492188 44.316406 l 3.929687 -0.742187 c 1.085937 -0.203125 2.140625 0.460937 2.355469 1.484375 l 0.648437 3.09375 c 0.214844 1.023437 -0.488281 2.019531 -1.574219 2.226562 l -3.929687 0.738282 c -1.085937 0.207031 -2.140625 -0.460938 -2.355469 -1.484376 l -0.648437 -3.09375 c -0.214844 -1.023437 0.488281 -2.019531 1.574219 -2.222656 z m 0 0" fill="#36343d"/>
    <path d="m 85.910156 34.667969 l 3.929688 -0.738281 c 1.085937 -0.207032 2.140625 0.460937 2.355468 1.484374 l 0.78125 3.710938 c 0.214844 1.023438 -0.488281 2.019531 -1.574218 2.226562 l -3.929688 0.738282 c -1.085937 0.203125 -2.140625 -0.460938 -2.355468 -1.484375 l -0.78125 -3.710938 c -0.214844 -1.023437 0.488281 -2.023437 1.574218 -2.226562 z m 0 0"/>
    <path d="m 85.910156 34.667969 l 3.929688 -0.738281 c 1.085937 -0.207032 2.140625 0.460937 2.355468 1.484374 l 0.652344 3.09375 c 0.214844 1.023438 -0.492187 2.019532 -1.578125 2.222657 l -3.929687 0.742187 c -1.082032 0.203125 -2.136719 -0.460937 -2.351563 -1.484375 l -0.652343 -3.09375 c -0.214844 -1.023437 0.488281 -2.023437 1.574218 -2.226562 z m 0 0" fill="#36343d"/>
    <path d="m 90.476562 37.074219 l 0.023438 -0.003907 c 1.085938 -0.207031 2.140625 0.460938 2.355469 1.484376 l 2.0625 9.796874 c 0.214843 1.027344 -0.492188 2.023438 -1.578125 2.226563 l -0.023438 0.007813 c -1.085937 0.203124 -2.140625 -0.460938 -2.355468 -1.488282 l -2.0625 -9.796875 c -0.214844 -1.027343 0.492187 -2.023437 1.578124 -2.226562 z m 0 0"/>
    <path d="m 90.355469 36.503906 l 0.027343 -0.003906 c 1.085938 -0.203125 2.136719 0.460938 2.355469 1.484375 l 2.058594 9.800781 c 0.214844 1.023438 -0.488281 2.019532 -1.574219 2.222656 l -0.027344 0.007813 c -1.085937 0.203125 -2.140624 -0.460937 -2.355468 -1.488281 l -2.058594 -9.796875 c -0.214844 -1.023438 0.488281 -2.019531 1.574219 -2.226563 z m 0 0" fill="#36343d"/>
    <path d="m 29.292969 63.335938 l 9.171875 -1.726563 c 1.085937 -0.203125 2.136718 0.460937 2.355468 1.484375 l 0.777344 3.710938 c 0.214844 1.027343 -0.488281 2.023437 -1.574218 2.226562 l -9.167969 1.726562 c -1.085938 0.207032 -2.140625 -0.460937 -2.355469 -1.484374 l -0.78125 -3.710938 c -0.214844 -1.023438 0.488281 -2.019531 1.574219 -2.226562 z m 0 0"/>
    <path d="m 29.292969 63.335938 l 9.171875 -1.726563 c 1.082031 -0.203125 2.136718 0.460937 2.351562 1.484375 l 0.652344 3.09375 c 0.214844 1.023438 -0.488281 2.019531 -1.574219 2.226562 l -9.171875 1.726563 c -1.085937 0.203125 -2.136718 -0.460937 -2.355468 -1.484375 l -0.648438 -3.09375 c -0.214844 -1.023438 0.488281 -2.019531 1.574219 -2.226562 z m 0 0" fill="#36343d"/>
    <path d="m 43.703125 60.621094 l 3.929687 -0.738282 c 1.085938 -0.203124 2.140626 0.460938 2.355469 1.484376 l 0.78125 3.710937 c 0.214844 1.027344 -0.492187 2.023437 -1.574219 2.226563 l -3.933593 0.738281 c -1.082031 0.207031 -2.136719 -0.457031 -2.351563 -1.484375 l -0.78125 -3.710938 c -0.214844 -1.023437 0.488282 -2.019531 1.574219 -2.226562 z m 0 0"/>
    <path d="m 43.703125 60.621094 l 3.929687 -0.738282 c 1.085938 -0.203124 2.140626 0.460938 2.355469 1.484376 l 0.648438 3.09375 c 0.21875 1.023437 -0.488281 2.019531 -1.574219 2.226562 l -3.929688 0.738281 c -1.085937 0.203125 -2.140624 -0.460937 -2.355468 -1.484375 l -0.648438 -3.09375 c -0.214844 -1.023437 0.488282 -2.019531 1.574219 -2.226562 z m 0 0" fill="#36343d"/>
    <path d="m 52.871094 58.894531 l 3.933594 -0.738281 c 1.082031 -0.207031 2.136718 0.460938 2.351562 1.484375 l 0.78125 3.710937 c 0.214844 1.023438 -0.488281 2.019532 -1.574219 2.226563 l -3.929687 0.738281 c -1.085938 0.207032 -2.140625 -0.460937 -2.355469 -1.484375 l -0.78125 -3.710937 c -0.214844 -1.023438 0.492187 -2.019532 1.574219 -2.226563 z m 0 0"/>
    <path d="m 52.871094 58.894531 l 3.933594 -0.738281 c 1.082031 -0.207031 2.136718 0.460938 2.351562 1.484375 l 0.652344 3.09375 c 0.214844 1.023437 -0.492188 2.019531 -1.574219 2.222656 l -3.929687 0.742188 c -1.085938 0.203125 -2.140626 -0.460938 -2.355469 -1.484375 l -0.652344 -3.09375 c -0.214844 -1.023438 0.492187 -2.019532 1.574219 -2.226563 z m 0 0" fill="#36343d"/>
    <path d="m 62.042969 57.167969 l 22.269531 -4.195313 c 1.085938 -0.203125 2.140625 0.460938 2.355469 1.484375 l 0.777343 3.714844 c 0.21875 1.023437 -0.488281 2.019531 -1.574218 2.222656 l -22.269532 4.195313 c -1.085937 0.203125 -2.136718 -0.460938 -2.355468 -1.484375 l -0.777344 -3.710938 c -0.214844 -1.023437 0.488281 -2.023437 1.574219 -2.226562 z m 0 0"/>
    <path d="m 62.042969 57.167969 l 22.269531 -4.195313 c 1.085938 -0.203125 2.140625 0.460938 2.355469 1.484375 l 0.648437 3.09375 c 0.214844 1.027344 -0.488281 2.023438 -1.574218 2.226563 l -22.269532 4.195312 c -1.085937 0.203125 -2.140625 -0.460937 -2.355468 -1.484375 l -0.648438 -3.09375 c -0.214844 -1.023437 0.488281 -2.023437 1.574219 -2.226562 z m 0 0" fill="#36343d"/>
    <path d="m 89.550781 51.988281 l 3.929688 -0.742187 c 1.085937 -0.203125 2.140625 0.460937 2.355469 1.484375 l 0.78125 3.710937 c 0.214843 1.027344 -0.488282 2.023438 -1.574219 2.226563 l -3.929688 0.742187 c -1.085937 0.203125 -2.140625 -0.460937 -2.355469 -1.488281 l -0.78125 -3.710937 c -0.214843 -1.023438 0.488282 -2.019532 1.574219 -2.222657 z m 0 0"/>
    <path d="m 89.550781 51.988281 l 3.929688 -0.742187 c 1.085937 -0.203125 2.140625 0.460937 2.355469 1.484375 l 0.652343 3.09375 c 0.214844 1.023437 -0.492187 2.019531 -1.578125 2.226562 l -3.929687 0.738281 c -1.082031 0.207032 -2.136719 -0.460937 -2.355469 -1.484374 l -0.648438 -3.09375 c -0.214843 -1.023438 0.488282 -2.019532 1.574219 -2.222657 z m 0 0" fill="#36343d"/>
    <path d="m 75.523438 14.65625 c 0.726562 -0.136719 1.433593 0.308594 1.578124 0.996094 c 0.144532 0.683594 -0.328124 1.351562 -1.054687 1.488281 s -1.433594 -0.308594 -1.578125 -0.992187 c -0.144531 -0.6875 0.328125 -1.355469 1.054688 -1.492188 z m 0 0" fill="#ff7800"/>
    <path d="m 79.496094 13.90625 c 0.730468 -0.136719 1.433594 0.308594 1.578125 0.996094 s -0.328125 1.355468 -1.054688 1.492187 c -0.726562 0.136719 -1.433593 -0.308593 -1.578125 -0.996093 c -0.144531 -0.6875 0.328125 -1.355469 1.054688 -1.492188 z m 0 0" fill="#f6d32d"/>
    <path d="m 110 46.507812 v 7.84375 c 1.152344 1.210938 2.785156 1.90625 4.5 1.910157 c 0.503906 -0.003907 1.007812 -0.070313 1.5 -0.191407 v -11.292968 c -0.492188 -0.121094 -0.996094 -0.179688 -1.5 -0.179688 c -1.714844 0 -3.347656 0.695313 -4.5 1.910156 z m 0 0" fill="#1b5baf"/>
    <path d="m 80.636719 59.1875 c -2.4375 -0.085938 -4.839844 0.597656 -6.859375 1.960938 l -22.347656 15.039062 c -2.0625 1.394531 -3.621094 3.417969 -4.4375 5.765625 h 37.21875 l 2.457031 -1.652344 c 5.289062 -3.5625 6.691406 -10.734375 3.128906 -16.023437 c -2.0625 -3.066406 -5.46875 -4.957032 -9.160156 -5.089844 z m 0 0" fill="url(#d)"/>
    <path d="m 73.777344 61.148438 c 5.289062 -3.5625 12.460937 -2.160157 16.023437 3.128906 c 3.558594 5.289062 2.15625 12.464844 -3.132812 16.023437 c -5.289063 3.558594 -12.460938 2.160157 -16.023438 -3.128906 c -3.558593 -5.289063 -2.15625 -12.464844 3.132813 -16.023437 z m 0 0" fill="url(#e)"/>
    <path d="m 81.773438 59.242188 c 3.964843 -2.667969 9.347656 -1.617188 12.015624 2.351562 c 2.671876 3.964844 1.621094 9.34375 -2.347656 12.015625 c -3.964844 2.671875 -9.347656 1.617187 -12.015625 -2.347656 c -2.671875 -3.96875 -1.621093 -9.347657 2.347657 -12.019531 z m 0 0" fill="url(#f)"/>
    <path d="m 84.167969 57.632812 c 3.964843 -2.671874 9.34375 -1.621093 12.015625 2.347657 c 2.671875 3.964843 1.617187 9.347656 -2.347656 12.015625 c -3.96875 2.671875 -9.347657 1.621094 -12.019532 -2.347656 c -2.667968 -3.964844 -1.617187 -9.347657 2.351563 -12.015626 z m 0 0" fill="#a51d2d"/>
    <path d="m 111.429688 43.066406 l 9.039062 -3.058594 c 0.261719 -0.089843 0.546875 0.007813 0.699219 0.234376 l 2.707031 4.019531 c 0.152344 0.226562 0.132812 0.527343 -0.046875 0.734375 l -6.234375 7.226562 c -0.148438 0.171875 -0.371094 0.265625 -0.601562 0.253906 c -0.226563 -0.015624 -0.4375 -0.132812 -0.566407 -0.324218 l -5.371093 -7.980469 c -0.128907 -0.191406 -0.160157 -0.429687 -0.085938 -0.644531 c 0.074219 -0.21875 0.242188 -0.390625 0.460938 -0.460938 z m 0 0" fill="#c0bfbc"/>
    <path d="m 111.59375 44.96875 l -23.945312 16.117188 c -1.761719 1.1875 -2.226563 3.578124 -1.042969 5.339843 c 1.1875 1.765625 3.578125 2.230469 5.34375 1.042969 l 23.941406 -16.113281 c 1.761719 -1.1875 2.230469 -3.578125 1.042969 -5.34375 c -1.1875 -1.761719 -3.578125 -2.230469 -5.339844 -1.042969 z m 0 0" fill="url(#g)"/>
    <path d="m 110.640625 43.625 l 8.230469 -2.554688 c 0.261718 -0.082031 0.546875 0.019532 0.699218 0.246094 l 2.707032 4.019532 c 0.152344 0.230468 0.140625 0.53125 -0.035156 0.742187 l -5.464844 6.664063 c -0.144532 0.175781 -0.363282 0.273437 -0.589844 0.261718 c -0.222656 -0.011718 -0.433594 -0.125 -0.558594 -0.3125 l -5.371094 -7.984375 c -0.125 -0.1875 -0.15625 -0.421875 -0.082031 -0.636719 c 0.074219 -0.210937 0.246094 -0.378906 0.464844 -0.445312 z m 0 0" fill="#deddda"/>
    <g clip-path="url(#h)">
        <g clip-path="url(#i)">
            <path d="m 63.40625 64.277344 c -0.742188 0 -1.492188 0.214844 -2.15625 0.660156 l -34.316406 23.097656 c -1.769532 1.191406 -2.230469 3.574219 -1.042969 5.34375 c 1.191406 1.769532 3.570313 2.234375 5.339844 1.042969 l 14.375 -9.675781 v -2.792969 h 4.148437 l 15.796875 -10.628906 c 1.765625 -1.191407 2.234375 -3.574219 1.042969 -5.339844 c -0.746094 -1.105469 -1.953125 -1.707031 -3.1875 -1.707031 z m 1.65625 12.800781 c -0.742188 0 -1.488281 0.214844 -2.152344 0.660156 l -6.261718 4.214844 h 12.117187 c 0.289063 -1.042969 0.140625 -2.199219 -0.515625 -3.171875 c -0.742188 -1.105469 -1.953125 -1.699219 -3.1875 -1.703125 z m -19.457031 12.308594 l -17.011719 11.449219 c -1.769531 1.191406 -2.234375 3.574218 -1.042969 5.34375 c 1.1875 1.769531 3.570313 2.234374 5.339844 1.042968 l 12.714844 -8.554687 z m 17.765625 11.234375 l -13.988282 0.136718 l -9.558593 6.433594 c -1.765625 1.191406 -2.230469 3.574219 -1.039063 5.339844 c 1.191406 1.769531 3.570313 2.234375 5.339844 1.046875 z m 0 0" fill="#c01c28"/>
        </g>
    </g>
</svg>
